<svg xmlns="http://www.w3.org/2000/svg" viewBox="0 0 619.5 194.17"><defs><style>.cls-1{fill:#79b842;}.cls-2{fill:#398634;}</style></defs><g id="Layer_2" data-name="Layer 2"><g id="Capa_1" data-name="Capa 1"><path class="cls-1" d="M0,.19,619.5.07v194.1C520.1,10.16,361.53,52.08,217.43,94,135.88,117.73,59,141.46,0,124.24Z"/><path class="cls-1" d="M405.83,57.88c-28.54,0-57.75,3.88-87.08,9.84q3.56,3.9,7.39,7.58a156.35,156.35,0,0,0,108.78,43.76,156.26,156.26,0,0,0,91.71-29.52c-37.47-23.08-78.37-31.66-120.8-31.66M519.09,0l0,.09h68.31s0,0,0-.08ZM282.44,0l0,.13h68.31L350.72,0Z"/><path class="cls-2" d="M587.36.08a156.48,156.48,0,0,1-43.67,75.23,158.64,158.64,0,0,1-17.07,14.24c-37.46-23.08-78.37-31.66-120.8-31.66-28.54,0-57.75,3.88-87.08,9.84A156.21,156.21,0,0,1,282.47.14h68.31A92.78,92.78,0,0,0,434.9,54.38,92.77,92.77,0,0,0,519,.1Z"/></g></g></svg>