<?xml version="1.0" encoding="utf-8"?>
<!-- Generator: Adobe Illustrator 27.0.0, SVG Export Plug-In . SVG Version: 6.00 Build 0)  -->
<svg version="1.1" id="Layer_1" xmlns="http://www.w3.org/2000/svg" xmlns:xlink="http://www.w3.org/1999/xlink" x="0px" y="0px"
	 viewBox="0 0 612 232" style="enable-background:new 0 0 612 232;" xml:space="preserve">
<style type="text/css">
	.st0{clip-path:url(#SVGID_00000160892006679863984250000017102830527349160071_);fill:#7ABA44;}
	.st1{clip-path:url(#SVGID_00000064329063456548312580000000980417675772610470_);fill:#47A290;}
	.st2{clip-path:url(#SVGID_00000052786589002499008380000006866770130758913671_);fill:#28753B;}
	.st3{clip-path:url(#SVGID_00000080203243781242153060000016493517109642684861_);fill:#136D54;}
</style>
<g>
	<g>
		<defs>
			<rect id="SVGID_1_" y="-0.4" width="612" height="241.5"/>
		</defs>
		<clipPath id="SVGID_00000127752701698388069140000009589829255522042758_">
			<use xlink:href="#SVGID_1_"  style="overflow:visible;"/>
		</clipPath>
		<path style="clip-path:url(#SVGID_00000127752701698388069140000009589829255522042758_);fill:#7ABA44;" d="M2.3,174.5
			c46.1,17.5,98.4-4.9,116.8-49.9c40-98,85.9-138.9,169.5-151c131.2-18.9,252.8,69.4,271.2,196.8c6.9,47.8,52.3,80.7,101.5,73.7
			c49.2-7.1,83.5-51.5,76.6-99.3C729.9,90.4,711.3,39,682.4-7.7c-27.9-45.1-64.1-84-107.6-115.6s-92.2-54.3-144.6-67.5
			c-54.4-13.7-110.4-16.6-166.5-8.5c-40.9,5.9-78.8,16.8-112.6,32.4c-33.2,15.3-63.4,35.6-90,60.3C36.8-84.1,15.7-58.2-3.5-27.5
			c-16.2,26-30.8,55-44.6,88.9C-66.4,106.4-43.9,157.1,2.3,174.5"/>
	</g>
</g>
<g>
	<g>
		<defs>
			<rect id="SVGID_00000018927015345314991420000009316208912520695487_" x="0.4" y="-0.4" width="612" height="241.5"/>
		</defs>
		<clipPath id="SVGID_00000080886119740188292830000011613306434698063509_">
			<use xlink:href="#SVGID_00000018927015345314991420000009316208912520695487_"  style="overflow:visible;"/>
		</clipPath>
		<path style="clip-path:url(#SVGID_00000080886119740188292830000011613306434698063509_);fill:#47A290;" d="M178.9,140.1
			c52.3,0,101.9-19.9,139.6-56.1C343,60.4,360.9,31.4,371-0.4h-90.6c-20.9,34.5-58.8,57.5-101.5,57.5c-8.2,0-16.3-0.8-24-2.5
			c-12.7,19-24.3,41.8-35.4,69.1c-0.9,2.2-1.9,4.4-3,6.6C136.4,136.8,157.4,140.1,178.9,140.1"/>
	</g>
	<g>
		<defs>
			<rect id="SVGID_00000147189598514799244270000001634487904955337656_" x="0.4" y="-0.4" width="612" height="241.5"/>
		</defs>
		<clipPath id="SVGID_00000105393945281776464790000008149720165542917052_">
			<use xlink:href="#SVGID_00000147189598514799244270000001634487904955337656_"  style="overflow:visible;"/>
		</clipPath>
		<path style="clip-path:url(#SVGID_00000105393945281776464790000008149720165542917052_);fill:#28753B;" d="M116.5,130.3
			c1.1-2.1,2.1-4.3,3-6.6c11.1-27.2,22.7-50,35.4-69.1c-32.6-6.8-60.6-27.2-77.5-55H0.4v32.8c10,18.9,23,36.3,38.9,51.5
			C61.5,105.3,87.9,121,116.5,130.3"/>
	</g>
	<g>
		<defs>
			<rect id="SVGID_00000025417302361690500530000004592869183209712283_" x="0.4" y="-0.4" width="612" height="241.5"/>
		</defs>
		<clipPath id="SVGID_00000013902297566768506300000017081749716453384886_">
			<use xlink:href="#SVGID_00000025417302361690500530000004592869183209712283_"  style="overflow:visible;"/>
		</clipPath>
		<path style="clip-path:url(#SVGID_00000013902297566768506300000017081749716453384886_);fill:#136D54;" d="M377.1,46
			c1.8,0,3.2-1.4,3.2-3.2s-1.4-3.2-3.2-3.2c-1.8,0-3.2,1.4-3.2,3.2C373.9,44.6,375.3,46,377.1,46 M405.7,46c1.8,0,3.2-1.4,3.2-3.2
			s-1.4-3.2-3.2-3.2c-1.8,0-3.2,1.4-3.2,3.2C402.5,44.6,403.9,46,405.7,46 M434.3,46c1.8,0,3.2-1.4,3.2-3.2s-1.4-3.2-3.2-3.2
			c-1.8,0-3.2,1.4-3.2,3.2C431.1,44.6,432.5,46,434.3,46 M462.9,46c1.8,0,3.2-1.4,3.2-3.2s-1.4-3.2-3.2-3.2c-1.8,0-3.2,1.4-3.2,3.2
			C459.7,44.6,461.1,46,462.9,46 M377.1,74.7c1.8,0,3.2-1.4,3.2-3.2s-1.4-3.2-3.2-3.2c-1.8,0-3.2,1.4-3.2,3.2S375.3,74.7,377.1,74.7
			 M405.7,74.7c1.8,0,3.2-1.4,3.2-3.2s-1.4-3.2-3.2-3.2c-1.8,0-3.2,1.4-3.2,3.2S403.9,74.7,405.7,74.7 M434.3,74.7
			c1.8,0,3.2-1.4,3.2-3.2s-1.4-3.2-3.2-3.2c-1.8,0-3.2,1.4-3.2,3.2S432.5,74.7,434.3,74.7 M462.9,74.7c1.8,0,3.2-1.4,3.2-3.2
			s-1.4-3.2-3.2-3.2c-1.8,0-3.2,1.4-3.2,3.2S461.1,74.7,462.9,74.7 M377.1,96.9c-1.8,0-3.2,1.4-3.2,3.2c0,1.8,1.4,3.2,3.2,3.2
			c1.8,0,3.2-1.4,3.2-3.2C380.3,98.4,378.8,96.9,377.1,96.9 M405.7,103.3c1.8,0,3.2-1.4,3.2-3.2c0-1.8-1.4-3.2-3.2-3.2
			c-1.8,0-3.2,1.4-3.2,3.2C402.5,101.9,403.9,103.3,405.7,103.3 M434.3,103.3c1.8,0,3.2-1.4,3.2-3.2c0-1.8-1.4-3.2-3.2-3.2
			c-1.8,0-3.2,1.4-3.2,3.2C431.1,101.9,432.5,103.3,434.3,103.3 M462.9,103.3c1.8,0,3.2-1.4,3.2-3.2c0-1.8-1.4-3.2-3.2-3.2
			c-1.8,0-3.2,1.4-3.2,3.2C459.7,101.9,461.1,103.3,462.9,103.3"/>
	</g>
</g>
</svg>
