<?xml version="1.0" encoding="utf-8"?>
<!-- Generator: Adobe Illustrator 27.0.0, SVG Export Plug-In . SVG Version: 6.00 Build 0)  -->
<svg version="1.1" id="Layer_1" xmlns="http://www.w3.org/2000/svg" xmlns:xlink="http://www.w3.org/1999/xlink" x="0px" y="0px"
	 viewBox="0 0 615.6 155" style="enable-background:new 0 0 615.6 155;" xml:space="preserve">
<style type="text/css">
	.st0{clip-path:url(#SVGID_00000052782996022925296560000003131639992420819902_);fill:#7ABA44;}
	.st1{clip-path:url(#SVGID_00000104680908301972084330000018365693105224002471_);fill:#47A290;}
	.st2{clip-path:url(#SVGID_00000001638944228340796260000005705014708110658989_);fill:#28753B;}
	.st3{clip-path:url(#SVGID_00000051381296090528641840000015704005504512715182_);fill:#FFFFFF;}
</style>
<g>
	<g>
		<defs>
			<rect id="SVGID_1_" y="1" width="615.6" height="153.9"/>
		</defs>
		<clipPath id="SVGID_00000105391421062981017910000010195484837438586527_">
			<use xlink:href="#SVGID_1_"  style="overflow:visible;"/>
		</clipPath>
		<path style="clip-path:url(#SVGID_00000105391421062981017910000010195484837438586527_);fill:#7ABA44;" d="M596,128.5
			c-24.7-29.8-54.5-54.4-88.8-73c-35.5-19.3-74-31.3-114.6-35.8c-29.6-3.2-58-2.4-84.3,2.4c-25.9,4.7-50.6,13.4-73.6,25.9
			c-20.9,11.4-40.3,25.6-59.2,43.6c-16,15.2-31.3,32.9-47,54c-2.2,3-4.1,6.2-5.8,9.4h181.6c22-10.4,45.9-13.3,74.5-10.2
			c15,1.6,29.4,5.1,43,10.2h193.6C609.6,145.9,603.1,137,596,128.5"/>
	</g>
</g>
<g>
	<g>
		<defs>
			<rect id="SVGID_00000141419758835161925210000009897941857317893301_" y="1" width="270.1" height="153.4"/>
		</defs>
		<clipPath id="SVGID_00000048484764690272020460000000553573130241309352_">
			<use xlink:href="#SVGID_00000141419758835161925210000009897941857317893301_"  style="overflow:visible;"/>
		</clipPath>
		<path style="clip-path:url(#SVGID_00000048484764690272020460000000553573130241309352_);fill:#47A290;" d="M201.6,12.7
			c-7.9,0-15.8,1.5-23.1,5c-38.2,18.3-44.4,69.8-81.8,69.8c-8.3,0-18.1-2.5-30.2-8.5c-26-12.9-47.4-16.9-63.9-16.9
			c-0.9,0-1.9,0-2.8,0v78.7c0.3,0.5,0.6,1,1,1.6c2.4,4,4.2,8.2,5.5,12.5h212.2l0,0h-95.8c1.6-3.2,3.5-6.4,5.8-9.4
			c15.7-21.1,31.1-38.8,47-54c18.9-18,38.2-32.3,59.2-43.6c7.3-4,14.9-7.6,22.5-10.8C244.2,23.5,222.6,12.7,201.6,12.7"/>
	</g>
	<g>
		<defs>
			<rect id="SVGID_00000148663298106412061490000010867793708453884307_" y="1" width="270.1" height="153.4"/>
		</defs>
		<clipPath id="SVGID_00000121255826838170731320000011345036953539681177_">
			<use xlink:href="#SVGID_00000148663298106412061490000010867793708453884307_"  style="overflow:visible;"/>
		</clipPath>
		<path style="clip-path:url(#SVGID_00000121255826838170731320000011345036953539681177_);fill:#28753B;" d="M257.4,37.2
			c-7.7,3.2-15.2,6.8-22.5,10.8c-20.9,11.4-40.3,25.6-59.2,43.6c-16,15.2-31.3,32.9-47,54c-2.2,3-4.1,6.2-5.8,9.4h95.8
			c5.1-35.9,17.7-54.2,42.2-73.8C275.8,69.2,271.2,51.5,257.4,37.2"/>
	</g>
</g>
<g>
	<g>
		<defs>
			<rect id="SVGID_00000046334349806811886080000010517044624742523544_" y="1" width="615.6" height="153.9"/>
		</defs>
		<clipPath id="SVGID_00000095322377298114900310000010078373359298259870_">
			<use xlink:href="#SVGID_00000046334349806811886080000010517044624742523544_"  style="overflow:visible;"/>
		</clipPath>
		<path style="clip-path:url(#SVGID_00000095322377298114900310000010078373359298259870_);fill:#FFFFFF;" d="M40.7,54.8
			c-1.3,0-2.5,1.1-2.5,2.4c0,1.4,1.1,2.4,2.5,2.4c1.3,0,2.5-1.1,2.5-2.4C43.2,55.9,42.1,54.8,40.7,54.8 M62.8,54.8
			c-1.3,0-2.5,1.1-2.5,2.4c0,1.4,1.1,2.4,2.5,2.4c1.3,0,2.4-1.1,2.4-2.4C65.2,55.9,64.1,54.8,62.8,54.8 M84.8,54.8
			c-1.3,0-2.4,1.1-2.4,2.4c0,1.4,1.1,2.4,2.4,2.4s2.4-1.1,2.4-2.4C87.3,55.9,86.2,54.8,84.8,54.8 M106.9,59.6c1.3,0,2.4-1.1,2.4-2.4
			c0-1.3-1.1-2.4-2.4-2.4s-2.4,1.1-2.4,2.4C104.4,58.5,105.5,59.6,106.9,59.6 M40.7,76.7c-1.3,0-2.5,1.1-2.5,2.4
			c0,1.4,1.1,2.4,2.5,2.4c1.3,0,2.5-1.1,2.5-2.4C43.2,77.8,42.1,76.7,40.7,76.7 M62.8,76.7c-1.3,0-2.5,1.1-2.5,2.4
			c0,1.4,1.1,2.4,2.5,2.4c1.3,0,2.4-1.1,2.4-2.4C65.2,77.8,64.1,76.7,62.8,76.7 M84.8,76.7c-1.3,0-2.4,1.1-2.4,2.4
			c0,1.4,1.1,2.4,2.4,2.4s2.4-1.1,2.4-2.4C87.3,77.8,86.2,76.7,84.8,76.7 M106.9,76.7c-1.3,0-2.4,1.1-2.4,2.4c0,1.4,1.1,2.4,2.4,2.4
			s2.4-1.1,2.4-2.4C109.3,77.8,108.2,76.7,106.9,76.7 M40.7,98.6c-1.3,0-2.5,1.1-2.5,2.4s1.1,2.4,2.5,2.4c1.3,0,2.5-1.1,2.5-2.4
			S42.1,98.6,40.7,98.6 M62.8,98.6c-1.3,0-2.5,1.1-2.5,2.4s1.1,2.4,2.5,2.4c1.3,0,2.4-1.1,2.4-2.4C65.2,99.7,64.1,98.6,62.8,98.6
			 M84.8,98.6c-1.3,0-2.4,1.1-2.4,2.4s1.1,2.4,2.4,2.4s2.4-1.1,2.4-2.4C87.3,99.7,86.2,98.6,84.8,98.6 M106.9,98.6
			c-1.3,0-2.4,1.1-2.4,2.4s1.1,2.4,2.4,2.4s2.4-1.1,2.4-2.4S108.2,98.6,106.9,98.6 M40.7,120.5c-1.3,0-2.5,1.1-2.5,2.4
			c0,1.3,1.1,2.4,2.5,2.4c1.3,0,2.5-1.1,2.5-2.4C43.2,121.6,42.1,120.5,40.7,120.5 M62.8,120.5c-1.3,0-2.5,1.1-2.5,2.4
			c0,1.3,1.1,2.4,2.5,2.4c1.3,0,2.4-1.1,2.4-2.4C65.2,121.6,64.1,120.5,62.8,120.5 M84.8,120.5c-1.3,0-2.4,1.1-2.4,2.4
			c0,1.3,1.1,2.4,2.4,2.4s2.4-1.1,2.4-2.4C87.3,121.6,86.2,120.5,84.8,120.5 M106.9,120.5c-1.3,0-2.4,1.1-2.4,2.4
			c0,1.3,1.1,2.4,2.4,2.4s2.4-1.1,2.4-2.4C109.3,121.6,108.2,120.5,106.9,120.5 M40.7,142.5c-1.3,0-2.5,1.1-2.5,2.4
			c0,1.3,1.1,2.4,2.5,2.4c1.3,0,2.5-1.1,2.5-2.4S42.1,142.5,40.7,142.5 M62.8,142.5c-1.3,0-2.5,1.1-2.5,2.4c0,1.3,1.1,2.4,2.5,2.4
			c1.3,0,2.4-1.1,2.4-2.4C65.2,143.6,64.1,142.5,62.8,142.5 M84.8,142.5c-1.3,0-2.4,1.1-2.4,2.4c0,1.3,1.1,2.4,2.4,2.4
			s2.4-1.1,2.4-2.4C87.3,143.6,86.2,142.5,84.8,142.5 M106.9,142.5c-1.3,0-2.4,1.1-2.4,2.4c0,1.3,1.1,2.4,2.4,2.4s2.4-1.1,2.4-2.4
			S108.2,142.5,106.9,142.5"/>
	</g>
</g>
</svg>
