<svg xmlns="http://www.w3.org/2000/svg" viewBox="0 0 619.5 194.17"><defs><style>.cls-1{fill:#512981;}.cls-2{fill:#201a3f;}</style></defs><g id="Layer_2" data-name="Layer 2"><g id="Capa_1" data-name="Capa 1"><path class="cls-1" d="M0,.19,619.5.07v194.1C520.1,10.15,361.53,52.08,217.43,94,135.89,117.72,59,141.45,0,124.23Z"/><path class="cls-1" d="M587.38,0H519.09l0,.09h68.31s0-.06,0-.08M350.73,0H282.44l0,.13h68.31a.61.61,0,0,0,0-.12m55.09,57.88c-28.54,0-57.75,3.88-87.08,9.84q3.56,3.9,7.39,7.58a156.33,156.33,0,0,0,108.78,43.76,156.26,156.26,0,0,0,91.71-29.52c-37.46-23.08-78.37-31.66-120.8-31.66"/><path class="cls-2" d="M587.36.07H519.05a92.77,92.77,0,0,1-84.14,54.28A92.79,92.79,0,0,1,350.78.11H282.47a156.11,156.11,0,0,0,36.27,67.59c29.33-6,58.54-9.84,87.08-9.84,42.43,0,83.34,8.58,120.8,31.66a158.64,158.64,0,0,0,17.07-14.24A156.32,156.32,0,0,0,587.36.07"/></g></g></svg>