<svg xmlns="http://www.w3.org/2000/svg" viewBox="0 0 8.34 8.88"><defs><style>.cls-1{fill:#67b432;}</style></defs><g id="Layer_2" data-name="Layer 2"><g id="Capa_1" data-name="Capa 1"><path class="cls-1" d="M7.39,0h-.1a3,3,0,0,0-2.1,1h0a3,3,0,0,0-.7,2.88,5.66,5.66,0,0,0-.76,2.11,6.4,6.4,0,0,0-.38-.79,2.59,2.59,0,0,0-.61-2.49h0A2.61,2.61,0,0,0,.92,1.84h0a2.7,2.7,0,0,0-.69.07h0A.16.16,0,0,0,.11,2a2.61,2.61,0,0,0,3,3.33,4.48,4.48,0,0,1,.62,2V8.71a.17.17,0,0,0,.05.12.18.18,0,0,0,.12.05A.18.18,0,0,0,4,8.71V6.33A5.25,5.25,0,0,1,4.77,4a3,3,0,0,0,2.75-.9A3,3,0,0,0,8.2.2.2.2,0,0,0,8.08.08,2.33,2.33,0,0,0,7.39,0Zm0,.34a3.17,3.17,0,0,1,.53,0A2.66,2.66,0,0,1,7.28,2.9,2.68,2.68,0,0,1,5,3.72a11.68,11.68,0,0,1,1.72-2h0a.17.17,0,0,0,0-.24.19.19,0,0,0-.16-.05l-.08,0A13.21,13.21,0,0,0,4.77,3.42a2.65,2.65,0,0,1,.69-2.24h0A2.66,2.66,0,0,1,7.32.34h.06ZM.84,2.18H.9A2.27,2.27,0,0,1,3.07,4.75a12,12,0,0,0-1.42-1.6h0a.12.12,0,0,0-.08,0,.14.14,0,0,0-.16.05.18.18,0,0,0,0,.12.17.17,0,0,0,0,.12A11.13,11.13,0,0,1,2.86,5.05a2.24,2.24,0,0,1-1.92-.7A2.29,2.29,0,0,1,.4,2.23a1.35,1.35,0,0,1,.44,0Z"/></g></g></svg>