<svg xmlns="http://www.w3.org/2000/svg" viewBox="0 0 8.03 7.47"><defs><style>.cls-1{fill:#f8ab00;stroke:#f8ab00;stroke-linecap:round;stroke-linejoin:round;stroke-width:0.25px;}</style></defs><g id="Layer_2" data-name="Layer 2"><g id="Capa_1" data-name="Capa 1"><path class="cls-1" d="M4,.13A3.9,3.9,0,0,0,2,7.33a.15.15,0,0,0,.19,0,.14.14,0,0,0,0-.19,3.62,3.62,0,1,1,3.8,0,.14.14,0,1,0,.15.23A3.89,3.89,0,0,0,4,.13Zm0,1.6A2.3,2.3,0,0,0,1.73,4a2.25,2.25,0,0,0,.83,1.75.14.14,0,0,0,.2,0,.14.14,0,0,0,0-.2A2,2,0,0,1,2,4,2,2,0,1,1,5.28,5.57a.14.14,0,0,0,0,.2.13.13,0,0,0,.2,0A2.29,2.29,0,0,0,6.27,4,2.26,2.26,0,0,0,4,1.73ZM4,3.22A.81.81,0,1,0,4.83,4,.82.82,0,0,0,4,3.22Zm0,.26A.54.54,0,1,1,3.47,4,.54.54,0,0,1,4,3.48Z"/></g></g></svg>