<?xml version="1.0" encoding="utf-8"?>
<!-- Generator: Adobe Illustrator 24.3.0, SVG Export Plug-In . SVG Version: 6.00 Build 0)  -->
<svg version="1.1" id="Capa_1" xmlns="http://www.w3.org/2000/svg" xmlns:xlink="http://www.w3.org/1999/xlink" x="0px" y="0px"
	 viewBox="0 0 9.9 11.2" style="enable-background:new 0 0 9.9 11.2;" xml:space="preserve">
<style type="text/css">
	.st0{fill:#3E2259;stroke:#3E2259;stroke-miterlimit:10;}
</style>
<g id="Layer_2">
	<g id="Capa_1_1_">
		<path class="st0" d="M7.1,6.3C8.5,5.1,8.7,3,7.5,1.6S4.3-0.1,2.8,1.1S1.2,4.4,2.4,5.8C2.5,6,2.7,6.2,2.8,6.3
			c-1.5,0.9-2.5,2.5-2.4,4.3c0,0.1,0.1,0.2,0.2,0.2l0,0c0.1,0,0.2-0.1,0.2-0.2l0,0c0-1.7,0.9-3.3,2.4-4C3.8,6.9,4.4,7.1,5,7.1
			s1.2-0.2,1.7-0.5c1.5,0.7,2.5,2.3,2.4,4c0,0.1,0.1,0.2,0.2,0.2c0.1,0,0.2-0.1,0.2-0.2C9.6,8.8,8.7,7.1,7.1,6.3z M5,6.6
			c-1.6,0-2.9-1.3-2.9-2.9S3.4,0.8,5,0.8s2.9,1.3,2.9,2.9l0,0C7.9,5.3,6.6,6.6,5,6.6z"/>
	</g>
</g>
</svg>
