<?xml version="1.0" encoding="UTF-8"?><svg xmlns="http://www.w3.org/2000/svg" xmlns:xlink="http://www.w3.org/1999/xlink" viewBox="0 0 1200 518"><defs><style>.cls-1{fill:none;stroke:#1d1d1b;stroke-linecap:round;stroke-linejoin:round;}.cls-2{fill:url(#Degradado_sin_nombre_7);}.cls-2,.cls-3,.cls-4,.cls-5,.cls-6,.cls-7,.cls-8,.cls-9{mix-blend-mode:multiply;}.cls-10{fill:#009e76;}.cls-11{fill:#1d1d1b;}.cls-12{fill:#5d5c60;}.cls-3{fill:url(#Degradado_sin_nombre_13-2);}.cls-4{fill:url(#Degradado_sin_nombre_24-2);}.cls-5{fill:url(#linear-gradient-2);}.cls-6{fill:url(#Degradado_sin_nombre_25);}.cls-7{fill:url(#Degradado_sin_nombre_24);}.cls-8{fill:url(#Degradado_sin_nombre_13);}.cls-9{fill:url(#linear-gradient);}.cls-13{fill:url(#Degradado_sin_nombre_6);}.cls-14{isolation:isolate;}</style><linearGradient id="Degradado_sin_nombre_6" x1="446.36" y1="251.69" x2="27.65" y2="251.69" gradientTransform="matrix(1, 0, 0, 1, 0, 0)" gradientUnits="userSpaceOnUse"><stop offset="0" stop-color="#64af59"/><stop offset="1" stop-color="#009e76"/></linearGradient><linearGradient id="Degradado_sin_nombre_7" x1="11.47" y1="251.69" x2="268.35" y2="251.69" gradientTransform="matrix(1, 0, 0, 1, 0, 0)" gradientUnits="userSpaceOnUse"><stop offset="0" stop-color="#e93d7b" stop-opacity="0"/><stop offset="1" stop-color="#e43440"/></linearGradient><linearGradient id="Degradado_sin_nombre_13" x1="351.07" y1="251.71" x2="94.89" y2="251.71" gradientTransform="matrix(1, 0, 0, 1, 0, 0)" gradientUnits="userSpaceOnUse"><stop offset="0" stop-color="#e93d7b" stop-opacity="0"/><stop offset="1" stop-color="#e43440"/></linearGradient><linearGradient id="linear-gradient" x1="279.01" y1="252.86" x2="279.08" y2="252.86" gradientTransform="matrix(1, 0, 0, 1, 0, 0)" gradientUnits="userSpaceOnUse"><stop offset="0" stop-color="#e93d7b" stop-opacity="0"/><stop offset="1" stop-color="#8e0350"/></linearGradient><linearGradient id="linear-gradient-2" x1="279.02" y1="250.66" x2="279.08" y2="250.66" xlink:href="#linear-gradient"/><linearGradient id="Degradado_sin_nombre_13-2" x1="385.63" y1="252.47" x2="243.54" y2="252.47" xlink:href="#Degradado_sin_nombre_13"/><linearGradient id="Degradado_sin_nombre_24" x1="74.15" y1="248.89" x2="163.8" y2="155.21" gradientTransform="matrix(1, 0, 0, 1, 0, 0)" gradientUnits="userSpaceOnUse"><stop offset="0" stop-color="#e93d7b" stop-opacity="0"/><stop offset="1" stop-color="#009e76"/></linearGradient><linearGradient id="Degradado_sin_nombre_24-2" x1="74.75" y1="191.15" x2="164.4" y2="97.47" gradientTransform="translate(0 445.68) scale(1 -1)" xlink:href="#Degradado_sin_nombre_24"/><linearGradient id="Degradado_sin_nombre_25" x1="133.53" y1="251.67" x2="208.66" y2="251.67" gradientTransform="matrix(1, 0, 0, 1, 0, 0)" gradientUnits="userSpaceOnUse"><stop offset="0" stop-color="#e93d7b" stop-opacity="0"/><stop offset="1" stop-color="#64af59"/></linearGradient></defs><g class="cls-14"><g id="Capa_1"><g><g><g><g><path class="cls-13" d="M208.66,73.32c-98.52,0-178.38,79.86-178.38,178.38s79.86,178.38,178.38,178.38,178.38-79.86,178.38-178.38S307.18,73.32,208.66,73.32Zm0,248.79c-38.89,0-70.41-31.52-70.41-70.41s31.52-70.41,70.41-70.41,70.41,31.52,70.41,70.41-31.52,70.41-70.41,70.41Z"/><path class="cls-2" d="M208.66,322.11c-38.89,0-70.41-31.52-70.41-70.41s31.52-70.41,70.41-70.41,68.38,29.54,70.31,66.69c0-.04,0-.08,0-.12-2.29-74.39-70.37-134.07-154.08-134.07-11.39,0-22.5,1.1-33.2,3.22-30.04,26.13-51.26,62.15-58.58,102.99-1.85,10.3-2.82,20.87-2.82,31.7s.97,21.41,2.79,31.67c7.32,40.84,28.54,76.86,58.58,102.99,10.7,2.13,21.81,3.22,33.23,3.22,83.71,0,151.79-59.68,154.08-134.04,0-.05,0-.1,0-.16-1.93,37.17-32.67,66.71-70.31,66.71Zm70.42-70.4c0-.7-.04-1.4-.06-2.09,.02,.69,.05,1.38,.05,2.08,0,.78-.03,1.55-.06,2.33,.03-.77,.07-1.54,.07-2.31Z"/><path class="cls-10" d="M138.25,251.69c0-38.89,31.52-70.41,70.41-70.41,0,0-77.61-6.5-175.56,38.74-1.84,10.29-2.81,20.86-2.81,31.68s.97,21.39,2.78,31.64c97.96,45.25,175.59,38.76,175.59,38.76-38.89,0-70.41-31.52-70.41-70.41Z"/><path class="cls-8" d="M347.83,251.71c0,72.67-40.21,136.69-101.27,174.31-12.2,2.69-24.88,4.07-37.9,4.07-44.75,0-85.68-16.49-117.01-43.72,10.7,2.13,21.81,3.22,33.23,3.22,85.15,0,154.19-61.74,154.19-137.88S210.04,113.79,124.89,113.79c-11.39,0-22.5,1.1-33.2,3.22,31.33-27.23,72.23-43.69,116.98-43.69,13.02,0,25.69,1.38,37.9,4.07,61.06,37.62,101.27,101.64,101.27,174.31Z"/><path class="cls-10" d="M69.35,363.08c6.73,8.41,14.18,16.22,22.31,23.28,10.7,2.13,21.81,3.22,33.23,3.22,83.71,0,151.79-59.68,154.08-134.04,0-.05,0-.1,0-.16-.91,17.58-8.33,33.41-19.82,45.26-24.21,36.83-76.9,78.41-189.8,62.42Z"/><path class="cls-10" d="M259.09,202.67c11.52,11.85,18.96,27.7,19.88,45.31,0-.04,0-.08,0-.12-2.29-74.39-70.37-134.07-154.08-134.07-11.39,0-22.5,1.1-33.2,3.22-8.13,7.07-15.59,14.89-22.33,23.31,112.81-15.97,165.5,25.52,189.74,62.33Z"/><path class="cls-9" d="M279.01,254.02c.03-.77,.07-1.54,.07-2.31v.06c-.01,.76-.04,1.5-.07,2.25Z"/><path class="cls-5" d="M279.07,251.65v.05c0-.7-.03-1.4-.05-2.09,.02,.68,.05,1.36,.05,2.04Z"/><path class="cls-3" d="M241.75,77.75s63.99,7.69,113.66,72.51c54.99,71.76,36.91,240.96-113.66,276.95,0,0,73.81-25.2,103.28-145.33,0,0,32.04-121.16-103.28-204.12Z"/><path class="cls-10" d="M93.14,387.6c8.48,1.3,17.19,1.99,26.1,1.99,.98,0,1.94-.05,2.91-.07-10.46-.16-20.65-1.2-30.49-3.16,.49,.42,.99,.82,1.48,1.23ZM246.56,77.4c-12.2-2.69-24.88-4.07-37.9-4.07-1.02,0-2.02,.05-3.03,.07,12.09,.17,23.9,1.49,35.27,4,61.06,37.62,101.27,101.64,101.27,174.31s-40.21,136.69-101.27,174.31c-11.38,2.51-23.18,3.83-35.27,4,1.01,.02,2.01,.07,3.03,.07,13.02,0,25.69-1.38,37.9-4.07,61.06-37.62,101.27-101.64,101.27-174.31s-40.21-136.69-101.27-174.31ZM93.17,115.78c-.49,.42-1,.81-1.48,1.23,9.84-1.96,20.04-3,30.47-3.16-.97-.02-1.94-.07-2.92-.07-8.88,0-17.59,.69-26.07,1.99Z"/><path class="cls-10" d="M208.66,73.32c-.81,0-1.61,.05-2.42,.06,97.39,1.3,175.95,80.61,175.95,178.32s-78.56,177.01-175.95,178.32c.81,.01,1.61,.06,2.42,.06,98.52,0,178.38-79.86,178.38-178.38S307.18,73.32,208.66,73.32Z"/></g><path class="cls-7" d="M176.53,188.75c9.49-4.77,20.21-7.47,31.56-7.47,0,0-77.61-6.5-175.56,38.74,0,0,71.03-28.71,144-31.27Z"/><path class="cls-4" d="M177.1,314.63c9.49,4.77,20.21,7.47,31.56,7.47,0,0-77.61,6.5-175.56-38.74,0,0,71.03,28.71,144,31.27Z"/></g><path class="cls-6" d="M138.38,252.47c0-38.07,29.1-70.7,69.71-71.19-.81-.03-5.17-.32-5.98-.27-38.78,2.54-68.57,32.57-68.57,71.46s31.29,69.86,70.18,69.86c.81,0,4.15-.2,4.95-.23-38.96,0-70.28-31.56-70.28-69.63Z"/></g><g><g><path class="cls-12" d="M427.86,234.77c-.79-1-1.47-2.16-2.05-3.47-1.1-2.68-1.42-4.42-1.63-6.37h-3.79v9.94c0,1.89-.95,2.84-2.84,2.84h-4c-1.89,0-2.84-.95-2.84-2.84v-31.15c0-1.89,.95-2.84,2.84-2.84h14.42c3.95,0,7.05,1.21,9.31,3.58,2.26,2.37,3.37,5.37,3.37,8.95,0,5.47-2.89,9.52-7.89,10.94,.47,3.74,2.42,6.37,4.95,6.37,.79,0,1.58-.1,2.32-.37,1.68-.47,2.16-.21,3,1.47l.63,1.26c.79,1.74,.47,2.95-1,3.74-2.05,1-4.26,1.47-6.74,1.47-3.53,0-6.42-1.63-8.05-3.53Zm-7.47-16.63h6.47c2.37,0,4.05-2,4.05-4.47s-1.68-4.53-4.05-4.53h-6.47v9Z"/><path class="cls-12" d="M463,209.14v6.58h10.95c1.95,0,2.89,.95,2.89,2.84v1.74c0,1.89-.95,2.84-2.89,2.84h-10.95v6.31h13.05c1.89,0,2.84,.95,2.84,2.84v2.58c0,1.89-.95,2.84-2.84,2.84h-19.89c-1.89,0-2.84-.95-2.84-2.84v-31.15c0-1.89,.95-2.84,2.84-2.84h19.89c1.89,0,2.84,.95,2.84,2.84v2.58c0,1.89-.95,2.84-2.84,2.84h-13.05Z"/><path class="cls-12" d="M493.3,237.71c-1.89,0-2.84-.95-2.84-2.84v-31.15c0-1.89,.95-2.84,2.84-2.84h13.15c5.42,0,9.89,1.79,13.42,5.37,3.53,3.53,5.31,7.89,5.31,13.05s-1.79,9.52-5.31,13.1c-3.53,3.53-8,5.31-13.42,5.31h-13.15Zm6.84-8.26h5.1c6.31,0,10.26-4.05,10.26-10.16,0-3.05-.95-5.52-2.79-7.37-1.84-1.89-4.32-2.84-7.47-2.79h-5.1v20.31Z"/><path class="cls-12" d="M556.12,237.71c-1.89,0-2.84-.95-2.84-2.84v-31.15c0-1.89,.95-2.84,2.84-2.84h13.15c5.42,0,9.89,1.79,13.42,5.37,3.53,3.53,5.31,7.89,5.31,13.05s-1.79,9.52-5.31,13.1c-3.53,3.53-8,5.31-13.42,5.31h-13.15Zm6.84-8.26h5.1c6.31,0,10.26-4.05,10.26-10.16,0-3.05-.95-5.52-2.79-7.37-1.84-1.89-4.32-2.84-7.47-2.79h-5.1v20.31Z"/><path class="cls-12" d="M608.31,209.14v6.58h10.95c1.95,0,2.89,.95,2.89,2.84v1.74c0,1.89-.95,2.84-2.89,2.84h-10.95v6.31h13.05c1.89,0,2.84,.95,2.84,2.84v2.58c0,1.89-.95,2.84-2.84,2.84h-19.89c-1.89,0-2.84-.95-2.84-2.84v-31.15c0-1.89,.95-2.84,2.84-2.84h19.89c1.89,0,2.84,.95,2.84,2.84v2.58c0,1.89-.95,2.84-2.84,2.84h-13.05Z"/><path class="cls-12" d="M656.66,232.77c-3.63-3.68-5.47-8.16-5.47-13.47s1.84-9.79,5.47-13.47c3.63-3.68,8.37-5.52,14.21-5.52s10.63,1.84,14.26,5.52c3.63,3.68,5.47,8.16,5.47,13.47s-1.84,9.79-5.47,13.47c-3.63,3.68-8.42,5.52-14.26,5.52s-10.58-1.84-14.21-5.52Zm21.42-5.89c1.84-2.05,2.79-4.58,2.79-7.58s-.95-5.47-2.79-7.52c-1.84-2.05-4.21-3.1-7.21-3.1s-5.37,1.05-7.21,3.1c-1.84,2.05-2.79,4.53-2.79,7.52s.95,5.52,2.79,7.58c1.84,2.05,4.26,3.05,7.21,3.05s5.37-1,7.21-3.05Z"/><path class="cls-12" d="M729.47,221.61c1.26,1.74,1.89,3.52,1.89,5.42,0,3.21-1.21,5.84-3.68,7.79-2.42,1.95-5.68,2.89-9.73,2.89h-14c-1.89,0-2.84-.95-2.84-2.84v-31.15c0-1.89,.95-2.84,2.84-2.84h12.47c3.95,0,7.1,.95,9.58,2.79,2.47,1.84,3.74,4.37,3.74,7.58,0,3-1.63,5.79-5.42,7.21,2.21,.37,3.95,1.42,5.16,3.16Zm-18.68-13.15v7.74h3.84c3.84,0,5.79-1.63,5.79-3.89s-1.95-3.84-4.89-3.84h-4.74Zm6.68,21.47c2.89,0,4.47-1.63,4.47-3.74s-2.05-4.05-5.84-4.05h-5.31v7.79h6.68Z"/><path class="cls-12" d="M740.1,230.14c-.63-1.74,.21-3.05,2.05-3.47l2.63-.63c1.37-.32,2.53,.32,3.47,1.84,1.26,1.95,3.26,2.89,6.05,2.89,3.11,0,5.1-1.26,5.1-3.37,0-1.58-1.21-2.79-3.63-3.58l-4.47-1.63c-1.63-.47-2.84-.95-4.95-2.21-2.79-1.74-5.26-4.31-5.37-8.37,0-3.42,1.26-6.16,3.84-8.21,2.58-2.05,5.79-3.1,9.68-3.1,5.63,0,9.63,2.21,11.94,6.58,.89,1.74,.16,3.05-1.68,3.63l-2.47,.68c-1.32,.37-2.58-.1-3.68-1.53-.84-1.21-2.16-1.84-3.95-1.84-2.32,0-4.21,1.16-4.21,3.05,0,1.42,1.16,2.53,3.47,3.37l4.42,1.58c7.42,2.53,10.31,6.1,10.47,11.21,0,3.63-1.37,6.42-4.1,8.37-2.74,1.95-6.21,2.89-10.42,2.89-7,0-12.15-3.05-14.21-8.16Z"/><path class="cls-12" d="M789.08,209.14v6.58h10.95c1.95,0,2.89,.95,2.89,2.84v1.74c0,1.89-.95,2.84-2.89,2.84h-10.95v6.31h13.05c1.89,0,2.84,.95,2.84,2.84v2.58c0,1.89-.95,2.84-2.84,2.84h-19.89c-1.89,0-2.84-.95-2.84-2.84v-31.15c0-1.89,.95-2.84,2.84-2.84h19.89c1.89,0,2.84,.95,2.84,2.84v2.58c0,1.89-.95,2.84-2.84,2.84h-13.05Z"/><path class="cls-12" d="M833.64,234.77c-.79-1-1.47-2.16-2.05-3.47-1.1-2.68-1.42-4.42-1.63-6.37h-3.79v9.94c0,1.89-.95,2.84-2.84,2.84h-4c-1.89,0-2.84-.95-2.84-2.84v-31.15c0-1.89,.95-2.84,2.84-2.84h14.42c3.95,0,7.05,1.21,9.31,3.58,2.26,2.37,3.37,5.37,3.37,8.95,0,5.47-2.89,9.52-7.89,10.94,.47,3.74,2.42,6.37,4.95,6.37,.79,0,1.58-.1,2.32-.37,1.68-.47,2.16-.21,3,1.47l.63,1.26c.79,1.74,.47,2.95-1,3.74-2.05,1-4.26,1.47-6.74,1.47-3.53,0-6.42-1.63-8.05-3.53Zm-7.47-16.63h6.47c2.37,0,4.05-2,4.05-4.47s-1.68-4.53-4.05-4.53h-6.47v9Z"/><path class="cls-12" d="M869.26,237.71c-1.58,0-2.63-.74-3.21-2.26l-11.1-31.31c-.68-1.95,.21-3.26,2.26-3.26h4.37c1.68,0,2.74,.79,3.21,2.42l6.42,21.52,6.42-21.52c.47-1.63,1.53-2.42,3.21-2.42h4.37c2.05,0,2.95,1.32,2.26,3.26l-11.15,31.31c-.58,1.53-1.63,2.26-3.21,2.26h-3.84Z"/><path class="cls-12" d="M893.93,237.71c-2.1,0-3-1.32-2.21-3.26l12.05-31.36c.58-1.47,1.68-2.21,3.31-2.21h4.1c1.63,0,2.68,.74,3.26,2.21l12.31,31.36c.79,1.95-.1,3.26-2.21,3.26h-4.26c-1.58,0-2.68-.74-3.26-2.21l-1.63-4.31h-12.63l-1.58,4.26c-.53,1.53-1.58,2.26-3.21,2.26h-4.05Zm10.52-14.1h9.16l-4.47-12.63-4.68,12.63Z"/><path class="cls-12" d="M957.49,200.88c1.89,0,2.84,.95,2.84,2.84v2.58c0,1.89-.95,2.84-2.84,2.84h-7.73v25.73c0,1.89-.95,2.84-2.84,2.84h-3.79c-1.89,0-2.84-.95-2.84-2.84v-25.73h-7.52c-1.89,0-2.84-.95-2.84-2.84v-2.58c0-1.89,.95-2.84,2.84-2.84h24.73Z"/><path class="cls-12" d="M972.69,232.77c-3.63-3.68-5.47-8.16-5.47-13.47s1.84-9.79,5.47-13.47c3.63-3.68,8.37-5.52,14.21-5.52s10.63,1.84,14.26,5.52c3.63,3.68,5.47,8.16,5.47,13.47s-1.84,9.79-5.47,13.47c-3.63,3.68-8.42,5.52-14.26,5.52s-10.58-1.84-14.21-5.52Zm21.42-5.89c1.84-2.05,2.79-4.58,2.79-7.58s-.95-5.47-2.79-7.52c-1.84-2.05-4.21-3.1-7.21-3.1s-5.37,1.05-7.21,3.1c-1.84,2.05-2.79,4.53-2.79,7.52s.95,5.52,2.79,7.58c1.84,2.05,4.26,3.05,7.21,3.05s5.37-1,7.21-3.05Z"/><path class="cls-12" d="M1034.25,234.77c-.79-1-1.47-2.16-2.05-3.47-1.1-2.68-1.42-4.42-1.63-6.37h-3.79v9.94c0,1.89-.95,2.84-2.84,2.84h-4c-1.89,0-2.84-.95-2.84-2.84v-31.15c0-1.89,.95-2.84,2.84-2.84h14.42c3.95,0,7.05,1.21,9.31,3.58,2.26,2.37,3.37,5.37,3.37,8.95,0,5.47-2.89,9.52-7.89,10.94,.47,3.74,2.42,6.37,4.95,6.37,.79,0,1.58-.1,2.32-.37,1.68-.47,2.16-.21,3,1.47l.63,1.26c.79,1.74,.47,2.95-1,3.74-2.05,1-4.26,1.47-6.74,1.47-3.53,0-6.42-1.63-8.05-3.53Zm-7.47-16.63h6.47c2.37,0,4.05-2,4.05-4.47s-1.68-4.53-4.05-4.53h-6.47v9Z"/><path class="cls-12" d="M1062.55,237.71c-1.89,0-2.84-.95-2.84-2.84v-31.15c0-1.89,.95-2.84,2.84-2.84h4c1.89,0,2.84,.95,2.84,2.84v31.15c0,1.89-.95,2.84-2.84,2.84h-4Z"/><path class="cls-12" d="M1085.39,232.77c-3.63-3.68-5.47-8.16-5.47-13.47s1.84-9.79,5.47-13.47c3.63-3.68,8.37-5.52,14.21-5.52s10.63,1.84,14.26,5.52c3.63,3.68,5.47,8.16,5.47,13.47s-1.84,9.79-5.47,13.47c-3.63,3.68-8.42,5.52-14.26,5.52s-10.58-1.84-14.21-5.52Zm21.42-5.89c1.84-2.05,2.79-4.58,2.79-7.58s-.95-5.47-2.79-7.52c-1.84-2.05-4.21-3.1-7.21-3.1s-5.37,1.05-7.21,3.1c-1.84,2.05-2.79,4.53-2.79,7.52s.95,5.52,2.79,7.58c1.84,2.05,4.26,3.05,7.21,3.05s5.37-1,7.21-3.05Z"/><path class="cls-12" d="M1128.05,230.14c-.63-1.74,.21-3.05,2.05-3.47l2.63-.63c1.37-.32,2.53,.32,3.47,1.84,1.26,1.95,3.26,2.89,6.05,2.89,3.11,0,5.1-1.26,5.1-3.37,0-1.58-1.21-2.79-3.63-3.58l-4.47-1.63c-1.63-.47-2.84-.95-4.95-2.21-2.79-1.74-5.26-4.31-5.37-8.37,0-3.42,1.26-6.16,3.84-8.21,2.58-2.05,5.79-3.1,9.68-3.1,5.63,0,9.63,2.21,11.94,6.58,.89,1.74,.16,3.05-1.68,3.63l-2.47,.68c-1.32,.37-2.58-.1-3.68-1.53-.84-1.21-2.16-1.84-3.95-1.84-2.32,0-4.21,1.16-4.21,3.05,0,1.42,1.16,2.53,3.47,3.37l4.42,1.58c7.42,2.53,10.31,6.1,10.47,11.21,0,3.63-1.37,6.42-4.1,8.37-2.74,1.95-6.21,2.89-10.42,2.89-7,0-12.15-3.05-14.21-8.16Z"/></g><g><g><path class="cls-11" d="M634.08,290.9c-2.39-2.64-3.56-5.95-3.56-9.86s1.17-7.21,3.56-9.81c2.39-2.64,5.44-3.96,9.04-3.96s6.3,1.37,7.98,4.12v-11.13c0-1.83,.91-2.74,2.74-2.74h3.66c1.83,0,2.74,.91,2.74,2.74v31.25c0,1.83-.91,2.74-2.74,2.74h-3.66c-1.83,0-2.74-.91-2.74-2.74v-.76c-1.73,2.69-4.37,4.07-7.98,4.07s-6.66-1.32-9.04-3.91Zm11.33-16.51c-3.46,0-5.74,2.85-5.74,6.66s2.29,6.66,5.74,6.66,5.79-2.79,5.84-6.66c-.05-3.86-2.39-6.66-5.84-6.66Z"/><path class="cls-11" d="M673.66,290.9c-2.79-2.59-4.17-5.84-4.17-9.76s1.32-7.11,3.96-9.81c2.69-2.69,6.25-4.07,10.67-4.07,4.12,0,7.47,1.17,10.16,3.56,2.69,2.34,4.07,5.54,4.12,9.65,.05,1.47-.97,2.24-2.79,2.24h-17.53c0,1.27,.66,2.44,2.03,3.51,1.37,1.07,3.2,1.58,5.49,1.58,1.88,0,3.61-.46,5.23-1.32,1.58-.76,2.84-.56,3.81,.66l.71,.91c1.07,1.27,1.02,2.95-.56,3.96-2.74,1.88-6.05,2.79-9.91,2.79-4.72,0-8.43-1.32-11.23-3.91Zm16.36-12.75c-.56-5.74-11.08-5.64-11.79,0h11.79Z"/><path class="cls-11" d="M752.46,278.71c1.22,1.68,1.83,3.4,1.83,5.23,0,3.1-1.17,5.64-3.56,7.52-2.34,1.88-5.49,2.79-9.4,2.79h-13.52c-1.83,0-2.74-.91-2.74-2.74v-30.08c0-1.83,.91-2.74,2.74-2.74h12.04c3.81,0,6.86,.91,9.25,2.69,2.39,1.78,3.61,4.22,3.61,7.32,0,2.9-1.58,5.59-5.23,6.96,2.13,.36,3.81,1.37,4.98,3.05Zm-18.04-12.7v7.47h3.71c3.71,0,5.59-1.58,5.59-3.76s-1.88-3.71-4.72-3.71h-4.57Zm6.45,20.73c2.79,0,4.32-1.58,4.32-3.61s-1.98-3.91-5.64-3.91h-5.13v7.52h6.45Z"/><path class="cls-11" d="M777.1,294.82c-4.32,0-7.88-1.32-10.72-3.96-2.79-2.69-4.22-5.95-4.22-9.81s1.42-7.11,4.22-9.76c2.85-2.69,6.4-4.01,10.72-4.01s7.88,1.32,10.67,4.01c2.84,2.64,4.27,5.89,4.27,9.76s-1.42,7.11-4.27,9.81c-2.79,2.64-6.35,3.96-10.67,3.96Zm0-7.21c1.83,0,3.35-.61,4.57-1.88s1.83-2.79,1.83-4.68-.61-3.4-1.83-4.62c-1.22-1.27-2.74-1.88-4.57-1.88s-3.35,.61-4.57,1.88c-1.17,1.22-1.78,2.74-1.78,4.62s.61,3.4,1.78,4.68c1.22,1.27,2.74,1.88,4.57,1.88Z"/><path class="cls-11" d="M805.85,305.64c-2.08,0-2.9-1.32-2.13-3.2l4.47-10.37-9.55-21.03c-.86-1.88,0-3.2,2.08-3.2h4.12c1.58,0,2.64,.76,3.15,2.24l4.62,12.7,4.83-12.75c.56-1.47,1.58-2.18,3.15-2.18h3.86c2.03,0,2.9,1.32,2.08,3.2l-14.33,32.52c-.56,1.37-1.63,2.08-3.2,2.08h-3.15Z"/><path class="cls-11" d="M836.84,290.9c-2.39-2.64-3.56-5.95-3.56-9.86s1.17-7.21,3.56-9.81c2.39-2.64,5.39-3.96,8.99-3.96s6.35,1.37,8.03,4.12v-.81c0-1.83,.91-2.74,2.74-2.74h3.66c1.83,0,2.74,.91,2.74,2.74v20.93c0,1.83-.91,2.74-2.74,2.74h-3.66c-1.83,0-2.74-.91-2.74-2.74v-.76c-1.73,2.69-4.42,4.07-8.03,4.07s-6.61-1.32-8.99-3.91Zm11.33-3.2c1.78,0,3.15-.61,4.22-1.88s1.58-2.85,1.58-4.78-.51-3.51-1.58-4.78-2.44-1.88-4.22-1.88-3.15,.66-4.22,1.93c-1.02,1.27-1.52,2.85-1.52,4.72s.51,3.51,1.52,4.78c1.07,1.27,2.44,1.88,4.22,1.88Z"/><path class="cls-11" d="M876.52,290.9c-2.9-2.64-4.32-5.89-4.32-9.76s1.42-7.22,4.27-9.86c2.9-2.69,6.55-4.01,11.08-4.01,3.1,0,6,.76,8.59,2.24,1.57,.97,1.73,2.29,.46,3.86l-1.07,1.27c-.86,1.17-2.13,1.37-3.81,.61-1.07-.51-2.29-.76-3.61-.76-3.91,0-6.76,2.74-6.76,6.55s2.85,6.56,6.76,6.56c1.32,0,2.54-.25,3.61-.76,1.68-.76,3-.56,3.86,.61l1.02,1.27c1.17,1.42,.91,3-.76,3.96-2.39,1.42-5.18,2.13-8.28,2.13-4.47,0-8.13-1.32-11.03-3.91Z"/><path class="cls-11" d="M908.58,290.9c-2.39-2.64-3.56-5.95-3.56-9.86s1.17-7.21,3.56-9.81c2.39-2.64,5.39-3.96,8.99-3.96s6.35,1.37,8.03,4.12v-.81c0-1.83,.91-2.74,2.74-2.74h3.66c1.83,0,2.74,.91,2.74,2.74v20.93c0,1.83-.91,2.74-2.74,2.74h-3.66c-1.83,0-2.74-.91-2.74-2.74v-.76c-1.73,2.69-4.42,4.07-8.03,4.07s-6.6-1.32-8.99-3.91Zm11.33-3.2c1.78,0,3.15-.61,4.22-1.88s1.58-2.85,1.58-4.78-.51-3.51-1.58-4.78-2.44-1.88-4.22-1.88-3.15,.66-4.22,1.93c-1.02,1.27-1.52,2.85-1.52,4.72s.51,3.51,1.52,4.78c1.07,1.27,2.44,1.88,4.22,1.88Zm-2.03-22.92c-1.07,0-1.47-.66-1.02-1.63l3-5.94c.36-.66,.91-1.02,1.68-1.02h5.84c1.17,0,1.58,.76,.76,1.73l-5.33,6.1c-.41,.51-.97,.76-1.73,.76h-3.2Z"/></g><line class="cls-1" x1="415.18" y1="278.56" x2="606.08" y2="278.56"/><line class="cls-1" x1="964.66" y1="278.56" x2="1155.57" y2="278.56"/></g></g></g></g></g></svg>