<?xml version="1.0" encoding="UTF-8"?>
<!DOCTYPE svg PUBLIC "-//W3C//DTD SVG 1.1//EN" "http://www.w3.org/Graphics/SVG/1.1/DTD/svg11.dtd">
<!-- Creator: CorelDRAW 2021 (64-Bit) -->
<svg xmlns="http://www.w3.org/2000/svg" xml:space="preserve" width="205px" height="157px" version="1.1" style="shape-rendering:geometricPrecision; text-rendering:geometricPrecision; image-rendering:optimizeQuality; fill-rule:evenodd; clip-rule:evenodd"
viewBox="0 0 166.72 127.96"
 xmlns:xlink="http://www.w3.org/1999/xlink"
 xmlns:xodm="http://www.corel.com/coreldraw/odm/2003">
 <defs>
  <style type="text/css">
   <![CDATA[
    .fil0 {fill:#9353CF}
    .fil1 {fill:#9353CF}
   ]]>
  </style>
 </defs>
 <g id="Capa_x0020_1">
  <metadata id="CorelCorpID_0Corel-Layer"/>
  <g id="_1654009013536">
   <polygon class="fil0" points="166.72,119.03 0,119.03 0,127.96 166.72,127.96 "/>
   <g>
    <path class="fil1" d="M49.78 105.26l0 -13.52c0,-0.55 0.16,-0.72 0.72,-0.72l28.01 0.24 0 14c0,0.56 -0.17,0.73 -0.73,0.73l-27.28 0c-0.56,0 -0.72,-0.17 -0.72,-0.73zm39.83 -6.51c0,-7.95 -0.58,-7.53 1.67,-7.51l7.92 -0.04c2.68,-0.37 15.26,-0.18 19.14,-0.18l0 14.24c0,0.56 -0.16,0.73 -0.72,0.73l-27.04 0c-1.19,0 -0.62,-2.01 -0.79,-3.32 -0.16,-1.19 -0.18,-2.39 -0.18,-3.92zm37.42 -51.19l0 -17.86c0,-1.38 0.46,-1.95 1.27,-2.6 1.89,-1.52 6.22,-1.53 6.22,0.66l0 27.53c0,1.42 -1.17,3.54 -1.72,4.55l-1.73 3.1c-0.22,0.32 -0.47,0.66 -0.7,0.99 -1.05,1.52 -3.39,4 -4.87,5.27l-1.42 1.24c-1.11,1.06 -2.31,1.81 -3.38,2.89 -0.58,0.58 -1.11,0.97 -1.63,1.52 -3.79,3.99 -4.83,7.44 -4.83,13.51 -6.88,0 -12.94,0.25 -19.8,0.25 0,-4.7 -0.1,-8.36 0.83,-12.94 0.5,-2.46 0.96,-3.86 1.87,-5.85 2.47,-5.39 4.63,-5.46 7.97,-7.48 2.98,-1.8 5.31,-3.27 7.93,-5.59l0.5 -0.47c0.19,-0.17 0.3,-0.26 0.51,-0.45l3.75 -3.98c3.46,-3.49 6.86,-3.98 9.72,0.3l-2.15 2.44c-2.06,1.73 -3.13,3.1 -4.68,4.49l-0.52 0.45c-0.04,0.03 -0.09,0.08 -0.13,0.11 -1.46,1.32 -4.11,3.69 -4.84,5.06 0.6,1.14 0.32,0.85 1.45,1.45l10.57 -9.72c2.84,-2.84 4.31,-4.02 1.26,-7.18l-0.37 -0.35c-0.45,-0.39 -1.08,-0.66 -1.08,-1.34zm-88.84 4.35c0,2.21 0.95,2.78 2.71,4.53 0.69,0.68 1.13,0.88 1.82,1.56 0.62,0.61 1.06,1.07 1.68,1.69l3.59 3.42c1.03,0.97 2.36,2.45 3.48,3.04 2.63,-1.39 1.54,-1.71 -1.39,-4.65l-6.16 -5.91c-0.94,-0.94 -2.41,-2.21 -3.08,-3.2 0.24,-1.02 0.79,-1.5 1.52,-2.11 3.34,-2.81 5.64,-0.51 7.64,1.17l1.6 1.53c0.03,0.04 0.08,0.1 0.11,0.13l3.05 3.23c5.38,5.01 11.54,7.38 13.07,8.9 6.05,6.03 5.85,14.84 5.85,23.37 -6.8,0 -12.78,-0.25 -19.56,-0.25 0,-8.35 -3.15,-12.55 -9.52,-17.52 -2.36,-1.85 -4.93,-4.43 -6.69,-6.82 -1.19,-1.62 -4.31,-6.74 -4.31,-9.21l-0.01 -21.5c0,-1.4 0.22,-1.65 0.26,-2.88 0.11,-3.88 -0.35,-4.36 3.13,-4.36 2.41,0 4.35,1.69 4.35,4.11 0,3.83 0.17,13.28 -0.24,17.15 -0.18,1.75 -2.9,2.45 -2.9,4.58zm-7.24 -6.04c0,3.78 -0.37,7.98 0.49,11.58 0.56,2.34 4.14,8.38 6.32,10.58 0.34,0.34 0.5,0.48 0.84,0.85l3.23 3.04c0.04,0.04 0.09,0.08 0.13,0.12 5.69,4.92 9.51,7.16 9.51,16.32 -2.22,0 -4.35,0.4 -4.35,3.38l0 14.25 -8.93 0c-0.5,0 -0.66,0.21 -0.91,0.57 -0.47,0.66 -0.38,2.08 1.87,2.08l90.3 0c2.37,0 1.53,-2.06 1.45,-2.41 -2.25,-0.52 -7.33,-0.24 -9.9,-0.24l0 -14.73c0,-2.28 -2.1,-2.9 -4.11,-2.9 0,-4.36 0.7,-8.29 3.44,-11.05 4.53,-4.55 9.19,-7.17 12.79,-12.8 1.12,-1.75 4.05,-6.49 4.05,-8.98l0 -27.52c0,-5.69 -8.26,-5.6 -11.14,-2.46 -1.64,1.79 -1.66,3.42 -1.65,5.84 0.01,5.07 0,10.14 0,15.21 -1.51,-0.73 -3.66,-0.01 -5.11,0.69 -0.66,0.32 -0.7,0.39 -1.31,0.85 -0.49,0.38 -0.73,0.58 -1.2,0.98l-5.36 5.51c-0.46,0.46 -0.62,0.6 -1.13,1.03 -2.13,1.8 -4.06,2.96 -6.46,4.41 -3.9,2.37 -6.04,2.58 -8.97,8.41 -3.1,6.17 -3.05,13.4 -3.05,20.13 -4.75,0 -4.82,0.86 -4.83,6.27 -0.01,1.9 0.24,2.95 0.25,4.58l-0.01 6.53 -6.04 0 0 -14.73c0,-2.77 -3.26,-2.65 -4.83,-2.65 0,-8.5 0.08,-17.97 -6.1,-24.81 -1.16,-1.28 -2.78,-2.13 -4.31,-2.93 -3.83,-1.98 -7.43,-4.37 -10.41,-7.45l-1.23 -1.42c-0.04,-0.04 -0.08,-0.1 -0.12,-0.13 -1.82,-2.09 -5.3,-5.52 -8.25,-5.52l-2.17 0 0.24 -15.93c0,-7.88 -10.56,-8.8 -12.43,-4.47 -0.59,1.35 -0.6,17.33 -0.6,19.92z"/>
    <path class="fil1" d="M87.2 42.97zm6.76 -6.03l-6.76 6.03zm6.76 -6.03l1.15 -1.26c10.06,2.42 9.23,10.97 9.23,18.4l-18.83 0c0,-8.44 -0.59,-6.23 2.51,-8.35l5.66 -3.76c0.86,-0.64 2.45,-1.14 2.45,-2.38 0,-0.79 -1.72,-1.98 -2.17,-2.65zm-11.11 10.38l0 6.76 -18.83 0c0,-7.35 -1.24,-15.92 9.18,-18.35l1.01 1.17c-1.67,2.44 -3.82,2.48 -0.34,4.67l7.02 4.58c0.6,0.45 1.2,0.97 1.96,1.17zm4.35 -4.35l2.48 -6.2c0.58,-1.39 0.53,-1.28 1.62,-1.28 -0.28,1.04 -1.02,1.11 -0.29,2.2 0.45,0.68 1.22,1.12 1.74,1.9 -0.96,0.23 -0.76,0.26 -1.42,0.76 -0.44,0.34 -0.79,0.58 -1.28,0.89 -0.51,0.32 -0.86,0.48 -1.36,0.81 -0.68,0.46 -0.75,0.73 -1.49,0.92zm-10.38 -7.48c1.6,0 1.2,0.13 2.51,3.28 0.6,1.43 1.17,2.95 1.83,4.2 -0.86,-0.2 -5.05,-2.93 -5.55,-3.62 0.92,-1.37 2.81,-1.78 1.21,-3.86zm7.48 7.48l-0.48 0c-0.2,-2.37 -3.79,-7.43 -3.08,-9.09 0.48,-1.13 0.91,-1.91 0.91,-3.46 1.48,0.12 0.7,0.24 3.13,0.24 1.14,0 1.39,-0.61 1.81,0.11 0.12,0.22 0.21,1.55 0.39,2.05 0.83,2.34 1.26,0.52 0.18,3.11 -0.45,1.11 -0.96,2.28 -1.41,3.42 -0.43,1.09 -1.19,2.51 -1.45,3.62zm0.24 -14.96c-3.13,0 -4.83,-1.24 -6.44,-3.94 -1.48,-2.48 -1.77,-4.05 -1.77,-7.89 1.63,-0.38 3.94,-1.62 4.35,-3.14 2.91,1.39 7.77,1.5 11.11,0.72 0,3.69 1.07,5.02 -1.69,10.39 -0.82,1.6 -3.17,3.86 -5.56,3.86zm-1.45 -25.35c6.57,0 6.98,4.31 10.63,7.48 -1.91,0.44 -4.46,2.52 -10.36,0.94 -0.5,-0.13 -1.21,-0.28 -1.71,-0.46 -2.62,-0.94 -2.32,-0.49 -3.2,1.15l-0.18 0.3c-0.03,0.05 -0.07,0.1 -0.1,0.14l-2.32 1.31c-0.46,-0.96 -0.67,-2.6 -0.84,-4.01 -0.62,-5.18 3.84,-4.48 4.74,-5.13 0.58,-0.43 1.18,-1.72 3.34,-1.72zm-4.1 26.79c0,2.81 -0.36,1.92 -0.48,3.38 -5.71,0 -8.49,0.23 -12.56,3.62 -0.04,0.03 -0.1,0.08 -0.13,0.11l-1.7 1.93c-3.53,4.9 -2.75,9.66 -2.75,16.32 0,0.83 0.17,0.93 0.24,1.68 0.54,0.13 0.55,0.25 1.2,0.25l42.98 0c1.39,0 1,-1.55 0.97,-2.64 -0.24,-7.09 1.28,-12.12 -4.29,-17.47 -0.7,-0.68 -1.71,-1.4 -2.51,-1.83 -2,-1.06 -4.1,-1.85 -6.48,-1.97 -1.23,-0.06 -3.37,0.38 -3.89,-0.46 -0.33,-0.54 -0.63,-2.83 -0.13,-3.54 0.46,-0.65 1.03,-0.66 2.14,-2.22 2.79,-3.94 3.73,-8.97 2.6,-13.81 1.67,-1.12 3.38,-2.04 3.38,-3.87 0,-1.59 -2.48,-0.65 -3.54,-2.01 -0.42,-0.55 -0.63,-1.1 -1.01,-1.65 -0.42,-0.6 -0.78,-1.06 -1.3,-1.6 -2.56,-2.61 -5.44,-3.67 -9.12,-3.67 -2.64,0 -3.04,1.69 -5.04,2.2 -0.47,0.12 -0.6,0.12 -1.16,0.29 -1.45,0.46 -2.46,1.31 -3.18,2.62 -2.28,4.15 0.49,8.3 0.45,12.03 -0.02,2.1 0.23,3.55 0.72,5.08 0.69,2.14 1.64,3.96 3.2,5.49 0.43,0.42 1.39,1.08 1.39,1.74z"/>
    <path class="fil1" d="M52.43 28.01c0.64,-0.15 2.79,-1.04 3.19,-1.4 0.49,-0.45 1.21,-2.4 1.4,-3.19l0.48 0c0.72,3.08 1.43,3.41 3.66,4.31 0.68,0.28 -0.35,0.17 0.93,0.28 -0.58,0.79 0,0.11 -0.52,0.44 -0.01,0 -0.75,0.38 -0.81,0.4 -0.51,0.23 -1.26,0.48 -1.65,0.76 -0.6,0.43 -1.26,1.75 -1.61,3.22l-1.46 -2.4c-0.02,-0.05 -0.05,-0.11 -0.08,-0.16 -0.45,-0.84 -0.85,-0.83 -2.03,-1.34 -0.16,-0.07 -0.71,-0.32 -0.82,-0.39 -0.58,-0.34 -0.22,0.09 -0.68,-0.53zm4.59 9.65c2.15,0 2.25,-3.3 3.59,-5.59 0.23,-0.4 0.04,-0.17 0.3,-0.41 0.95,-0.9 6.25,-1.8 6.01,-3.65 -0.14,-1.06 -2.85,-1.91 -4.4,-2.61 -0.48,-0.22 -1.3,-0.52 -1.62,-0.79l-0.24 -0.25c-0.93,-1.24 -1.72,-5.77 -3.4,-5.77 -1.27,0 -1.62,1.87 -1.97,2.61 -0.3,0.62 -0.44,0.78 -0.79,1.63 -0.93,2.26 -0.81,1.83 -3.99,3.25 -2.14,0.97 -5.21,2.01 -0.43,4.03 0.86,0.37 2.8,1.08 3.33,1.5 1.32,1.04 2.14,6.05 3.61,6.05z"/>
    <path class="fil1" d="M104.34 20.04c2.44,-0.57 4.36,-1.89 4.59,-4.59l0.48 0c0.15,1.85 1.08,3.25 2.6,3.92l1.75 0.67c-0.62,1.69 -2.33,-0.11 -3.84,3.41 -0.67,1.56 -0.37,1.2 -0.99,1.66 -0.07,-0.77 -1.04,-2.95 -1.51,-3.32 -0.83,-0.68 -2.35,-0.75 -3.08,-1.75zm-4.83 0.24c0,1.65 5.07,2.64 6.07,3.59 0.52,0.5 1.66,3.94 2.26,4.98 0.68,1.17 0.22,0.56 1.33,1.09 1.56,-0.83 1.23,-1.06 1.93,-2.66 0.18,-0.39 1.37,-3.07 1.55,-3.28 0.5,-0.61 2.33,-1.19 3.2,-1.63 1.64,-0.82 1.81,-0.51 2.98,-1.85 -0.09,-0.35 -0.11,-0.57 -0.31,-0.9 -0.26,-0.43 -0.18,-0.33 -0.62,-0.58 -0.37,-0.21 -1.18,-0.52 -1.7,-0.73 -4.55,-1.84 -3.36,-1.31 -5.65,-6.42 -0.32,-0.72 -0.3,-1 -1.24,-1.14 -1.63,-0.23 -1.84,1.89 -2.88,4.14 -0.1,0.21 -0.7,1.57 -0.76,1.65 -0.4,0.56 -0.93,0.58 -1.56,0.85 -0.52,0.22 -1.11,0.5 -1.66,0.76 -0.6,0.28 -1.06,0.45 -1.68,0.74 -0.6,0.28 -1.26,0.63 -1.26,1.39z"/>
    <path class="fil1" d="M56.05 98.99c0,-3.83 3.62,-2.39 3.62,-0.97 0,3.74 -3.62,2.28 -3.62,0.97zm-2.65 -1.21l0 1.45c0,2.02 2.49,3.68 4.39,3.8 2.27,0.13 4.54,-1.9 4.54,-3.8l0 -1.69c0,-1.6 -1.87,-3.62 -4.59,-3.62 -2.04,0 -4.34,1.93 -4.34,3.86z"/>
    <path class="fil1" d="M108.44 98.5c0,-2.33 2.88,-2.58 3.66,-0.73 1.09,2.56 -3.66,3.89 -3.66,0.73zm-2.65 -0.24c0,7.23 11.01,5.59 8.83,-1.34 -0.96,-3.04 -5.19,-4.1 -7.53,-1.71 -0.69,0.71 -1.3,1.76 -1.3,3.05z"/>
   </g>
  </g>
 </g>
</svg>
