<?xml version="1.0" encoding="UTF-8"?>
<!DOCTYPE svg PUBLIC "-//W3C//DTD SVG 1.1//EN" "http://www.w3.org/Graphics/SVG/1.1/DTD/svg11.dtd">
<!-- Creator: CorelDRAW 2021 (64-Bit) -->
<svg xmlns="http://www.w3.org/2000/svg" xml:space="preserve" width="205px" height="151px" version="1.1" style="shape-rendering:geometricPrecision; text-rendering:geometricPrecision; image-rendering:optimizeQuality; fill-rule:evenodd; clip-rule:evenodd"
viewBox="0 0 32.88 24.34"
 xmlns:xlink="http://www.w3.org/1999/xlink"
 xmlns:xodm="http://www.corel.com/coreldraw/odm/2003">
 <defs>
  <style type="text/css">
   <![CDATA[
    .fil0 {fill:#8145BA}
    .fil1 {fill:#8145BA}
   ]]>
  </style>
 </defs>
 <g id="Capa_x0020_1">
  <metadata id="CorelCorpID_0Corel-Layer"/>
  <g id="_1654221582112">
   <polygon class="fil0" points="32.88,22.57 0,22.57 0,24.34 32.88,24.34 "/>
   <g>
    <path class="fil1" d="M23.38 19.05c0,-0.18 0.03,-0.09 0.07,-0.11 0.1,-0.05 2.53,-0.02 2.85,-0.02l0 0.81 -2.92 0 0 -0.68zm-16.78 -0.13l2.79 0c0.1,0 0.13,0.03 0.13,0.13l0 0.68 -2.92 0 0 -0.81zm17.64 -5.04l1.24 0 0 4.18 -1.24 0 0 -4.18zm-16.83 0l1.25 0 0 4.18 -1.25 0 0 -4.18zm-0.83 -4.19l1.05 0c0.16,0.18 2.56,3.12 2.65,3.35 -0.51,0.01 -3.45,0.06 -3.7,-0.03l0 -3.32zm19.74 0.01l0 3.31c-0.15,0.05 -0.56,0.11 -0.74,-0.08l-1.1 -1.39c-0.2,-0.27 -1.4,-1.7 -1.45,-1.86l3.29 0.02zm-6.82 0.01l2.46 0c0.06,0.25 2.32,2.83 2.58,3.31l-2.45 0c-0.07,-0.23 -2.32,-2.79 -2.59,-3.31zm-3.57 0l2.46 0c0.05,0.2 1.38,1.78 1.6,2.05l0.98 1.26 -2.46 0c-0.03,-0.13 -0.17,-0.25 -0.3,-0.42l-1.96 -2.43c-0.06,-0.09 -0.1,-0.14 -0.16,-0.23l-0.16 -0.23zm-3.57 0l2.45 0c0.06,0.2 1.39,1.78 1.61,2.05 0.12,0.15 0.21,0.27 0.32,0.41 0.12,0.14 0.21,0.26 0.33,0.41 0.12,0.15 0.24,0.27 0.33,0.44l-2.46 0c-0.04,-0.15 -0.04,-0.09 -0.13,-0.21 -0.06,-0.07 -0.11,-0.13 -0.17,-0.21 -0.58,-0.72 -1.73,-2.1 -2.2,-2.75 -0.1,-0.13 -0.02,-0.03 -0.08,-0.14zm-3.57 0l2.45 0c0.05,0.17 1.15,1.48 1.28,1.65 0.16,0.2 1.2,1.47 1.31,1.66l-2.46 0c-0.04,-0.16 -0.51,-0.68 -0.63,-0.83l-1.95 -2.48zm0.73 -2.11l13.86 0 0 1.25 -13.86 0 0 -1.25zm15.83 1.25l-1.11 0 0 -1.25 1.24 0 0 1.12c0,0.1 -0.03,0.13 -0.13,0.13zm-17.94 -0.13l0 -1.12 1.25 0 0 1.25 -1.12 0c-0.1,0 -0.13,-0.03 -0.13,-0.13zm-0.84 -5.34l1.06 0.01c0.18,0.16 0.53,0.64 0.68,0.83 0.23,0.29 0.43,0.54 0.66,0.84l1.33 1.68 -3.72 0 -0.01 -3.36zm19.09 3.35c-0.49,-0.69 -1.4,-1.77 -2,-2.51 -0.16,-0.21 -0.53,-0.63 -0.64,-0.84l3.3 0 0 3.36 -0.66 -0.01zm-6.2 -3.34c0.7,0 1.41,0 2.11,0 0.24,-0.01 0.3,-0.04 0.42,0.09 0.06,0.06 0.05,0.07 0.11,0.15 0.05,0.07 0.07,0.08 0.11,0.14l2.37 2.97c-0.7,0 -1.41,0 -2.11,0 -0.43,0.01 -0.33,0.02 -0.64,-0.39 -0.16,-0.2 -0.32,-0.39 -0.48,-0.59l-1.42 -1.77c-0.15,-0.2 -0.33,-0.4 -0.47,-0.6zm-3.57 0c0.7,0 1.41,0 2.11,0 0.47,-0.01 0.31,-0.01 0.64,0.39 0.16,0.2 0.32,0.39 0.48,0.6l0.94 1.16c0.16,0.21 0.31,0.4 0.47,0.61 0.08,0.1 0.15,0.18 0.23,0.28 0.08,0.1 0.19,0.22 0.25,0.31 -0.7,0 -1.41,0 -2.11,0 -0.5,0.01 -0.4,-0.09 -0.87,-0.67l-2.14 -2.68zm-3.57 0c0.7,0 1.41,0 2.11,0 0.47,-0.01 0.31,-0.01 0.64,0.39l1.42 1.76c0.16,0.21 0.31,0.4 0.47,0.61l0.48 0.59c-0.7,0 -1.41,0 -2.11,0 -0.38,0.01 -0.33,0.03 -0.53,-0.24l-0.34 -0.43c-0.09,-0.12 -0.17,-0.2 -0.25,-0.31l-1.89 -2.37zm-3.57 0c0.7,0 1.41,0 2.11,0 0.47,-0.01 0.31,-0.01 0.64,0.39l2.37 2.96c-0.7,0 -1.41,0 -2.11,0 -0.5,0.01 -0.4,-0.09 -0.87,-0.67l-2.14 -2.68zm7.1 -2.05c0.13,-0.63 1.07,-0.63 1.2,0 0.01,0.01 0.02,0.03 0.02,0.04l0.03 0.29c0,0.24 0.03,0.71 -0.03,0.88l-1.24 -0.01c-0.04,-0.11 -0.08,-1.01 0.02,-1.2zm8.39 1.06c0,-0.17 0.08,-0.39 0.16,-0.48 0.27,-0.32 1.08,-0.34 1.08,0.61l-1.24 0 0 -0.13zm-16.83 0c0,-0.8 1.25,-1.07 1.25,0.13l-1.25 0 0 -0.13zm7.58 -1.04l0 1.17 -5.47 0 0 -0.26c0,-1.21 -1.59,-1.96 -2.55,-0.96 -0.34,0.35 -0.42,0.68 -0.42,1.22 -0.29,0 -0.81,-0.08 -0.81,0.38l0 4.31c0,0.45 0.55,0.38 0.81,0.38l0 1.25c-0.3,0 -0.81,-0.09 -0.81,0.39l0 4.26c0,0.46 0.52,0.38 0.81,0.38l0 4.18c-1,0 -0.81,0.04 -0.81,2.15 0,0.32 0.27,0.43 0.6,0.43l3.48 0c0.32,0 0.56,-0.17 0.56,-0.47 0,-0.5 0.09,-1.74 -0.11,-1.95 -0.19,-0.21 -0.47,-0.16 -0.75,-0.16l0 -4.18 13.86 0 0 4.18c-1.06,0 -0.86,0.13 -0.86,2.11 0,0.3 0.24,0.47 0.55,0.47l3.49 0c0.33,0 0.6,-0.11 0.6,-0.43l0 -1.72c0,-0.5 -0.53,-0.43 -0.82,-0.43l0 -4.18c0.3,0 0.82,0.08 0.82,-0.38l0 -4.26c0,-0.48 -0.51,-0.39 -0.82,-0.39l0 -1.25c0.27,0 0.82,0.07 0.82,-0.38l0 -4.31c0,-0.46 -0.52,-0.38 -0.82,-0.38 0,-0.54 -0.08,-0.87 -0.41,-1.22 -1.02,-1.06 -2.55,-0.11 -2.55,0.87l0 0.35 -5.47 0 0 -1.17c0,-0.75 -0.73,-1.36 -1.46,-1.36 -0.74,0 -1.46,0.61 -1.46,1.36z"/>
    <path class="fil1" d="M17.05 1.34l0.01 1.17 -1.22 0 0.01 -1.17c-0.1,0.19 -0.06,1.09 -0.02,1.2l1.24 0.01c0.06,-0.17 0.03,-0.64 0.03,-0.88l-0.03 -0.29c0,-0.01 -0.01,-0.03 -0.02,-0.04z"/>
   </g>
  </g>
 </g>
</svg>
