<?xml version="1.0" encoding="UTF-8"?>
<!DOCTYPE svg PUBLIC "-//W3C//DTD SVG 1.1//EN" "http://www.w3.org/Graphics/SVG/1.1/DTD/svg11.dtd">
<!-- Creator: CorelDRAW 2021 (64-Bit) -->
<svg xmlns="http://www.w3.org/2000/svg" xml:space="preserve" width="205px" height="156px" version="1.1" style="shape-rendering:geometricPrecision; text-rendering:geometricPrecision; image-rendering:optimizeQuality; fill-rule:evenodd; clip-rule:evenodd"
viewBox="0 0 39.2 29.82"
 xmlns:xlink="http://www.w3.org/1999/xlink"
 xmlns:xodm="http://www.corel.com/coreldraw/odm/2003">
 <defs>
  <style type="text/css">
   <![CDATA[
    .fil0 {fill:#AB6CE6}
    .fil1 {fill:#AB6CE6}
   ]]>
  </style>
 </defs>
 <g id="Capa_x0020_1">
  <metadata id="CorelCorpID_0Corel-Layer"/>
  <g id="_1654905330656">
   <polygon class="fil0" points="39.2,27.72 0,27.72 0,29.82 39.2,29.82 "/>
   <g>
    <path class="fil1" d="M20.46 13c0,-1.9 0.49,-1.65 -3.18,-1.61 -0.75,0 -0.59,-0.32 -0.59,-1.03 0.18,-0.05 0.73,-0.41 0.92,-0.53l1.86 -1.11c0.33,-0.2 0.64,-0.38 0.94,-0.57 0.32,0.17 0.63,0.4 0.95,0.61 0.33,0.22 0.62,0.42 0.94,0.63 2.21,1.47 1.62,1.4 3.2,0.61l1.09 -0.52c0.01,-0.01 0.03,-0.02 0.04,-0.02 0.1,-0.07 0.04,-0.03 0.09,-0.07 0.36,0.24 0.7,0.46 1.07,0.71 0.22,0.15 0.89,0.63 1.09,0.69 0,0.79 -0.5,0.59 -2.05,0.59l-3.94 0c-0.53,0 -0.48,-0.03 -0.96,0.39l-1.47 1.23zm1.35 -7.61c0,1.14 1.33,1.98 2.41,1.17 0.32,-0.25 0.78,-0.76 1.08,-1.07 0.28,-0.27 0.83,-0.88 1.1,-1.07 0.15,0.04 0.33,0.18 0.5,0.26 0.59,0.27 1.28,0.44 1.98,0.44l0 4.59c-0.49,-0.11 -1.65,-1.24 -2.16,-1.24 -0.21,0 -1,0.44 -1.22,0.56 -0.18,0.09 -1.1,0.57 -1.21,0.57 -0.25,0 -3.53,-2.43 -3.83,-2.43 -0.23,0 -1.62,0.9 -1.9,1.07l-1.87 1.09 -0.01 -5.72c0,-0.34 0.01,-0.53 0.29,-0.58 0.32,-0.07 5.73,-0.01 6.57,-0.01 -0.47,0.7 -1.73,1.29 -1.73,2.37zm9.55 -2.1c-0.1,0.03 -0.5,0.36 -0.97,0.6 -1.11,0.55 -2.47,0.4 -3.53,-0.25 -0.77,-0.47 -0.68,-0.27 -1.99,1.04 -0.26,0.26 -1.17,1.31 -1.49,1.31 -0.22,0 -0.33,0.02 -0.48,-0.12 -0.21,-0.2 -0.17,-0.38 -0.17,-0.64 0,-0.35 2.71,-2.69 3.07,-3.23 -0.13,-0.2 -0.41,-0.44 -0.59,-0.6 -0.22,0.15 -0.38,0.36 -0.58,0.56 -0.23,0.23 -0.42,0.14 -1.04,0.14 -0.79,0 -1.58,0 -2.37,0 0.34,-0.51 0.66,-1.18 1.61,-1.19l8.58 0.01c-0.13,0.28 -0.05,1.89 -0.05,2.37zm-11.17 -1.19c-0.97,0 -1.94,0 -2.91,0 -0.91,0 -1.51,0.52 -1.51,1.41l0 7.39c0,0.78 0.6,1.35 1.08,1.35l2.75 0 0 1.72c0,0.41 0.41,0.49 0.69,0.31l2.03 -1.69c0.36,-0.28 0.25,-0.35 0.89,-0.34l5.02 0c1.66,0 1.51,-1.09 1.51,-2.22 0,-1.67 0,-3.34 0,-5.01 0.65,-0.06 2.54,-0.92 2.54,-1.73l0 -2.8c0,-0.27 -0.22,-0.49 -0.49,-0.49l-8.9 0c-0.55,0 -0.96,0.17 -1.37,0.41 -0.65,0.38 -0.91,1.07 -1.33,1.69z"/>
    <path class="fil1" d="M7.79 22.82c0.65,0 6.92,-0.06 7.25,0.03 0.53,0.14 0.76,0.78 1.65,0.78l2.53 0c0.89,0 1.01,-0.81 1.89,-0.81l6.91 0c0,0.47 0.11,1.62 -0.71,1.62l-18.77 0c-0.29,0 -0.6,-0.27 -0.67,-0.52 -0.1,-0.32 0.05,-0.83 -0.08,-1.1zm-0.87 -0.43l0 1.24c0,0.93 0.8,1.72 1.73,1.72l18.45 0c1.04,0 1.78,-0.81 1.78,-1.56 0,-0.72 0.16,-1.83 -0.32,-1.83l-7.67 0c-0.98,0 -1.17,0.81 -1.88,0.81l-2.22 0c-0.43,0 -0.61,-0.25 -0.85,-0.45 -0.19,-0.15 -0.6,-0.36 -0.93,-0.36l-7.66 0c-0.26,0 -0.43,0.17 -0.43,0.43z"/>
    <path class="fil1" d="M23.38 14.4l7.6 0c0.25,0 0.38,0.13 0.38,0.38l0 5.07c0,0.25 -0.13,0.38 -0.38,0.38l-7.66 0c-0.65,0 0.01,-1.43 -0.62,-1.65 -0.2,-0.07 -0.5,-0.02 -0.73,-0.02 0.16,-0.24 0.45,-0.48 0.66,-0.69 0.41,-0.4 0.37,-0.28 0.37,-1.04 0,-0.47 0,-0.93 0,-1.4 0,-0.47 -0.11,-1.03 0.38,-1.03zm-2.97 4.59c0,0.6 0.81,0.43 1.73,0.43 0,0.49 -0.06,1.08 0.46,1.43 0.32,0.22 0.59,0.3 1.1,0.3l6.96 0c0.5,0 0.86,-0.09 1.14,-0.32 0.26,-0.2 0.48,-0.58 0.48,-1.03l0 -4.96c0,-0.78 -0.58,-1.35 -1.35,-1.35l-7.5 0c-1.81,0 -1.23,2.27 -1.29,3.45 -0.02,0.33 -0.29,0.47 -0.72,0.9 -0.29,0.29 -1.01,0.84 -1.01,1.15z"/>
    <path class="fil1" d="M15.88 20.23l-7.66 0c-0.25,0 -0.38,-0.13 -0.38,-0.38l0 -5.07c0,-0.25 0.13,-0.38 0.38,-0.38l7.6 0c0.68,0 0.24,1.21 0.4,1.76 0.08,0.27 0.86,0.86 1.06,1.16 -1.14,0 -1.08,-0.07 -1.08,1.08 0,0.51 0.18,1.83 -0.32,1.83zm-8.96 -5.39l0 4.96c0,0.93 0.7,1.35 1.62,1.35l6.96 0c1.91,0 1.56,-1.43 1.56,-2.97 0.65,0 1.73,0.16 1.73,-0.43 0,-0.45 -1.55,-1.54 -1.7,-1.92 -0.16,-0.4 0.14,-1.1 -0.17,-1.66 -0.21,-0.39 -0.58,-0.68 -1.15,-0.68l-7.5 0c-0.77,0 -1.35,0.57 -1.35,1.35z"/>
    <path class="fil1" d="M8.22 9.93l0 2.75 0.86 0 0 -2.48c0,-0.75 0.55,-1.3 1.3,-1.3l4.58 0 0 -0.86 -4.85 0c-0.89,0 -1.89,1 -1.89,1.89z"/>
    <polygon class="fil1" points="23.81,17.75 30.55,17.75 30.55,16.89 23.81,16.89 "/>
    <polygon class="fil1" points="23.81,19.42 30.55,19.42 30.55,18.56 23.81,18.56 "/>
    <path class="fil1" d="M18.95 5.93c-0.74,0 -0.77,-1.24 -0.05,-1.24 0.98,0 0.82,1.24 0.05,1.24zm-1.45 -0.7c0,0.96 0.61,1.57 1.56,1.57 1.1,0 1.93,-1.51 1,-2.51 -0.84,-0.91 -2.56,-0.41 -2.56,0.94z"/>
    <polygon class="fil1" points="9.89,12.25 14.96,12.25 14.96,11.38 9.89,11.38 "/>
    <polygon class="fil1" points="10.32,16.08 15.39,16.08 15.39,15.21 10.32,15.21 "/>
    <polygon class="fil1" points="10.32,17.75 15.39,17.75 15.39,16.89 10.32,16.89 "/>
    <polygon class="fil1" points="10.32,19.42 15.39,19.42 15.39,18.56 10.32,18.56 "/>
    <path class="fil1" d="M23.81 16.08l4.1 0c0.12,0 0.16,-0.04 0.16,-0.17l0 -0.7 -4.26 0 0 0.87z"/>
    <polygon class="fil1" points="28.88,16.08 30.55,16.08 30.55,15.21 28.88,15.21 "/>
    <polygon class="fil1" points="11.56,10.57 12.43,10.57 12.43,9.71 11.56,9.71 "/>
    <polygon class="fil1" points="13.29,10.57 14.15,10.57 14.15,9.71 13.29,9.71 "/>
    <polygon class="fil1" points="9.89,10.57 10.75,10.57 10.75,9.71 9.89,9.71 "/>
    <polygon class="fil1" points="8.65,16.08 9.51,16.08 9.51,15.21 8.65,15.21 "/>
    <polygon class="fil1" points="8.65,17.75 9.51,17.75 9.51,16.89 8.65,16.89 "/>
    <polygon class="fil1" points="8.65,19.42 9.51,19.42 9.51,18.56 8.65,18.56 "/>
   </g>
  </g>
 </g>
</svg>
