<?xml version="1.0" encoding="UTF-8"?>
<!DOCTYPE svg PUBLIC "-//W3C//DTD SVG 1.1//EN" "http://www.w3.org/Graphics/SVG/1.1/DTD/svg11.dtd">
<!-- Creator: CorelDRAW 2021 (64-Bit) -->
<svg xmlns="http://www.w3.org/2000/svg" xml:space="preserve" width="205px" height="166px" version="1.1" style="shape-rendering:geometricPrecision; text-rendering:geometricPrecision; image-rendering:optimizeQuality; fill-rule:evenodd; clip-rule:evenodd"
viewBox="0 0 48.04 39.08"
 xmlns:xlink="http://www.w3.org/1999/xlink"
 xmlns:xodm="http://www.corel.com/coreldraw/odm/2003">
 <defs>
  <style type="text/css">
   <![CDATA[
    .fil0 {fill:#552F78}
   ]]>
  </style>
 </defs>
 <g id="Capa_x0020_1">
  <metadata id="CorelCorpID_0Corel-Layer"/>
  <g id="_1654363977424">
   <polygon class="fil0" points="48.04,36.5 0,36.5 0,39.08 48.04,39.08 "/>
   <g>
    <path class="fil0" d="M17.84 31.21l11.12 0 0 1.07 -11.12 0 0 -1.07zm2.14 -4.41l6.63 0c0.31,0 0.25,0.79 0.36,1.56l0.21 1.71 -7.63 0c0.07,-0.14 0.43,-2.94 0.43,-3.27zm7.34 -24.73l1.29 1.28 -1.29 0 0 -1.28zm-13.4 -0.93l0 3.35c-1.97,0 -3.14,-0.28 -4.29,0.91 -0.46,0.47 -0.77,1.24 -0.77,2.15l0 16.18c0,0.99 0.32,1.67 0.81,2.19 0.51,0.57 1.32,0.88 2.12,0.88l7.05 0c0,0.45 -0.15,1.17 -0.21,1.64 -0.05,0.52 -0.11,1.17 -0.22,1.63 -0.55,0 -0.78,-0.02 -1.16,0.19 -0.71,0.4 -0.55,1.08 -0.55,2.02 -1.38,0 -1.14,-0.25 -1.14,1.22l15.61 0c0,-1.46 0.24,-1.22 -1.07,-1.22 0,-1.53 0.06,-2.21 -1.78,-2.21 0,-0.86 -0.36,-2.24 -0.36,-3.27l1.57 0 0 -1.14 -17.6 0c-1.05,0 -1.85,-0.69 -1.85,-1.36l0 -1.99 19.45 0 0 -1.14 -19.45 0 0 -14.19c0,-0.25 0.18,-0.55 0.33,-0.73 0.26,-0.33 0.67,-0.62 1.16,-0.62l2.35 0 0 13.47c0,0.44 0.56,1 1,1l11.83 0c0,-0.78 0.11,-1.14 -0.21,-1.14l-11.47 0 0 -17.75 11.11 0c0,3.62 -0.34,3.28 3.28,3.28 0,2.03 -0.26,1.71 1,1.71 0.27,0 0.21,-0.17 0.21,-0.57l4.49 0c0.86,0 1.57,0.76 1.57,1.64l1.14 0c0,-1.52 -1.26,-2.78 -2.78,-2.78l-4.42 0c0,-0.94 -0.07,-0.82 -0.83,-1.59 -0.37,-0.36 -0.68,-0.67 -1.04,-1.03l-1.53 -1.53c-0.21,-0.22 -0.32,-0.34 -0.73,-0.34l-11.26 0c-0.76,0 -1.36,0.38 -1.36,1.14z"/>
    <path class="fil0" d="M31.74 28.36l0 -8.26 1.07 0 0 8.34c0,0.79 -1.07,0.68 -1.07,-0.08zm0.79 -9.4c-1.81,0 -3.1,-0.57 -4.16,-1.62 -1.65,-1.67 -2.12,-4.23 -1.07,-6.32 0.31,-0.61 0.61,-1.11 1.11,-1.6 0.2,-0.2 0.51,-0.43 0.75,-0.6 1.91,-1.28 4.56,-1.28 6.25,-0.01 0.88,0.65 1.45,1.29 1.92,2.28 0.71,1.52 0.68,2.95 0.07,4.48l-0.76 1.3c-0.98,1.2 -2.49,2.09 -4.11,2.09zm-6.92 -5.92l0 0.71c0,1.45 0.86,3.24 1.59,3.98 1.01,1.02 1.9,1.8 3.4,2.15 0,0.88 -0.07,8.45 0.05,8.93 0.46,1.82 2.93,1.68 3.27,0.03 0.09,-0.44 0.03,-8.13 0.03,-8.96 0.82,-0.19 0.94,-0.3 1.52,-0.61 0.97,-0.54 1.2,-0.7 1.99,-1.65 4.28,-5.08 -1,-13.1 -7.81,-10.37 -2.23,0.9 -4.04,3.41 -4.04,5.79z"/>
    <path class="fil0" d="M28.39 13.4c0,-0.44 0.19,-1.18 0.34,-1.52 0.35,-0.85 0.99,-1.53 1.82,-1.95 1.02,-0.51 2.41,-0.52 3.45,0 2.38,1.19 2.95,4.27 0.97,6.27 -1.76,1.76 -4.87,1.45 -6.2,-1.18 -0.17,-0.35 -0.38,-1.14 -0.38,-1.62zm-1.14 -0.14c0,1.58 0.61,3.02 1.79,3.98 0.52,0.42 0.44,0.39 1.18,0.74 2.38,1.16 5.37,0.07 6.56,-2.32 1.23,-2.48 0.31,-5.46 -2.31,-6.78 -1.29,-0.65 -3.09,-0.63 -4.39,0 -1.3,0.64 -2.3,1.89 -2.66,3.33 -0.06,0.26 -0.17,0.79 -0.17,1.05z"/>
    <path class="fil0" d="M36.73 21.17l-1.64 0 0 1.14 1.64 0c0,1.33 0.34,3.18 -1.64,3.35l0 1.14c1.5,-0.04 2.78,-1.24 2.78,-2.78l0 -4.49 -1.14 0 0 1.64z"/>
    <path class="fil0" d="M16.7 7.77c0.76,0.17 6.4,0.07 7.63,0.07 0.3,0 0.21,-0.27 0.21,-0.93 0,-0.16 -0.05,-0.21 -0.21,-0.21l-7.63 0 0 1.07z"/>
    <polygon class="fil0" points="16.7,14.54 23.97,14.54 23.97,13.4 16.7,13.4 "/>
    <path class="fil0" d="M18.91 11.19l5.63 0 0 -0.93c0,-0.16 -0.05,-0.21 -0.21,-0.21l-5.42 0 0 1.14z"/>
    <path class="fil0" d="M20.05 3.56l0 0.93 4.49 0c0,-0.45 0.1,-1.14 -0.28,-1.14l-3.99 0c-0.17,0 -0.22,0.05 -0.22,0.21z"/>
    <path class="fil0" d="M16.7 3.42l0 1.07 2.28 0c0,-1.4 0.23,-1.14 -1.92,-1.14 -0.11,0 -0.27,0.04 -0.36,0.07z"/>
    <polygon class="fil0" points="16.7,11.19 17.84,11.19 17.84,10.05 16.7,10.05 "/>
   </g>
  </g>
 </g>
</svg>
