<?xml version="1.0" encoding="utf-8"?>
<!-- Generator: Adobe Illustrator 24.3.0, SVG Export Plug-In . SVG Version: 6.00 Build 0)  -->
<svg version="1.1" id="Capa_1" xmlns:xodm="http://www.corel.com/coreldraw/odm/2003"
	 xmlns="http://www.w3.org/2000/svg" xmlns:xlink="http://www.w3.org/1999/xlink" x="0px" y="0px" viewBox="0 0 18.2 11.2"
	 style="enable-background:new 0 0 18.2 11.2;" xml:space="preserve">
<style type="text/css">
	.st0{fill-rule:evenodd;clip-rule:evenodd;fill:#B51B8C;}
</style>
<g id="Capa_x0020_1">
	<g id="_1654511025520">
		<polygon class="st0" points="18.2,10.2 0,10.2 0,11.2 18.2,11.2 		"/>
		<g>
			<path class="st0" d="M12.8,6.4c0.2,0-0.1,0.1,0.5,0.1c0.1,0,0.1,0,0.2-0.1c0,0.2,0,0.2,0,0.3c-0.2,0.1-0.3,0.4-0.7,0.1
				C12.8,6.8,12.8,6.8,12.8,6.4L12.8,6.4z M7.8,6.6C7.9,6.5,7.8,6.6,7.8,6.6c0.5-0.3,0.5-0.4,0.5-1c0,0,0.5,0.1,0.7,0.1
				c0.3,0,0.7-0.1,0.7-0.1c0,0.2,0,0.5,0.1,0.6l0,0c0.1,0.2,0.2,0.2,0.3,0.2c0.1,0,0.1,0,0.1,0.1c0,0.1-0.1,0.1-0.1,0.1
				c0,0.1-0.1,0.1-0.1,0.1c0,0,0,0,0,0c0,0,0,0,0,0C10.1,7,9.9,7.2,9.8,7.2L9.6,7.3C9.1,7.5,8.7,7.4,8.3,7.1C8.2,7.1,8.1,7,8,6.9
				c0-0.1-0.1-0.1-0.1-0.1C7.9,6.7,7.9,6.7,7.8,6.6C7.8,6.7,7.8,6.7,7.8,6.6L7.8,6.6L7.8,6.6z M5.2,6.9L4.9,6.6
				c-0.1-0.1,0-0.1,0-0.2c0.3,0.1,0.4,0.1,0.7,0c0,0.2,0,0.2-0.1,0.3C5.4,6.8,5.3,6.9,5.2,6.9z M12.1,5.9l0.2,0.2
				c0.2,0.2,0.2,0,0.2,0.4c0,0.1-0.1,0.1-0.3,0.2c-0.3,0.1-0.3,0.2-0.8-0.1c-0.1,0-0.1-0.1-0.2-0.1c0.1-0.1,0,0,0.2-0.1l0.3-0.2
				c0,0,0,0,0,0C11.9,6.2,11.9,6.1,12,6C12,6,12.1,5.9,12.1,5.9z M6,6.4C6,6.1,6,6.3,6.2,6c0.1,0.1,0.1,0.1,0.2,0.1
				c0.3,0.2,0.5,0.2,0.7,0.3C7,6.6,6.8,6.7,6.7,6.7c-0.1,0-0.1,0-0.3,0c-0.1,0-0.1,0-0.1,0C6.2,6.6,6.1,6.6,6,6.5C6,6.5,6,6.5,6,6.4
				z M5.4,6.1c-0.5,0-0.6,0-0.9-0.4L4.4,5.5c-0.1-0.2,0-0.4-0.1-0.6C4.3,4.5,4,4.5,4.2,4c0-0.1,0.1-0.2,0.2-0.3
				C4.5,3.6,4.7,3.5,5,3.5h1.3c0,0.9,0.1,0.7-0.2,1.2C6.1,4.9,6.3,5.6,5.8,5.9c0,0,0,0,0,0C5.6,6,5.4,6.1,5.4,6.1z M12.4,4.8
				c0,0.2,0.3,0.4,0.5,0c0-0.1,0,0,0-0.1c0.2,0,0.9,0.4,1.1,0.5c0.1,0.1,0.1,0.2,0,0.4l-0.3,0.3c0,0-0.1,0.1-0.1,0.1
				c-0.2,0.1-0.6,0.1-0.8,0l-0.3-0.2c0,0,0,0-0.1-0.1c-0.1-0.1-0.1-0.2-0.2-0.3l0-0.1c-0.1-0.4-0.3-0.6-0.2-1.1
				c0.1-0.3,0.2-0.5,0.6-0.7c0.6-0.3,1.3,0,1.5,0.7c0.1,0.3,0.1,0.3,0,0.6c-0.1,0-0.3-0.2-0.5-0.3l-0.3-0.1c-0.1,0,0,0-0.1,0
				c-1-0.4-0.7-0.1-0.9,0.2C12.5,4.7,12.4,4.7,12.4,4.8z M12.6,3.3c0-0.1,0-0.1,0.1-0.2l0.1-0.2c0.2-0.2,0.6-0.2,0.8,0
				c0,0,0,0,0.1,0.1c0.1,0.1,0.1,0.2,0.1,0.3C13.5,3.1,12.9,3.1,12.6,3.3L12.6,3.3z M8.2,2c0,0.2,0.1,0.2,0.3,0.2c0.1,0,0.1,0,0.2,0
				c0.1,0,0.2,0,0.2,0c0.2,0,0.4,0.1,0.5,0.2l0.4,0.1c0.4,0.2,0.6,0.3,0.8,0.5c0.3,0.3,0.2,0.4,0.2,0.9c0,0.1,0,0.2-0.1,0.3
				c-0.1,0.4-0.5,0.8-0.8,1C9.4,5.4,9,5.4,8.6,5.3c0,0,0,0-0.1,0L8.2,5.1C7.9,4.9,7.7,4.6,7.5,4.3C7.5,4,7.5,3.8,7.5,3.5
				c0-0.1,0.5-0.3,0.7-0.8c0.1-0.2,0-0.3-0.2-0.3c-0.2,0-0.2,0.3-0.4,0.5C7,3.4,7.1,3.2,7.1,4l0.1,0.3c0.1,0.3,0.4,0.8,0.7,0.9
				C8.1,5.5,8,5.5,8,6c0,0.2-0.1,0.2-0.3,0.3c-0.1,0.1-0.1,0.1-0.2,0L6.7,5.9c-0.1,0-0.1-0.1-0.2-0.1c0-0.1,0-0.1,0-0.2
				c0.1-0.4,0.1-0.7,0.1-1.1l0.1-0.7c0.1-0.5,0.1-0.9,0.1-1.4c0-0.1,0-0.2,0-0.2C7,2,7.1,1.7,7.2,1.5c0.1-0.2,0.3-0.4,0.5-0.6l0,0
				C7.8,0.7,8,0.7,8.2,0.6c0.2-0.1,0.3-0.1,0.5-0.2C9,0.3,9.5,0.4,9.8,0.5c0.2,0.1,0.4,0.2,0.6,0.3c0.1,0,0.1,0.1,0.1,0.1
				c0.2,0.2,0.3,0.3,0.4,0.6c0.1,0.1,0.1,0.2,0.2,0.3c0.1,0.3,0.1,0.6,0.2,0.8l0.1,0.9c0,0.1,0,0.4,0,0.5c0,0.3,0.1,1,0.2,1.3
				c0,0.1,0,0.2,0,0.2c0,0.1,0,0.1,0,0.2c-0.4,0.3-0.6,0.3-1,0.4c-0.1,0-0.1,0-0.2,0c-0.4-0.2-0.3-0.3-0.3-0.8
				c0-0.1,0.3-0.3,0.3-0.3c0.2-0.3,0.4-0.5,0.5-0.9c0.1-0.2,0.1-0.5,0.1-0.8c0-0.5-0.5-0.8-0.9-1L9.1,2c-0.1,0-0.1,0-0.3,0
				C8.7,1.9,8.2,1.7,8.2,2L8.2,2z M6.5,2.9v0.2H4.7c-0.1,0-0.3,0.1-0.4,0.1L4.2,3.3C4,3.5,3.7,3.8,3.7,4.1c0,0.7,0.1,0.5,0.2,0.8
				C4,5.2,3.9,5.3,4,5.7C4.1,5.9,4.2,6,4.4,6.2l0.1,0.1c0,0.4,0.1,0.3-0.5,0.4c-0.2,0-0.4,0.1-0.5,0.2C3.4,7,3.3,7,3.3,7.1
				C3.1,7.4,3.2,8.4,3.2,8.8c0,0.1,0,0.2,0.1,0.3c0.1,0,0.2,0,0.3,0c0.1-0.4-0.1-1.6,0.1-1.8C3.8,7.1,4.2,7,4.4,7l0.2,0
				c0.1,0,0,0,0.1,0.1L5,7.3c0,0.1,0,1.2,0,1.5c0,0.2,0,0.3,0.2,0.3c0.3,0,0.2-0.2,0.2-0.5v-1c0-0.4,0.1-0.2,0.4-0.7L6.1,7
				C6.1,7,6,7,6,7.1L5.9,7.3c0,0,0,0,0,0C5.8,7.4,5.8,7.6,5.8,7.7v1.1C5.8,9.1,6,9.1,6.1,9c0-0.3,0-0.6,0-0.9c0-0.3,0-0.6,0.1-0.8
				l0,0c0,0,0,0,0,0c0,0,0,0,0.1-0.1c0.1-0.1,0.9-0.4,1.1-0.5C7.6,7,7.7,7.2,7.9,7.3l0.6,0.3c0.3,0.1,0.6,0.1,0.9,0.1
				c0.3,0,0.6-0.2,0.8-0.3c0.3-0.2,0.4-0.4,0.5-0.7c0.1,0,0.1,0,0.2,0.1l0.5,0.2c0.2,0.1,0.5,0.2,0.6,0.4c0.1,0.2,0.1,1,0.1,1.3
				c0,0.2,0,0.3,0.2,0.3c0.1,0,0.2-0.1,0.2-0.2c0-0.3,0.1-1.3-0.1-1.6c0,0,0-0.1,0-0.1c0-0.1-0.1,0-0.1-0.1L12.5,7
				c0.3,0.2,0.3,0.4,0.8,0.4c0.3,0,0.4-0.2,0.7-0.4c0.1,0,0.2,0.1,0.2,0.1c0.2,0.1,0.3,0.1,0.5,0.3c0,0,0,0,0,0c0.1,0.2,0,0.8,0,1
				c0,0.3-0.1,0.6,0.2,0.6c0.2,0,0.2-0.1,0.2-0.3c0-0.3,0.1-1.2-0.1-1.5L14.8,7c0,0,0,0,0,0c0,0,0,0,0,0l-0.6-0.3
				c-0.2-0.1-0.2-0.1-0.2-0.4c0-0.1,0.2-0.2,0.2-0.2c0.3-0.4,0.2-0.4,0.4-0.8c0.2-0.3,0.2-0.8,0.1-1.2c-0.1-0.2-0.3-0.5-0.5-0.6
				c0.1-0.2,0-0.5-0.1-0.7c0,0,0,0,0,0c-0.1-0.2-0.4-0.4-0.7-0.4c-0.2,0-0.4,0-0.5,0.1c-0.1,0-0.2,0.1-0.3,0.2c0,0,0,0,0,0
				c-0.2,0.2-0.3,0.5-0.2,0.8C12.1,3.6,11.9,4,11.8,4c0-0.1,0-0.2,0-0.4c-0.1-0.6,0-1.2-0.2-1.7c-0.1-0.4-0.2-0.7-0.5-1
				c-0.2-0.3-0.5-0.5-0.8-0.6c-0.1,0,0,0-0.1,0c0,0,0,0-0.1,0C9.9,0.1,9.5,0,9.1,0C8.9,0,8.5,0,8.3,0.1L7.5,0.5L7,1.1
				c0,0,0,0.1-0.1,0.1C6.8,1.4,6.7,1.7,6.6,1.9C6.6,2.1,6.6,2.2,6.5,2.5C6.5,2.7,6.5,2.8,6.5,2.9L6.5,2.9z"/>
			<path class="st0" d="M4.5,4.2c0,0.3,0.3,0.2,1,0.3C5.7,4.6,6,4.8,6,4.4c0-0.1-0.3-0.2-0.4-0.2c-0.5-0.1-0.5-0.1-1-0.1
				C4.5,4.1,4.5,4.2,4.5,4.2z"/>
			<path class="st0" d="M3.9,7.7v1.1c0,0.3,0.4,0.3,0.4,0V7.7C4.3,7.5,3.9,7.5,3.9,7.7z"/>
			<path class="st0" d="M14,7.9c-0.1,0.2,0,0.7,0,1c0,0.3,0.4,0.2,0.4,0.1V8C14.3,7.9,14.2,7.8,14,7.9z"/>
			<path class="st0" d="M10.8,8.2c0,0.3,0,0.8,0.1,0.9c0.1,0.1,0.3,0.1,0.3-0.2c0-0.2,0-0.7-0.1-0.8C11,8,10.8,7.9,10.8,8.2
				L10.8,8.2z"/>
			<path class="st0" d="M7.1,8.1c0,0.3,0,0.7,0,1c0.2,0,0.1,0,0.3,0C7.5,8.9,7.5,8,7.3,8C7.2,8,7.1,8,7.1,8.1z"/>
		</g>
	</g>
</g>
</svg>
