<?xml version="1.0" encoding="UTF-8"?>
<!DOCTYPE svg PUBLIC "-//W3C//DTD SVG 1.1//EN" "http://www.w3.org/Graphics/SVG/1.1/DTD/svg11.dtd">
<!-- Creator: CorelDRAW 2021 (64-Bit) -->
<svg xmlns="http://www.w3.org/2000/svg" xml:space="preserve" width="205px" height="166px" version="1.1" style="shape-rendering:geometricPrecision; text-rendering:geometricPrecision; image-rendering:optimizeQuality; fill-rule:evenodd; clip-rule:evenodd"
viewBox="0 0 90.43 73.3"
 xmlns:xlink="http://www.w3.org/1999/xlink"
 xmlns:xodm="http://www.corel.com/coreldraw/odm/2003">
 <defs>
  <style type="text/css">
   <![CDATA[
    .fil0 {fill:#3E2259}
    .fil1 {fill:#3E2259}
   ]]>
  </style>
 </defs>
 <g id="Capa_x0020_1">
  <metadata id="CorelCorpID_0Corel-Layer"/>
  <g id="_1654286372960">
   <polygon class="fil0" points="90.43,68.46 0,68.46 0,73.3 90.43,73.3 "/>
   <g>
    <path class="fil1" d="M20.09 43.97c0.39,-0.29 0.33,-1.16 0.92,-2.35 1.5,-3.02 1.22,1.75 1.22,-8.71l0 -11.42c0.04,-0.29 0.09,-0.41 0.29,-0.59 0.1,-0.1 0.43,-0.3 0.59,-0.3l44.09 0c1.18,0 1.01,1.1 1,2.26l0 16.34c-0.01,0.7 0.03,0.89 0.36,1.27 0.78,0.93 1.53,2.08 1.53,3.37l0.25 -21.23c0,-1.39 -0.05,-2.01 -0.68,-2.84 -0.51,-0.68 -1.32,-1.18 -2.46,-1.18l-43.97 0c-1.1,0 -1.9,0.48 -2.41,1.11 -0.62,0.78 -0.73,1.41 -0.73,2.79l0 21.48z"/>
    <path class="fil1" d="M46.22 2.39c0,-1.31 2.6,1 4.4,1l0.37 0 0 3.39c-1.96,0 -2.2,-1.38 -4.77,-1.38l0 -3.01zm0.07 -2.39l0.75 0c1.44,0.19 2.65,1.38 3.7,1.38 0.4,0 0.62,-0.76 1.37,-0.72 0.52,0.03 1.02,0.47 1.02,1.1 0,1.34 0.23,5.5 -0.28,6.12 -0.09,0.12 -0.56,0.46 -0.7,0.56 -2.38,1.61 -5.93,-2.18 -5.93,-0.53l0 3.77 12.19 0c0.72,0 1.48,0.34 1.99,0.77 1.35,1.16 1.02,2.24 1.02,4.26l-2.01 0c0,-0.86 0.25,-2.89 -0.75,-2.89l-26.89 0c-0.99,0 -0.75,2.03 -0.75,2.89l-2.01 0 0 -2.51c0,-1.09 1.5,-2.52 3.02,-2.52l12.18 0 0 -10.05c0,-0.62 0.38,-0.84 0.77,-1.11 0.46,-0.3 0.9,-0.46 1.31,-0.52z"/>
    <path class="fil1" d="M38.93 60.05l0 -4.4c0,-1.36 1.31,-2.64 3.02,-2.64l6.53 0c1.71,0 3.02,1.28 3.02,2.64l0 4.4c0,0.3 -0.45,0.75 -0.76,0.75l-11.05 0c-0.3,0 -0.76,-0.45 -0.76,-0.75zm-2.13 -4.15c0,1.9 -0.31,4.66 0.67,5.86 0.29,0.35 1.28,1.05 1.84,1.05l11.56 0c0.46,0 0.75,-0.12 1.09,-0.29 2.22,-1.07 1.67,-3.72 1.67,-6.62 0,-0.62 -0.22,-1.36 -0.41,-1.85 -0.59,-1.57 -2.4,-3.05 -3.98,-3.05l-8.04 0c-2.19,0 -4.4,2.45 -4.4,4.9z"/>
    <path class="fil1" d="M20.22 59.8c0,-2.41 -0.43,-4.88 1.05,-6.11 0.02,-0.02 0.05,-0.04 0.07,-0.06 0.1,-0.08 0.02,-0.03 0.22,-0.15 0.43,-0.27 1.21,-0.47 1.8,-0.47l6.66 0c1.57,0 2.88,1.28 2.88,3.02l0 3.77c0,0.6 -0.39,1 -1,1l-10.68 0c-0.61,0 -1,-0.4 -1,-1zm-2.01 -4.15l0 4.4c0,1.45 1.39,2.76 2.63,2.76l11.44 0c1.27,0 2.63,-1.36 2.63,-2.64 0,-3.25 0.52,-5.88 -1.41,-7.76 -0.67,-0.65 -1.83,-1.41 -3.11,-1.41l-7.66 0c-2.21,0 -4.52,2.2 -4.52,4.65z"/>
    <path class="fil1" d="M57.53 59.8c0,-2.36 -0.36,-4.52 0.78,-5.88 0.38,-0.44 1.34,-0.91 2.11,-0.91l6.91 0c1.53,0 2.88,1.34 2.88,2.77l0 4.02c0,0.6 -0.39,1 -1,1l-10.68 0c-0.61,0 -1,-0.4 -1,-1zm-2.01 -4.27l0 4.64c0,1.28 1.36,2.64 2.63,2.64l11.44 0c1.24,0 2.63,-1.31 2.63,-2.76 0,-3.94 0.65,-6.71 -2.66,-8.52 -0.54,-0.3 -1.06,-0.53 -1.86,-0.53l-7.66 0c-2.3,0 -4.52,2.32 -4.52,4.53z"/>
    <path class="fil1" d="M13.81 29.14l0 25.51c0,1.06 1.13,1.38 2.14,1.38 0.52,0 0.25,-0.43 0.62,-2.01 -0.3,-0.17 -0.23,-0.13 -0.75,-0.13l0 -24.37c0,-1.24 1.3,-1 2.39,-1l0 -2.01c-1.93,0 -2.47,-0.26 -3.62,0.9 -0.42,0.43 -0.78,0.93 -0.78,1.73z"/>
    <path class="fil1" d="M72.22 28.52c1.1,0 2.39,-0.24 2.39,1l0 24.37c-0.99,0 -0.39,-0.05 -0.75,0.13 0.08,0.34 0.2,0.68 0.23,1.02 0.06,0.66 -0.18,0.99 0.52,0.99 1,0 2.01,-0.43 2.01,-1.38l0 -25.51c0,-1.41 -1.55,-2.63 -2.39,-2.63l-2.01 0 0 2.01z"/>
    <path class="fil1" d="M24.11 44.72c0,-0.26 0.16,-0.73 0.22,-0.91 0.77,-2.38 4.68,-1.84 4.68,0.79 0,1.91 -2.38,3.42 -4.06,1.79 -0.44,-0.43 -0.84,-1.1 -0.84,-1.67zm-2.01 -0.12c0,1.11 0.36,2.02 0.96,2.81l0.29 0.34c2.79,2.89 7.67,0.9 7.67,-3.03 0,-5.14 -6.79,-6 -8.49,-1.96 -0.21,0.5 -0.43,1.19 -0.43,1.84z"/>
    <path class="fil1" d="M61.42 44.72c0,-2.81 3.74,-3.23 4.62,-1.1 1.11,2.7 -2.11,4.45 -3.81,2.8 -0.37,-0.36 -0.81,-1.05 -0.81,-1.7zm-2.01 -0.12c0,4.98 6.59,6.12 8.49,1.96 0.66,-1.43 0.51,-3.2 -0.3,-4.37 -0.48,-0.68 -0.97,-1.12 -1.74,-1.53 -1.95,-1.06 -4.78,-0.38 -6.04,2.09 -0.26,0.52 -0.41,1.12 -0.41,1.85z"/>
    <path class="fil1" d="M42.83 44.72c0,-0.77 0.25,-1.24 0.66,-1.73 0.81,-0.95 2.43,-0.96 3.27,-0.19 1.8,1.66 0.48,4.27 -1.54,4.28 -1.25,0.01 -2.39,-1.05 -2.39,-2.36zm-2.01 -0.5c0,1.62 0.09,2.51 1.41,3.74 2.15,2.02 6.02,1.42 7.23,-1.89 0.21,-0.58 0.15,-1.16 0.15,-1.85 0,-3.31 -4.71,-5.5 -7.38,-2.86 -0.7,0.69 -1.41,1.51 -1.41,2.86z"/>
    <path class="fil1" d="M28.51 24.62l2.01 0 0 2.77 -2.01 0 0 -2.77zm-2.01 -1l0 4.77c0,0.62 0.51,1.13 1.13,1.13l3.77 0c0.62,0 1.13,-0.51 1.13,-1.13l0 -4.77c0,-1.57 -2.52,-1.13 -4.65,-1.13 -0.78,0 -1.38,0.36 -1.38,1.13z"/>
    <path class="fil1" d="M44.21 24.62l2.01 0 0 2.77 -2.01 0 0 -2.77zm-2.01 -1l0 4.77c0,0.62 0.51,1.13 1.13,1.13l3.77 0c0.62,0 1.13,-0.51 1.13,-1.13l0 -4.77c0,-1.57 -2.51,-1.13 -4.65,-1.13 -0.78,0 -1.38,0.36 -1.38,1.13z"/>
    <path class="fil1" d="M59.91 24.62l2.01 0 0 2.77 -2.01 0 0 -2.77zm-2.01 -0.75l0 4.52c0,0.62 0.51,1.13 1.13,1.13l3.77 0c0.62,0 1.13,-0.51 1.13,-1.13l0 -4.52c0,-1.85 -1.82,-1.38 -4.64,-1.38 -0.95,0 -1.39,0.44 -1.39,1.38z"/>
    <path class="fil1" d="M36.42 24.62l1.89 0 0 2.77 -1.89 0 0 -2.77zm-2.01 -1.25c0,1.27 -0.22,5.29 0.23,5.8 0.56,0.62 3.28,0.35 4.8,0.35 0.2,0 0.88,-0.29 0.88,-1l0 -5.15c0,-0.28 -0.25,-0.55 -0.46,-0.67 -0.58,-0.34 -4.42,-0.34 -4.99,0 -0.21,0.12 -0.46,0.39 -0.46,0.67z"/>
    <path class="fil1" d="M52.12 24.62l1.89 0 0 2.77 -1.89 0 0 -2.77zm-2.01 -1.25c0,1.27 -0.21,5.29 0.23,5.8 0.57,0.62 3.28,0.35 4.8,0.35 0.2,0 0.88,-0.29 0.88,-1l0 -5.15c0,-0.28 -0.25,-0.55 -0.46,-0.67 -0.57,-0.34 -4.41,-0.34 -4.98,0 -0.22,0.12 -0.47,0.39 -0.47,0.67z"/>
    <path class="fil1" d="M44.21 35.93l0 -2.51 2.01 0c0,3.41 0.42,2.88 -1.63,2.88 -0.29,0 -0.38,-0.08 -0.38,-0.37zm-2.01 -3.27l0 4.52c0,0.52 0.42,1.13 0.88,1.13l4.27 0c0.46,0 0.88,-0.61 0.88,-1.13l0 -4.52c0,-0.75 -0.26,-1.25 -1,-1.25l-4.02 0c-0.75,0 -1.01,0.5 -1.01,1.25z"/>
    <path class="fil1" d="M28.51 35.93l0 -2.51 2.01 0c0,3.41 0.42,2.88 -1.64,2.88 -0.28,0 -0.37,-0.08 -0.37,-0.37zm-2.01 -3.27l0 4.52c0,0.69 0.44,1.13 1.13,1.13l4.02 0c0.46,0 0.88,-0.61 0.88,-1.13l0 -4.52c0,-0.75 -0.26,-1.25 -1.01,-1.25l-4.02 0c-0.75,0 -1,0.5 -1,1.25z"/>
    <path class="fil1" d="M59.91 35.93l0 -2.51 2.01 0c0,3.41 0.43,2.88 -1.63,2.88 -0.29,0 -0.38,-0.08 -0.38,-0.37zm-2.01 -3.27l0 4.52c0,0.69 0.45,1.13 1.13,1.13l4.02 0c0.46,0 0.88,-0.61 0.88,-1.13l0 -4.52c0,-0.75 -0.25,-1.25 -1,-1.25l-4.02 0c-0.75,0 -1.01,0.5 -1.01,1.25z"/>
    <path class="fil1" d="M52.12 35.93l0 -2.51 1.89 0c0,3.38 0.39,2.88 -1.51,2.88 -0.29,0 -0.38,-0.08 -0.38,-0.37zm-2.01 -3.77l0 5.4c0,0.41 0.55,0.75 1.01,0.75l3.89 0c0.46,0 1.01,-0.34 1.01,-0.75l0 -5.4c0,-0.28 -0.28,-0.75 -0.88,-0.75 -0.79,0 -4.25,-0.2 -4.71,0.18 -0.1,0.08 -0.32,0.39 -0.32,0.57z"/>
    <path class="fil1" d="M36.42 35.93l0 -2.51 1.89 0c0,3.38 0.39,2.88 -1.51,2.88 -0.29,0 -0.38,-0.08 -0.38,-0.37zm-2.01 -3.77l0 5.4c0,0.41 0.55,0.75 1.01,0.75l3.89 0c0.46,0 1.01,-0.34 1.01,-0.75l0 -5.4c0,-0.28 -0.28,-0.75 -0.88,-0.75 -0.8,0 -4.25,-0.2 -4.72,0.18 -0.1,0.08 -0.31,0.39 -0.31,0.57z"/>
    <path class="fil1" d="M54.51 52.38c0.58,-0.42 0.72,-1.29 1.51,-1.5 0,-3.38 0.8,-6.86 -1.72,-7.96 -0.76,-0.34 -2.03,-0.21 -3.05,-0.21 0.51,2.22 -0.07,2.04 1.12,2.02 2.1,-0.04 1.64,0.63 1.64,4.89 0,1.99 -0.22,1.69 0.5,2.76z"/>
    <path class="fil1" d="M34.41 45.22l0 5.28c0,0.23 1.51,1.88 1.51,1.88 0.72,-1.07 0.5,-0.71 0.5,-2.63 0,-3.97 -0.49,-5.07 1.51,-5.03 1.36,0.04 0.72,0.28 1.26,-2.01 -2.02,0 -3.1,-0.31 -4.24,1.16 -0.19,0.24 -0.54,0.99 -0.54,1.35z"/>
    <path class="fil1" d="M68.46 49.24c2.31,0.2 1.88,2.16 1.88,-3.76l-0.25 0c0,2 -1.44,2.94 -1.63,3.76z"/>
    <path class="fil1" d="M21.98 49.24c-0.13,-0.54 -0.15,-0.42 -0.47,-0.79 -0.53,-0.63 -1.15,-2 -1.17,-2.85l-0.25 0c0,1.09 0,2.19 -0.01,3.28 0,1.54 0.24,0.5 1.9,0.36z"/>
   </g>
  </g>
 </g>
</svg>
