<?xml version="1.0" encoding="utf-8"?>
<!-- Generator: Adobe Illustrator 24.3.0, SVG Export Plug-In . SVG Version: 6.00 Build 0)  -->
<svg version="1.1" id="Capa_1" xmlns:xodm="http://www.corel.com/coreldraw/odm/2003"
	 xmlns="http://www.w3.org/2000/svg" xmlns:xlink="http://www.w3.org/1999/xlink" x="0px" y="0px" viewBox="0 0 14.3 11.2"
	 style="enable-background:new 0 0 14.3 11.2;" xml:space="preserve">
<style type="text/css">
	.st0{fill-rule:evenodd;clip-rule:evenodd;fill:#7D005C;}
	.st1{fill-rule:evenodd;clip-rule:evenodd;fill:#7D005C;stroke:#7D005C;stroke-width:0.25;stroke-miterlimit:155.6723;}
</style>
<g id="Capa_x0020_1">
	<g id="_1654916061200">
		<polygon class="st0" points="14.3,10.4 0,10.4 0,11.2 14.3,11.2 		"/>
		<g>
			<path class="st1" d="M2.4,6.9c0.2,0,0.3,0,0.5-0.3C3,6.4,3.2,6.3,3.3,6.1c0.2-0.3,0.5-0.6,0.8-0.9c0.4-0.4,1.1-1.1,1.4-1.5
				c0.1-0.1,0.1-0.1,0.2-0.2c0.1,0,0.2,0.1,0.2,0.2C5.9,3.8,6,3.8,6,3.9c0.2,0.2,0.4,0.3,0.6,0.5c0,0.1,0,0,0.1,0.1l4.7,4.8
				c0.1,0.1,0.3,0.3,0.5,0.3c0.2-0.2-0.5-0.8-0.8-1C10.8,8.2,8.5,6,8.4,5.8l1.1-1.2c0.4,0.3,2.2,2.3,2.4,2.3c0.1,0,0.1,0,0.2-0.1
				c0-0.2-0.4-0.5-0.6-0.7L9.8,4.5C9.7,4.4,9.6,4.3,9.4,4.2C9.2,4.4,8.3,5.5,8.1,5.6C8,5.4,7.7,5.1,7.5,5C7.3,4.8,5.8,3.2,5.7,3.2
				c-0.2,0-0.2,0.2-0.5,0.4C5.1,3.7,5.1,3.8,5,3.9L4.2,4.8C4.1,4.9,4,4.9,3.9,5L2.7,6.4C2.5,6.6,2.3,6.6,2.4,6.9z"/>
			<path class="st1" d="M5.1,4.8C5.1,5,5.4,5,5.7,5.2C6,5.3,6.1,5.4,6.3,5.6C7,6.1,6.6,6.3,6,6.5C5.3,6.9,3.5,7.2,3.5,8v0.3
				c0,0.3,0.4,0.6,0.7,0.6h4.2c0.1,0,0.3-0.3-0.1-0.3c-0.6,0-2.8,0-3.6,0c-0.2,0-0.5,0-0.7,0C3.7,8.4,3.6,7.9,4,7.7
				c0.7-0.6,3.9-0.9,2.8-2.1C6.7,5.5,6.7,5.5,6.6,5.4C6.5,5.3,6.5,5.3,6.4,5.2C6.3,5.1,5.7,4.8,5.5,4.8c0.1-0.2,0.3-0.2,0.3-0.4
				c0-0.1-0.1-0.2-0.2-0.1c-0.1,0-0.2,0.1-0.2,0.2C5.3,4.5,5.1,4.7,5.1,4.8L5.1,4.8z"/>
			<path class="st1" d="M7.5,1.4c0,0.2-0.5,0.1-0.6,0.1l-0.4,0c-0.3,0-0.5,0-0.8,0V0.6h1.6C7.4,0.6,7.5,1.4,7.5,1.4z M5.5,0.2v2.7
				c0.4,0,0.2,0,0.3,0V1.8h1.8c0.1,0,0.2-0.1,0.2-0.2c0-1.6,0.2-1.3-0.9-1.3l-1,0c0-0.2,0-0.2-0.2-0.3C5.6,0.1,5.5,0.1,5.5,0.2z"/>
		</g>
	</g>
</g>
</svg>
