<?xml version="1.0" encoding="utf-8"?>
<!-- Generator: Adobe Illustrator 24.3.0, SVG Export Plug-In . SVG Version: 6.00 Build 0)  -->
<svg version="1.1" id="Capa_1" xmlns:xodm="http://www.corel.com/coreldraw/odm/2003"
	 xmlns="http://www.w3.org/2000/svg" xmlns:xlink="http://www.w3.org/1999/xlink" x="0px" y="0px" viewBox="0 0 16.2 11.2"
	 style="enable-background:new 0 0 16.2 11.2;" xml:space="preserve">
<style type="text/css">
	.st0{fill-rule:evenodd;clip-rule:evenodd;fill:#630249;}
</style>
<g id="Capa_x0020_1">
	<g id="_1654406413200">
		<polygon class="st0" points="16.2,10.3 0,10.3 0,11.2 16.2,11.2 		"/>
		<g>
			<path class="st0" d="M7.9,9C7.3,9,3.5,9.1,3.2,9C2.8,8.8,2.9,8.4,2.9,8.2v-7c0-0.4,0.1-0.6,0.4-0.7c0.2-0.1,4,0,4.6,0
				c0,0.1,0,1.9,0,2.2C7.9,4.6,7.9,6.9,7.9,9z M8.3,0.4c0.6,0,4.5,0,4.7,0c0.4,0.1,0.4,0.5,0.4,0.8V7c0,0.3,0,1.5-0.1,1.7
				c-0.1,0.1-0.2,0.2-0.3,0.3C12.7,9,8.8,9,8.3,9V0.4z M2.5,0.8v7.8c0,0.3,0.4,0.8,0.8,0.8h9.4c0.5,0,0.9-0.5,0.9-0.8V0.8
				c0-0.3-0.4-0.8-0.8-0.8H3.3C3.1,0,2.9,0.1,2.8,0.3C2.7,0.4,2.5,0.6,2.5,0.8z"/>
			<path class="st0" d="M9.9,1.2c0.1,0.2,0.6,0.6,0.7,0.7C10.5,2.1,10,2.5,9.9,2.6c0.1,0.1,0.2,0.2,0.3,0.2l0.6-0.6
				c0.1-0.1,0-0.1,0.1-0.1c0.1,0.1,0.6,0.6,0.7,0.7l0.2-0.2l-0.7-0.7c0.1-0.2,0.5-0.5,0.7-0.7L11.6,1c-0.2,0.1-0.5,0.6-0.7,0.7
				L10.2,1C10.2,1,9.9,1.2,9.9,1.2z"/>
			<path class="st0" d="M4.7,4.7c0.1,0,2.7,0,2.9,0V4.3l-2.9,0L4.7,4.7z"/>
			<path class="st0" d="M4.7,7.5c0.1,0,2.7,0,2.9,0V7.2l-2.9,0L4.7,7.5z"/>
			<path class="st0" d="M4.7,6.1l2.9,0l0-0.4c-0.2,0-2.8,0-2.9,0C4.7,5.8,4.7,6.1,4.7,6.1z"/>
			<polygon class="st0" points="4.7,5.1 4.7,5.3 4.7,5.4 7.5,5.4 7.5,5 6.9,5 4.9,5 4.7,5 			"/>
			<polygon class="st0" points="10.1,5.8 10.1,6.1 12.8,6.1 12.9,6.1 12.9,5.9 12.9,5.8 10.1,5.8 			"/>
			<polygon class="st0" points="10.1,6.8 12.9,6.8 12.9,6.5 10.1,6.5 			"/>
			<polygon class="st0" points="10.1,5.1 10.1,5.4 10.1,5.4 12.9,5.4 12.9,5.3 12.9,5.3 12.9,5 10.1,5 			"/>
			<polygon class="st0" points="10.1,7.6 12.9,7.6 12.9,7.2 10.1,7.2 			"/>
			<polygon class="st0" points="10.1,4 12.9,4 12.9,3.6 10.1,3.6 			"/>
			<polygon class="st0" points="10.1,4.7 10.1,4.7 12.9,4.7 12.9,4.3 10.1,4.3 			"/>
			<polygon class="st0" points="4.7,6.8 7.5,6.8 7.5,6.5 4.7,6.5 			"/>
			<polygon class="st0" points="4.7,4 7.5,4 7.5,3.6 4.7,3.6 			"/>
			<path class="st0" d="M3.6,5.4h0.4v0.4H3.6C3.6,5.8,3.6,5.4,3.6,5.4z M3.5,6.1h0.6c0.3,0,0.2-0.2,0.2-0.8C4.3,5,4.1,5,3.5,5
				C3.2,5,3.2,5.3,3.2,5.6C3.2,5.9,3.1,6.1,3.5,6.1z"/>
			<path class="st0" d="M9,6.8l0.4,0v0.3H9C9,7.2,9,6.8,9,6.8z M8.8,6.5C8.6,6.5,8.6,6.7,8.6,6.9c0,0.1,0,0.5,0,0.5
				c0,0.2,0.2,0.1,0.4,0.1c0.7,0,0.7,0.1,0.7-0.4c0-0.1,0-0.5,0-0.5c0-0.2-0.2-0.1-0.4-0.1C9.2,6.5,8.8,6.5,8.8,6.5z"/>
			<path class="st0" d="M9,5.4h0.4v0.4H9C9,5.8,9,5.4,9,5.4z M8.9,6.1c0.9,0,0.8,0.1,0.8-0.9C9.7,5,9.4,5,8.8,5
				C8.5,5,8.6,5.3,8.6,5.6C8.6,5.9,8.5,6.1,8.9,6.1z"/>
			<path class="st0" d="M9,4l0.4,0v0.4H9C9,4.3,9,4,9,4z M8.6,3.9c0,0.9-0.1,0.8,0.8,0.8c0.3,0,0.3-0.2,0.3-0.9
				c0-0.3-0.3-0.2-0.8-0.2C8.7,3.6,8.6,3.6,8.6,3.9z"/>
			<path class="st0" d="M3.6,4H4v0.4l-0.4,0V4z M3.3,3.6C3.2,3.7,3.2,3.8,3.2,4c0,0.6-0.1,0.6,0.4,0.6c0.1,0,0.4,0,0.5,0
				c0.1-0.1,0.1-0.3,0.1-0.4c0-0.6,0.1-0.6-0.4-0.6C3.7,3.6,3.4,3.6,3.3,3.6z"/>
			<path class="st0" d="M3.6,6.8H4v0.4l-0.4,0C3.6,7.2,3.6,6.8,3.6,6.8z M3.2,7.4c0,0.2,0.2,0.1,0.4,0.1c0.6,0,0.7,0.1,0.7-0.4
				c0-0.6,0.1-0.7-0.4-0.7c-0.1,0-0.4,0-0.5,0c-0.2,0-0.1,0.2-0.1,0.4C3.2,7,3.2,7.3,3.2,7.4z"/>
			<path class="st0" d="M5.4,2.3L5,1.9C4.9,1.9,4.8,2,4.7,2.1c0,0.1,0.4,0.4,0.5,0.5c0.2,0.2,0.3,0.1,0.6-0.2
				c0.2-0.2,0.3-0.3,0.5-0.5c0.1-0.1,0.4-0.4,0.5-0.5L6.5,1.1C6.4,1.2,6.1,1.6,6,1.7C5.8,1.9,5.6,2.1,5.4,2.3z"/>
		</g>
	</g>
</g>
</svg>
