<?xml version="1.0" encoding="utf-8"?>
<!-- Generator: Adobe Illustrator 24.3.0, SVG Export Plug-In . SVG Version: 6.00 Build 0)  -->
<svg version="1.1" id="Capa_1" xmlns:xodm="http://www.corel.com/coreldraw/odm/2003"
	 xmlns="http://www.w3.org/2000/svg" xmlns:xlink="http://www.w3.org/1999/xlink" x="0px" y="0px" viewBox="0 0 14.6 11.2"
	 style="enable-background:new 0 0 14.6 11.2;" xml:space="preserve">
<style type="text/css">
	.st0{fill-rule:evenodd;clip-rule:evenodd;fill:#A6107E;}
</style>
<g id="Capa_x0020_1">
	<g id="_1654406266944">
		<polygon class="st0" points="14.6,10.4 0,10.4 0,11.2 14.6,11.2 		"/>
		<g>
			<path class="st0" d="M2.6,4.9c0,0.4,0.1,0.7,0.1,1C2.7,6.2,2.8,6.5,3,6.7C3,6.8,3,6.9,3,6.9c0.3,0.5,0.6,0.9,1,1.3
				c0,0,0.1,0.1,0.1,0.1c0.3,0.3,0.6,0.5,1,0.7C5.7,9.3,6.4,9.5,7,9.5c0.6,0,0.9,0,1.4-0.2C9,9.2,9.5,8.9,10,8.6
				c0.2-0.1,0.3-0.2,0.5-0.4l0.2-0.2c0.3-0.3,0.4-0.4,0.6-0.8c0.1-0.2,0.2-0.4,0.3-0.6c0.4-1.1,0.5-1.9,0.3-3c0-0.2-0.1-0.3-0.1-0.4
				L11.5,3c-0.1-0.2-0.1,0-0.3,0.1c-0.3,0.3-0.2,0.2-0.1,0.5c0.2,0.7,0.2,1.5,0.1,2.2c-0.1,0.4-0.2,0.7-0.4,1l-0.2,0.3
				c-0.1,0.1-0.1,0.2-0.2,0.3C9.5,8.4,8.4,8.9,7.2,8.9c-0.7,0-1.3-0.2-1.8-0.4c-0.1,0-0.1-0.1-0.2-0.1C5,8.3,4.8,8.2,4.7,8L4.5,7.9
				C4.2,7.6,3.9,7.2,3.7,6.8C3.4,6.3,3.2,5.7,3.2,5.1c0-0.8,0.1-1.2,0.4-1.9C3.6,3,3.7,2.8,3.9,2.6C4,2.4,4.2,2.2,4.4,2l0.5-0.4
				c0.6-0.4,1.4-0.7,2.2-0.7c1.2,0,1.4,0.3,1.7,0.3c0,0,0.2-0.2,0.2-0.2C9,0.8,9.1,0.8,9.2,0.7C9.1,0.5,8.5,0.4,8.3,0.3
				c-1-0.2-2.1-0.1-3,0.3C4.8,0.8,4.4,1.1,4,1.5c0,0,0,0,0,0c0,0,0,0,0,0L3.5,2L3.3,2.4C3,2.8,2.9,3.2,2.7,3.6
				C2.6,4,2.6,4.4,2.6,4.9L2.6,4.9z"/>
			<path class="st0" d="M3.8,4.9c0,0.5,0.1,1,0.3,1.4l0.2,0.4C4.5,7,4.7,7.3,5,7.5c0.3,0.2,0.2,0.2,0.5,0.3C6.2,8.2,7.2,8.4,8,8.2
				C8.5,8.1,8.6,8,8.9,7.8C9,7.8,9,7.8,9.1,7.7c0.2-0.1,0.4-0.3,0.6-0.5c0.6-0.6,1-1.5,1-2.4c0-0.4-0.1-0.7-0.2-1
				c0-0.1,0-0.1-0.1-0.2c-0.1-0.3-0.2-0.2-0.5-0.3c-0.5-0.1-0.2,0,0,0.5c0.3,0.7,0.2,1.4-0.1,2.1C9.7,6.2,9.5,6.5,9.4,6.6
				C9.2,6.9,8.8,7.3,8.4,7.4c-0.6,0.3-1.3,0.4-2,0.2C6,7.4,5.6,7.2,5.2,6.8C5,6.6,4.8,6.3,4.6,6C4.6,5.9,4.5,5.7,4.5,5.5
				C4.3,4.7,4.5,3.8,5,3.1c0.2-0.3,0.5-0.5,0.7-0.6C6.6,2,7.5,1.9,8.4,2.3c0.5,0.2,0.5,0.3,0.3-0.4c0-0.1,0-0.1-0.1-0.2
				c-0.2-0.1-0.7-0.2-1-0.2C6.9,1.4,6.3,1.5,5.8,1.7C5.6,1.8,5.2,2,5,2.2L4.7,2.5C4.5,2.8,4.4,2.9,4.2,3.2L4.1,3.4
				C3.9,3.8,3.8,4.3,3.8,4.9L3.8,4.9z"/>
			<path class="st0" d="M9.1,2.5c0,0-1.5,1.5-1.7,1.7C7.4,4.3,7.3,4.3,7.3,4.3L7.1,4.5C7.1,4.6,7,4.6,7,4.7C6.8,4.9,7,5.2,7.2,5.2
				c0.1,0,0.2,0,0.3-0.1l0,0c0,0,0,0,0,0c0.3-0.3,2-2,2.1-2l0.5,0.1c0.7,0.2,0.5,0.2,0.9-0.2l0.7-0.7c0.1-0.1,0.3-0.3,0.4-0.4
				l-0.3-0.1c-0.2,0-1-0.3-1-0.3c-0.1-0.1-0.3-0.8-0.3-1c0-0.1-0.1-0.3-0.1-0.4c-0.1,0-0.2,0.1-0.3,0.2L9,1.3C8.8,1.5,8.8,1.4,9,1.9
				C9,2,9.1,2.4,9.1,2.5L9.1,2.5z"/>
			<path class="st0" d="M7.2,7.1c0.4,0,0.7-0.1,1-0.2c0.1,0,0.1-0.1,0.2-0.1C8.6,6.6,8.8,6.4,9,6.1c0.5-0.6,0.5-1.5,0.2-2.2
				c0,0,0-0.1-0.1-0.1c0,0-0.4,0.4-0.4,0.5c0,0.1,0,0.2,0.1,0.3C8.9,5.1,8.7,5.6,8.3,6c0,0-0.1,0-0.1,0.1C8,6.2,8,6.2,7.8,6.3
				c-0.1,0-0.2,0.1-0.3,0.1C7,6.5,6.5,6.4,6.1,6c0,0,0,0,0,0C5.2,5.1,5.6,3.6,6.8,3.3c0.5-0.1,0.9,0.1,1,0.1c0,0,0.4-0.4,0.4-0.5
				C7.8,2.7,7.6,2.7,7.1,2.7c-1,0-1.9,0.8-2,1.7l0,0.7c0,0.2,0.1,0.5,0.2,0.6C5.3,5.9,5.3,6,5.4,6.1c0,0.1,0.1,0.1,0.1,0.2
				c0,0.1,0.1,0.1,0.1,0.2C6,6.8,6.6,7.1,7.2,7.1L7.2,7.1z"/>
			<path class="st0" d="M6.2,4.8c0,0.9,1.1,1.3,1.7,0.7c0.2-0.2,0.4-0.7,0.3-0.9c-0.1,0,0,0-0.1,0L8,4.7c0,0,0,0,0,0L7.5,5.2
				c-0.4,0.4-1-0.1-0.7-0.6l0.4-0.4C7.3,4.1,7.4,4,7.5,3.9c-0.2,0-0.6-0.1-0.9,0.2C6.5,4.2,6.4,4.4,6.3,4.4C6.3,4.5,6.2,4.7,6.2,4.8
				z"/>
		</g>
	</g>
</g>
</svg>
