<?xml version="1.0" encoding="UTF-8"?>
<!DOCTYPE svg PUBLIC "-//W3C//DTD SVG 1.1//EN" "http://www.w3.org/Graphics/SVG/1.1/DTD/svg11.dtd">
<!-- Creator: CorelDRAW 2021 (64-Bit) -->
<svg xmlns="http://www.w3.org/2000/svg" xml:space="preserve" width="205px" height="167px" version="1.1" style="shape-rendering:geometricPrecision; text-rendering:geometricPrecision; image-rendering:optimizeQuality; fill-rule:evenodd; clip-rule:evenodd"
viewBox="0 0 63.48 51.73"
 xmlns:xlink="http://www.w3.org/1999/xlink"
 xmlns:xodm="http://www.corel.com/coreldraw/odm/2003">
 <defs>
  <style type="text/css">
   <![CDATA[
    .fil0 {fill:#A160DE}
    .fil1 {fill:#A160DE}
   ]]>
  </style>
 </defs>
 <g id="Capa_x0020_1">
  <metadata id="CorelCorpID_0Corel-Layer"/>
  <g id="_1654727221984">
   <polygon class="fil0" points="63.48,48.33 0,48.33 0,51.73 63.48,51.73 "/>
   <g>
    <path class="fil1" d="M19.36 1.09c0.11,-0.07 0.06,-0.06 0.27,-0.11l1.68 -0.02c4.88,0 28.55,-0.12 29.08,0.08 0.16,1.43 0.02,3.78 0.02,5.3 0,5.57 0.12,36.57 -0.07,36.94l-31.9 0.02c0.13,-0.48 0.56,-0.48 0.89,-1.78 0.25,-0.94 0.1,-27.03 0.1,-29.63 0,-1.43 0.1,-10.18 -0.07,-10.8zm-6.17 40.13l5.15 0c-0.35,0.65 -0.32,0.96 -0.92,1.46 -1.09,0.92 -2.7,0.77 -3.63,-0.28 -0.47,-0.52 -0.44,-0.84 -0.6,-1.18zm5.15 -40.72l0 39.63c-1.28,0 -5.16,-0.13 -6.15,0.1 -0.65,1.36 0.91,4.16 3.57,4.16l34.98 0c0.34,0 0.69,-0.17 0.69,-0.49l0 -43.4c0,-0.24 -0.26,-0.5 -0.49,-0.5l-32.11 0c-0.23,0 -0.49,0.26 -0.49,0.5z"/>
    <path class="fil1" d="M23 4.48l23.78 -0.02 0.13 0.49c0.01,0.16 -0.01,0.42 -0.01,0.6 -0.03,4.97 0.15,33.66 -0.07,34.35l-23.87 -0.03c-0.24,-0.87 -0.06,-7.41 -0.06,-8.85 0,-3.6 -0.13,-26.19 0.1,-26.54zm-1.09 -0.62l0 36.47c0,0.27 0.04,0.27 0.09,0.5 0.31,0.02 0.36,0.1 0.7,0.1l24.57 0c0.31,0 0.6,-0.1 0.6,-0.4l0 -36.67c0,-0.32 -0.36,-0.49 -0.7,-0.49l-24.57 0c-0.34,0 -0.69,0.17 -0.69,0.49z"/>
    <path class="fil1" d="M37.26 10.6c0.98,-0.23 1.92,-1.48 2.5,-2.26 0.25,-0.35 0.34,-0.69 0.77,-0.81 0.09,0.31 0.42,0.64 0.6,0.89 0.49,0.7 1.57,2.11 2.48,2.18 0,1.72 -0.68,3.88 -1.81,4.94 -1.3,1.23 -1.67,1 -2.7,0.07 -0.37,-0.34 -0.74,-0.84 -0.99,-1.29 -0.66,-1.2 -0.85,-2.29 -0.85,-3.72zm-1.09 -0.49c0,1.94 -0.09,1.7 0.5,3.67 0.37,1.25 1.29,2.31 2.26,3.08 0.29,0.22 0.53,0.34 0.88,0.52 0.62,0.32 0.6,0.32 1.37,-0.09 3.43,-1.84 3.86,-6.68 3.36,-7.33 -0.17,-0.22 0.01,-0.07 -0.28,-0.21 -0.87,-0.43 -0.92,-0.34 -1.81,-1.36l-0.18 -0.22c-0.95,-1.17 -1.6,-2.93 -3.05,-0.96 -0.31,0.4 -0.53,0.73 -0.84,1.14 -0.34,0.47 -0.57,0.65 -1.02,0.97 -0.2,0.14 -0.35,0.24 -0.63,0.35 -0.29,0.11 -0.56,0.11 -0.56,0.44z"/>
    <path class="fil1" d="M35.68 34.68c0.62,-0.14 0.56,-0.35 1.29,0 -0.04,0.46 -0.34,0.74 -0.6,0.99 -0.35,-0.24 -0.62,-0.46 -0.69,-0.99zm-1.09 0.1c0,0.89 0.61,1.15 0.89,1.69 -0.51,0.26 -1.39,0.65 -1.39,1.19 0,0.24 0.23,0.49 0.6,0.49 0.27,0 1.4,-0.84 1.68,-1.09 1.99,1.05 1.37,1.26 2.82,-0.55 0.23,-0.28 0.26,-0.2 0.35,-0.54 0.37,0.27 0.26,0.87 0.63,1.15 0.39,0.3 1.11,0.06 1.55,0.04 0.92,-0.05 2.98,0.37 2.98,-0.59 0,-0.24 -0.27,-0.5 -0.5,-0.5 -0.97,0 -2.37,-0.11 -3.27,0.1 -0.39,-0.73 -0.66,-2.86 -1.73,-1.43 -0.26,0.34 -1.26,1.52 -1.34,1.83 -0.51,-0.05 -0.14,-0.08 -0.6,-0.2 0.51,-0.75 0.8,-0.84 0.8,-1.79 0,-1.54 -3.47,-1.53 -3.47,0.2z"/>
    <path class="fil1" d="M25.08 27.15c0,0.49 0.4,0.7 0.59,0.7l18.33 0c0.97,0 0.8,-1.09 0.2,-1.09l-18.63 0c-0.2,0 -0.49,0.28 -0.49,0.39z"/>
    <path class="fil1" d="M25.08 30.62c0.06,0.28 0.15,0.59 0.49,0.59l18.63 0c0.34,0 0.43,-0.31 0.5,-0.59 -0.19,-0.27 -0.23,-0.5 -0.7,-0.5l-18.23 0c-0.47,0 -0.51,0.23 -0.69,0.5z"/>
    <path class="fil1" d="M25.08 23.88c0,0.23 0.26,0.5 0.49,0.5l18.63 0c0.15,0 0.73,-0.27 0.38,-0.78 -0.21,-0.31 -0.57,-0.31 -0.97,-0.31l-17.54 0c-0.45,0 -0.99,0.18 -0.99,0.59z"/>
    <path class="fil1" d="M30.63 20.31c0,0.47 0.23,0.7 0.69,0.7l12.68 0c0.97,0 0.76,-1.09 0.2,-1.09l-13.08 0c-0.2,0 -0.49,0.29 -0.49,0.39z"/>
    <path class="fil1" d="M26.17 18.73c0,-1.38 2.37,-1.77 2.37,0.1 0,1.48 -2.37,1.4 -2.37,-0.1zm-1.09 0c0,2.89 4.55,3.11 4.55,0 0,-0.68 -0.29,-1.27 -0.66,-1.62 -0.93,-0.85 -2.23,-0.89 -3.18,0.06 -0.28,0.28 -0.29,0.22 -0.46,0.62 -0.14,0.31 -0.25,0.55 -0.25,0.94z"/>
    <path class="fil1" d="M46.78 4.46l0 35.38 -23.78 0 0 -35.36c-0.23,0.35 -0.1,22.94 -0.1,26.54 0,1.44 -0.18,7.98 0.06,8.85l23.87 0.03c0.22,-0.69 0.04,-29.38 0.07,-34.35 0,-0.18 0.02,-0.44 0.01,-0.6l-0.13 -0.49z"/>
    <path class="fil1" d="M25.08 13.67c0,0.24 0.26,0.5 0.49,0.5l8.52 0c0.62,0 0.35,-0.8 0.3,-0.99 -1.01,-0.24 -7.1,-0.1 -8.62,-0.1 -0.49,0 -0.69,0.41 -0.69,0.59z"/>
    <path class="fil1" d="M25.77 10.8l8.13 0c0.89,0 0.69,-1.09 0.19,-1.09l-8.52 0c-0.56,0 -0.77,1.09 0.2,1.09z"/>
    <path class="fil1" d="M25.08 6.84c0,0.23 0.26,0.49 0.49,0.49l8.52 0c0.55,0 0.55,-0.99 0,-0.99l-8.52 0c-0.23,0 -0.49,0.27 -0.49,0.5z"/>
    <path class="fil1" d="M50.34 43.28c0.19,-0.37 0.07,-31.37 0.07,-36.94 0,-1.52 0.14,-3.87 -0.02,-5.3 -0.53,-0.2 -24.2,-0.08 -29.08,-0.08l-1.68 0.02c-0.21,0.05 -0.16,0.04 -0.27,0.11l31.98 0 -1 0 0 42.19z"/>
    <path class="fil1" d="M25.08 34.09c0,0.23 0.26,0.49 0.49,0.49l6.84 0c0.65,0 0.7,-1.09 -0.3,-1.09l-6.24 0c-0.36,0 -0.79,0.28 -0.79,0.6z"/>
    <path class="fil1" d="M25.97 38.05l6.04 0c0.87,0 0.94,-0.52 0.81,-0.79 -0.07,-0.16 -0.2,-0.3 -0.41,-0.3l-6.84 0c-0.49,0 -0.92,1.09 0.4,1.09z"/>
    <path class="fil1" d="M30.63 16.94c0,0.47 0.23,0.7 0.69,0.7 0.79,0 4.45,0.11 4.84,-0.12 0.15,-0.08 0.04,0.06 0.2,-0.19 0.15,-0.24 0.11,0.1 0.11,-0.29 0,-0.23 -0.16,-0.29 -0.3,-0.49l-5.35 0c-0.09,0.34 -0.19,0.26 -0.19,0.39z"/>
    <path class="fil1" d="M39.84 13.08c-0.45,-0.3 -0.3,-0.5 -0.89,-0.5 -0.41,0 -0.4,0.37 -0.4,0.6 0,0.32 0.89,1.08 1.29,1.29 0.45,-0.24 2.54,-2.25 2.62,-2.63 0.02,-0.12 -0.06,-1.29 -1.26,-0.07 -0.39,0.4 -0.93,1.03 -1.36,1.31z"/>
   </g>
  </g>
 </g>
</svg>
