<?xml version="1.0" encoding="utf-8"?>
<!-- Generator: Adobe Illustrator 24.3.0, SVG Export Plug-In . SVG Version: 6.00 Build 0)  -->
<svg version="1.1" id="Capa_1" xmlns:xodm="http://www.corel.com/coreldraw/odm/2003"
	 xmlns="http://www.w3.org/2000/svg" xmlns:xlink="http://www.w3.org/1999/xlink" x="0px" y="0px" viewBox="0 0 14.5 11.2"
	 style="enable-background:new 0 0 14.5 11.2;" xml:space="preserve">
<style type="text/css">
	.st0{fill-rule:evenodd;clip-rule:evenodd;fill:#8F076B;}
</style>
<g id="Capa_x0020_1">
	<g id="_1654907945920">
		<polygon class="st0" points="14.6,10.4 0.1,10.4 0.1,11.2 14.6,11.2 		"/>
		<g>
			<path class="st0" d="M7.5,5.7V5.1C7.7,5,7.9,5,8.1,4.9c0.3-0.1,0.4-0.2,0.7-0.4c0,0,0,0,0,0l0,0c0.2-0.2,0.5-0.6,0.5-0.9
				c0-0.1,0.1-0.3,0.1-0.4H10c0,0.6-0.3,1.2-0.7,1.6c-0.1,0.1,0,0-0.2,0.2C9,5.1,9,5.1,8.7,5.3C8.4,5.5,8,5.7,7.5,5.7z M4.7,3.2h0.6
				c0.1,0.4,0.1,0.6,0.4,1C5.8,4.4,6,4.5,6.2,4.7C6.3,4.8,6.6,4.9,6.8,5c0.1,0,0.3,0,0.4,0.1v0.6C6.7,5.7,6,5.4,5.6,5.1L5.4,4.8
				C5.2,4.6,5.1,4.4,4.9,4.2C4.8,3.9,4.7,3.5,4.7,3.2z M5.6,3c0-0.1,0-0.3,0-0.4c0.2-0.8,0.9-1.4,1.7-1.4c0.2,0,0.5,0.1,0.7,0.2
				c0.5,0.2,0.9,0.6,1,1.2c0.1,0.5,0,1-0.3,1.4c0,0-0.1,0.1-0.1,0.1L8.5,4.3C8.4,4.4,8.2,4.5,8.1,4.6C7.3,4.9,6.4,4.7,5.9,4
				C5.8,3.7,5.6,3.3,5.6,3L5.6,3z M7.5,0.9V0.3c0.6,0,1.3,0.3,1.7,0.8C9.7,1.5,10,2.2,10,2.8H9.4c0-0.1,0-0.3-0.1-0.4
				C9.3,2.2,9.2,2,9,1.8C8.8,1.5,8.6,1.3,8.3,1.1C8.2,1.1,8,1,7.9,1C7.6,0.9,7.5,1,7.5,0.9z M5.3,2.8H4.7c0-0.6,0.3-1.3,0.8-1.7
				c0.4-0.4,1.1-0.8,1.7-0.8c0,1,0.1,0.4-0.7,0.8C6.3,1.2,6.1,1.4,5.9,1.5C5.4,2,5.4,2.3,5.3,2.8z M4.3,3c0,2.7,3.2,4.1,5.2,2.2
				c0.2-0.2,0.5-0.6,0.6-0.9c0.1-0.2,0.1-0.3,0.2-0.6c0.2-0.8,0-1.7-0.5-2.4C9.3,0.5,8.4,0,7.3,0C5.7,0,4.3,1.3,4.3,3z"/>
			<path class="st0" d="M4.1,8.2h1.7v0.9H4.1C4.1,9.2,4.1,8.2,4.1,8.2z M2.9,4.9c0-0.2,0.2-0.2,0.3,0c0,0.1,0,0.2,0,0.2
				c0.1,0.3,0,0.3,0.2,0.7c0.2,0.5,0.6,1,1,1.3c0.1,0,0.3,0.2,0.4,0.2c0.4,0,0-0.6-0.1-0.8C4.6,6.4,4.6,6.3,4.6,6.2
				c0-0.1-0.1-0.3,0.1-0.3c0.1,0,0.2,0.3,0.3,0.4C5,6.4,5,6.4,5.1,6.5c0.1,0.1,0.2,0.2,0.2,0.3c0,0.1,0.1,0.1,0.1,0.2
				c0.2,0.3,0.1,0.5,0.1,0.9H4.3C4.1,7.9,3.6,7.2,3.5,7C3.3,6.7,3.1,6.3,3.1,5.9C3,5.7,3,5.6,3,5.4C3,5.2,2.9,5.1,2.9,4.9z M3.8,7.9
				c0,0,0,0.1,0,0.1v1.3c0,0.1,0.1,0.1,0.2,0.1h2c0.1,0,0.2-0.1,0.2-0.2V8.1C6.1,8,6,7.9,5.9,7.9c0-0.3,0-0.6-0.1-0.8
				C5.8,6.8,5.6,6.5,5.3,6.3C5.2,6.2,5.2,6.1,5.2,6c0-0.1-0.1-0.2-0.2-0.3c0,0,0,0,0,0L4.9,5.6C4.6,5.4,4.2,5.6,4.2,6
				c0,0.1,0.1,0.4,0.1,0.6c-0.3-0.2-0.5-0.8-0.6-1C3.6,5,3.7,4.4,3.1,4.4c-0.2,0-0.3,0.1-0.4,0.2C2.6,4.9,2.6,5,2.6,5.2
				c0.1,0.8,0.2,1.3,0.6,2C3.4,7.4,3.6,7.8,3.8,7.9z"/>
			<path class="st0" d="M8.9,8.2h1.7v0.9H8.9V8.2z M10.5,7.9H9.1c0-0.4,0-0.6,0.1-0.9c0-0.1,0.1-0.1,0.1-0.2c0-0.1,0.1-0.1,0.1-0.2
				c0.1-0.1,0.1-0.1,0.2-0.2c0.1-0.1,0.3-0.6,0.4-0.6c0.1,0,0.1,0.2,0.1,0.3c0,0.1,0,0.2-0.1,0.4C9.9,6.7,9.6,7.3,9.9,7.3
				c0.2,0,0.6-0.3,0.7-0.4c0.5-0.5,0.7-1,0.9-1.7c0-0.1,0-0.2,0-0.2c0.1-0.2,0.3-0.1,0.3,0c0,0.2-0.1,0.8-0.1,1
				c-0.1,0.3-0.1,0.6-0.3,0.8c-0.2,0.4-0.4,0.7-0.6,1C10.7,7.7,10.5,7.9,10.5,7.9L10.5,7.9z M10.4,6.5c0-0.2,0.1-0.4,0.1-0.6
				c0-0.3-0.5-0.5-0.8-0.2C9.6,5.8,9.5,6.2,9.4,6.3C9.3,6.3,9.3,6.4,9.2,6.5C8.8,7,8.8,7.3,8.8,7.9C8.7,7.9,8.6,8,8.6,8.1v1.3
				c0,0.1,0.1,0.2,0.2,0.2h2c0.1,0,0.2-0.1,0.2-0.1V8.1c0-0.1,0-0.1,0-0.1c0.1-0.1,0.2-0.2,0.3-0.3c0.4-0.5,0.7-1.1,0.8-1.8
				c0-0.1,0-0.2,0-0.3c0-0.3,0.1-0.6,0-0.8c-0.2-0.4-0.8-0.3-0.9,0.1C11.1,5,11.1,5.2,11,5.5c-0.1,0.2-0.1,0.4-0.2,0.6
				C10.7,6.2,10.5,6.5,10.4,6.5z"/>
			<path class="st0" d="M6.4,3c0-0.1,0-0.3,0.1-0.4c0-0.1,0.1-0.2,0.2-0.3C7.6,1.5,8.9,2.8,8,3.7C7.4,4.3,6.5,3.8,6.4,3
				C6.4,3.1,6.4,3,6.4,3z M6.1,3c0,0.7,0.6,1.3,1.3,1.3c1.2,0,1.8-1.5,0.7-2.3C7.7,1.7,7.3,1.7,6.8,1.8C6.4,2,6.1,2.5,6.1,3z"/>
			<path class="st0" d="M7.3,2.9L7.3,2.9c0.2,0,0.2,0.3,0.1,0.3C7.2,3.2,7.2,2.9,7.3,2.9z M6.9,3c0,0.3,0.2,0.5,0.5,0.5
				c0.2,0,0.5-0.2,0.5-0.5c0-0.2-0.2-0.5-0.5-0.5S6.9,2.7,6.9,3z"/>
		</g>
	</g>
</g>
</svg>
