<?xml version="1.0" encoding="UTF-8"?>
<!DOCTYPE svg PUBLIC "-//W3C//DTD SVG 1.1//EN" "http://www.w3.org/Graphics/SVG/1.1/DTD/svg11.dtd">
<!-- Creator: CorelDRAW 2021 (64-Bit) -->
<svg xmlns="http://www.w3.org/2000/svg" xml:space="preserve" width="205px" height="167px" version="1.1" style="shape-rendering:geometricPrecision; text-rendering:geometricPrecision; image-rendering:optimizeQuality; fill-rule:evenodd; clip-rule:evenodd"
viewBox="0 0 28.36 23.09"
 xmlns:xlink="http://www.w3.org/1999/xlink"
 xmlns:xodm="http://www.corel.com/coreldraw/odm/2003">
 <defs>
  <style type="text/css">
   <![CDATA[
    .str0 {stroke:#BA7EF2;stroke-width:0.12;stroke-miterlimit:22.9256}
    .fil0 {fill:#BA7EF2}
    .fil1 {fill:#BA7EF2}
   ]]>
  </style>
 </defs>
 <g id="Capa_x0020_1">
  <metadata id="CorelCorpID_0Corel-Layer"/>
  <g id="_1654868828944">
   <polygon class="fil0" points="28.36,21.57 0,21.57 0,23.09 28.36,23.09 "/>
   <g>
    <path class="fil1 str0" d="M18.16 7.58l-0.65 0 0 -2.27c0,-0.19 -0.19,-0.13 -0.62,-0.13 -0.1,0 -0.13,0.03 -0.13,0.13l0 2.27 -0.65 0 0 -1.71 -0.7 0 0 1.71 -0.66 0 0 -2.4 -0.69 0 0 2.4 -0.66 0 0 -2.62c0,-0.2 -0.22,-0.13 -0.7,-0.13l0 2.75 -0.65 0 0 -1.36 -0.75 0 0 1.36 -0.65 0 0 0.7 8.86 0 0 -0.7 -0.65 0 0 -3.76 -0.7 0 0 3.76z"/>
    <path class="fil1 str0" d="M5.54 12.69l0 5.54c0,0.5 -0.01,0.64 0.17,0.96 0.31,0.53 0.7,0.71 1.53,0.7 0.7,0 6.28,0.05 6.67,-0.01 0.29,-0.05 0.6,-0.21 0.77,-0.37 0.16,-0.15 0.36,-0.46 0.39,-0.75 0.05,-0.52 0.03,-3.84 0.01,-4.76 0,-0.12 0,-0.24 0,-0.35l-0.06 -0.28c-0.14,0.06 -0.08,0.07 -0.16,0.21 -0.03,-0.16 -0.01,-0.01 -0.04,-0.17l-0.19 0.11c0,-0.01 -0.02,0.01 -0.03,0.02 -0.03,-0.21 -0.06,-0.14 -0.16,-0.17 -0.02,0.91 -0.03,1.81 -0.03,2.72 0,0.42 0.08,2.41 -0.05,2.57 -0.14,0.64 -0.78,0.49 -1.27,0.49l-6.11 0c-0.99,0.01 -0.74,-0.91 -0.74,-1.88 0,-1.18 0,-2.36 0,-3.54 -0.14,-0.23 -0.01,-1.11 -0.14,-1.39 -0.07,-0.03 0.03,0 -0.06,0.01 -0.06,0.01 0.02,0 -0.1,0.01 -0.69,0.05 -0.18,-0.01 -0.4,0.33z"/>
    <path class="fil1 str0" d="M10.99 1.28l0.01 0.84 -0.83 0 0.82 -0.84zm-2.04 1.95l0.02 0.39c0.11,0 0.09,-0.02 0.17,0.05 0.01,0.01 0.01,0.02 0.02,0.03 0.01,0.01 0.02,0.02 0.02,0.03l0.05 0.07c0.08,-0.17 0.05,-0.14 0.21,-0.22l0.01 -0.35c0.07,0.13 0.05,0.41 0.05,0.61 0.09,-0.1 0.01,0.02 0.06,-0.11 0.13,-0.36 -0.02,-0.72 0.08,-0.91 2.4,-0.15 2.06,0.63 2.06,-2.06l8.82 0 0 3.54c0.13,0.07 0.07,0.13 0.2,0.1 0,0 0.01,-0.01 0.01,-0.01 0.04,0.09 0.04,0.09 0.05,0.22 0.3,-0.1 -0.24,0.13 0.08,-0.05 0.06,-0.03 0.31,-0.02 0.35,-0.48l0.04 -3.71c-0.13,-0.35 -0.26,-0.31 -0.69,-0.3l-8.86 0c-0.5,-0.01 -0.47,-0.05 -0.73,0.22l-1.49 1.49c-0.6,0.6 -0.53,0.33 -0.53,1.45z"/>
    <path class="fil1 str0" d="M5.54 12.69c0.22,-0.34 -0.29,-0.28 0.4,-0.33 0.12,-0.01 0.04,0 0.1,-0.01 0.09,-0.01 -0.01,-0.04 0.06,-0.01 0.13,0.28 0,1.16 0.14,1.39 0,-0.45 -0.07,-1.99 0.03,-2.27 0.12,-0.33 0.36,-0.44 0.71,-0.43l6.94 0.01c0.15,0.03 0.3,0.17 0.39,0.31l0.1 0.38c0.04,1.2 -0.01,3.31 -0.01,4.63 0,0.6 0.08,1.83 -0.04,2.3 0.13,-0.16 0.05,-2.15 0.05,-2.57 0,-0.91 0.01,-1.81 0.03,-2.72 0.1,0.03 0.13,-0.04 0.16,0.17 0.01,-0.01 0.03,-0.03 0.03,-0.02l0.19 -0.11c0.03,0.16 0.01,0.01 0.04,0.17 0.08,-0.14 0.02,-0.15 0.16,-0.21l0.06 0.28c0,0.11 0,0.23 0,0.35 0.02,0.92 0.04,4.24 -0.01,4.76 0.1,-0.21 0.03,-4.43 0.03,-5.07 0,-0.65 0.09,-1.96 -0.07,-2.45 -0.23,-0.76 -0.87,-0.96 -1.63,-0.95 -1.7,0 -3.41,0 -5.11,0 -0.92,0 -1.74,-0.13 -2.26,0.31 -0.61,0.52 -0.49,1.04 -0.49,2.09z"/>
    <path class="fil1 str0" d="M21.92 12.7l0 5.1 -6.16 0 0 0.7c2.11,0 4.22,-0.02 6.33,0 0.27,0 0.48,-0.02 0.52,-0.27 0.03,-0.15 0.01,-0.6 0.01,-0.78l0 -4.79c-0.04,-0.05 -0.03,-0.02 -0.05,-0.11l-0.01 -0.25c-0.01,-0.14 -0.01,-0.27 -0.01,-0.4 0,-0.24 -0.01,-0.47 -0.01,-0.71 0,0.01 0.18,0.64 -0.27,0.55 -0.25,-0.05 0.04,0.02 -0.16,-0.08l0 0.3c-0.12,-0.04 -0.15,0.12 -0.12,-0.34 -0.01,0.21 0.02,0.94 -0.07,1.08z"/>
    <path class="fil1 str0" d="M15.79 4.34c-0.5,-0.33 -1.63,-1.87 -2.08,-1.87 -0.24,0 -0.56,0.4 -0.8,0.64l-2.17 2.2 0.49 0.47 2.47 -2.45c0.22,0.12 1.25,1.15 1.5,1.44 0.69,0.79 0.61,0.55 2.25,-1.09l1.63 -1.65 -0.47 -0.49 -2.82 2.8z"/>
    <path class="fil1 str0" d="M20.52 16.4c-0.05,0.03 0,0.02 -0.1,0.04l-4.66 0 0 0.7 5.07 0.01c0.28,-0.01 0.36,-0.1 0.41,-0.36 -0.01,-0.91 0.02,-2.34 -0.02,-3.23 -0.04,-0.74 -0.07,-0.45 -0.22,-0.74 -0.21,0.09 -0.27,-0.06 -0.39,0.16l-0.05 -0.03c0,0.06 0,0.15 0,0.22l-0.03 3.2c0,0 0,0.02 -0.01,0.03z"/>
    <path class="fil1 str0" d="M8.95 3.23l0 6.4 0.69 0 0 -6.81c-0.1,0.19 0.05,0.55 -0.08,0.91 -0.05,0.13 0.03,0.01 -0.06,0.11 0,-0.2 0.02,-0.48 -0.05,-0.61l-0.01 0.35c-0.16,0.08 -0.13,0.05 -0.21,0.22l-0.05 -0.07c0,-0.01 -0.01,-0.02 -0.02,-0.03 -0.01,-0.01 -0.01,-0.02 -0.02,-0.03 -0.08,-0.07 -0.06,-0.05 -0.17,-0.05l-0.02 -0.39z"/>
    <path class="fil1 str0" d="M21.92 4.31l0 4.88c0.09,0.14 0.08,0.39 0.11,0.51l0.18 -0.48c0,-0.01 0.01,-0.02 0.01,-0.03 0.01,0.01 0.02,0.01 0.02,0.03l0.08 0.23 0.1 -0.19c0.06,0.23 -0.01,0.16 0.06,0.28 0.06,-0.11 0.04,-0.2 0.04,-0.35l0.1 0.04 0 -7.02c0,-0.14 0.02,-0.33 -0.04,-0.44 0.08,0.47 0,1.33 0,1.85 -0.14,-0.05 -0.11,0.12 -0.12,-0.17l0 0.35c-0.13,-0.04 -0.09,0.03 -0.13,-0.09 -0.02,0.14 -0.02,0.12 -0.07,0.16 0,0 -0.02,0 -0.02,0.01 -0.25,0.13 0.18,-0.18 -0.05,0.02 -0.25,0.2 -0.07,0.3 -0.27,0.41z"/>
    <path class="fil1 str0" d="M20.52 4.3l0 3.52 0.02 0.23c0,0.1 -0.01,0.26 0.02,0.35l0.12 0.41c0.05,0.14 0.01,0.05 0.06,0.13 0.05,-0.09 0.08,-0.27 0.09,-0.39 0.07,0.16 -0.02,0.28 0.08,0.47l0.09 -0.26c0.08,0.15 0,0.34 0.09,0.48 0.12,-0.1 0.09,-0.08 0.09,-0.3 0,-0.15 0,-0.29 0.01,-0.43 0.05,0.13 0.01,0.32 0.02,0.47l0.05 0.17 -0.01 -8.78 -0.04 3.71c-0.04,0.46 -0.29,0.45 -0.35,0.48 -0.32,0.18 0.22,-0.05 -0.08,0.05 -0.01,-0.13 -0.01,-0.13 -0.05,-0.22 0,0 -0.01,0.01 -0.01,0.01 -0.13,0.03 -0.07,-0.03 -0.2,-0.1z"/>
    <path class="fil1 str0" d="M20.52 16.4c0.01,-0.01 0.01,-0.03 0.01,-0.03l0.03 -3.2c0,-0.07 0,-0.16 0,-0.22l0.05 0.03c0.12,-0.22 0.18,-0.07 0.39,-0.16 0.15,0.29 0.18,0 0.22,0.74 0.04,0.89 0.01,2.32 0.02,3.23 0.08,-0.22 0.02,-6.77 0.02,-7.64l-0.05 -0.17c-0.01,-0.15 0.03,-0.34 -0.02,-0.47 -0.01,0.14 -0.01,0.28 -0.01,0.43 0,0.22 0.03,0.2 -0.09,0.3 -0.09,-0.14 -0.01,-0.33 -0.09,-0.48l-0.09 0.26c-0.1,-0.19 -0.01,-0.31 -0.08,-0.47 -0.01,0.12 -0.04,0.3 -0.09,0.39 -0.05,-0.08 -0.01,0.01 -0.06,-0.13l-0.12 -0.41c-0.03,-0.09 -0.02,-0.25 -0.02,-0.35l-0.02 -0.23 0 8.58z"/>
    <polygon class="fil1 str0" points="15.76,12.73 19.51,12.73 19.51,11.99 15.76,11.99 "/>
    <polygon class="fil1 str0" points="15.76,11.33 19.51,11.33 19.51,10.64 15.76,10.64 "/>
    <polygon class="fil1 str0" points="15.76,14.09 19.51,14.09 19.51,13.39 15.76,13.39 "/>
    <polygon class="fil1 str0" points="15.76,15.44 18.86,15.44 18.86,14.74 15.76,14.74 "/>
    <path class="fil1 str0" d="M21.92 12.7c0.09,-0.14 0.06,-0.87 0.07,-1.08 -0.03,0.46 0,0.3 0.12,0.34l0 -0.3c0.2,0.1 -0.09,0.03 0.16,0.08 0.45,0.09 0.27,-0.54 0.27,-0.55 0,0.24 0.01,0.47 0.01,0.71 0,0.13 0,0.26 0.01,0.4l0.01 0.25c0.02,0.09 0.01,0.06 0.05,0.11l0 -3.43 -0.1 -0.04c0,0.15 0.02,0.24 -0.04,0.35 -0.07,-0.12 0,-0.05 -0.06,-0.28l-0.1 0.19 -0.08 -0.23c0,-0.02 -0.01,-0.02 -0.02,-0.03 0,0.01 -0.01,0.02 -0.01,0.03l-0.18 0.48c-0.03,-0.12 -0.02,-0.37 -0.11,-0.51l0 3.51z"/>
    <path class="fil1 str0" d="M21.92 4.31c0.2,-0.11 0.02,-0.21 0.27,-0.41 0.23,-0.2 -0.2,0.11 0.05,-0.02 0,-0.01 0.02,-0.01 0.02,-0.01 0.05,-0.04 0.05,-0.02 0.07,-0.16 0.04,0.12 0,0.05 0.13,0.09l0 -0.35c0.01,0.29 -0.02,0.12 0.12,0.17 0,-0.52 0.08,-1.38 0,-1.85l-0.66 0 0 2.54z"/>
    <polygon class="fil1 str0" points="17.81,9.98 19.51,9.98 19.51,9.28 17.81,9.28 "/>
    <polygon class="fil1 str0" points="16.46,9.98 17.16,9.98 17.16,9.28 16.46,9.28 "/>
    <path class="fil1 str0" d="M10.79 16.45zm0.72 -0.65l-0.72 0.65zm0.72 -0.65l0.13 -0.14c1.08,0.26 0.99,1.18 0.99,1.98l-2.02 0c0,-0.9 -0.07,-0.67 0.27,-0.89l0.6 -0.41c0.1,-0.07 0.27,-0.12 0.27,-0.25 0,-0.09 -0.19,-0.22 -0.24,-0.29zm-1.19 1.12l0 0.72 -2.02 0c0,-0.79 -0.14,-1.71 0.98,-1.97l0.11 0.13c-0.18,0.26 -0.41,0.26 -0.03,0.5l0.75 0.49c0.06,0.05 0.13,0.1 0.21,0.13zm0.47 -0.47l0.27 -0.67c0.06,-0.15 0.05,-0.14 0.17,-0.14 -0.03,0.12 -0.11,0.12 -0.03,0.24 0.05,0.07 0.13,0.12 0.19,0.21 -0.11,0.02 -0.09,0.02 -0.16,0.08 -0.05,0.03 -0.08,0.06 -0.14,0.09 -0.05,0.04 -0.09,0.05 -0.14,0.09 -0.08,0.05 -0.08,0.08 -0.16,0.1zm-1.12 -0.81c0.17,0 0.13,0.02 0.27,0.36 0.07,0.15 0.13,0.31 0.2,0.45 -0.09,-0.02 -0.54,-0.32 -0.6,-0.39 0.1,-0.15 0.3,-0.19 0.13,-0.42zm0.81 0.81l-0.06 0c-0.02,-0.26 -0.4,-0.8 -0.33,-0.98 0.06,-0.12 0.1,-0.2 0.1,-0.37 0.16,0.01 0.08,0.03 0.34,0.03 0.12,0 0.15,-0.07 0.19,0.01 0.02,0.02 0.03,0.16 0.04,0.22 0.09,0.25 0.14,0.05 0.02,0.33 -0.04,0.12 -0.1,0.25 -0.15,0.37 -0.04,0.12 -0.13,0.27 -0.15,0.39zm0.02 -1.61c-0.33,0 -0.52,-0.13 -0.69,-0.42 -0.16,-0.27 -0.19,-0.44 -0.19,-0.85 0.18,-0.04 0.42,-0.18 0.47,-0.34 0.31,0.15 0.83,0.16 1.19,0.08 0,0.39 0.12,0.54 -0.18,1.11 -0.09,0.18 -0.34,0.42 -0.6,0.42zm-0.15 -2.73c0.7,0 0.75,0.47 1.14,0.81 -0.21,0.05 -0.48,0.27 -1.11,0.1 -0.06,-0.01 -0.13,-0.03 -0.19,-0.05 -0.28,-0.1 -0.25,-0.05 -0.34,0.12l-0.02 0.04c0,0 -0.01,0.01 -0.01,0.01l-0.25 0.14c-0.05,-0.1 -0.07,-0.28 -0.09,-0.43 -0.07,-0.56 0.41,-0.48 0.51,-0.55 0.06,-0.05 0.12,-0.19 0.36,-0.19zm-0.44 2.89c0,0.3 -0.04,0.2 -0.06,0.36 -0.61,0 -0.91,0.02 -1.35,0.39 0,0 -0.01,0.01 -0.01,0.01l-0.18 0.21c-0.38,0.52 -0.3,1.03 -0.3,1.75 0,0.09 0.02,0.1 0.03,0.18 0.06,0.02 0.06,0.03 0.13,0.03l4.62 0c0.15,0 0.1,-0.17 0.1,-0.29 -0.03,-0.76 0.14,-1.3 -0.46,-1.87 -0.08,-0.08 -0.18,-0.15 -0.27,-0.2 -0.22,-0.11 -0.44,-0.2 -0.7,-0.21 -0.13,-0.01 -0.36,0.04 -0.41,-0.05 -0.04,-0.06 -0.07,-0.31 -0.02,-0.38 0.05,-0.07 0.11,-0.07 0.23,-0.24 0.3,-0.42 0.4,-0.96 0.28,-1.49 0.18,-0.12 0.36,-0.21 0.36,-0.41 0,-0.17 -0.26,-0.07 -0.38,-0.22 -0.04,-0.06 -0.06,-0.12 -0.1,-0.17 -0.05,-0.07 -0.09,-0.12 -0.14,-0.18 -0.28,-0.28 -0.59,-0.39 -0.99,-0.39 -0.28,0 -0.32,0.18 -0.54,0.24 -0.05,0.01 -0.06,0.01 -0.12,0.03 -0.16,0.05 -0.27,0.14 -0.34,0.28 -0.25,0.44 0.05,0.89 0.04,1.29 0,0.23 0.03,0.38 0.08,0.55 0.08,0.23 0.18,0.42 0.35,0.59 0.04,0.04 0.15,0.11 0.15,0.19z"/>
   </g>
  </g>
 </g>
</svg>
