<?xml version="1.0" encoding="UTF-8"?>
<!DOCTYPE svg PUBLIC "-//W3C//DTD SVG 1.1//EN" "http://www.w3.org/Graphics/SVG/1.1/DTD/svg11.dtd">
<!-- Creator: CorelDRAW 2021 (64-Bit) -->
<svg xmlns="http://www.w3.org/2000/svg" xml:space="preserve" width="205px" height="160px" version="1.1" style="shape-rendering:geometricPrecision; text-rendering:geometricPrecision; image-rendering:optimizeQuality; fill-rule:evenodd; clip-rule:evenodd"
viewBox="0 0 48.42 37.94"
 xmlns:xlink="http://www.w3.org/1999/xlink"
 xmlns:xodm="http://www.corel.com/coreldraw/odm/2003">
 <defs>
  <style type="text/css">
   <![CDATA[
    .str0 {stroke:#7640A8;stroke-width:0.21;stroke-miterlimit:22.9256}
    .fil1 {fill:#7640A8}
    .fil0 {fill:#7640A8}
   ]]>
  </style>
 </defs>
 <g id="Capa_x0020_1">
  <metadata id="CorelCorpID_0Corel-Layer"/>
  <g id="_1654727211808">
   <path class="fil0 str0" d="M14.37 32.46l0 -3.84c0,-0.16 0.04,-0.21 0.2,-0.21l7.96 0.07 0 3.98c0,0.16 -0.05,0.2 -0.21,0.2l-7.75 0c-0.16,0 -0.2,-0.04 -0.2,-0.2zm11.31 -1.85c0,-2.26 -0.16,-2.14 0.48,-2.14l2.25 -0.01c0.76,-0.1 4.33,-0.05 5.44,-0.05l0 4.05c0,0.16 -0.05,0.2 -0.21,0.2l-7.68 0c-0.34,0 -0.18,-0.57 -0.23,-0.94 -0.04,-0.34 -0.05,-0.68 -0.05,-1.11zm10.64 -14.55l0 -5.07c0,-0.39 0.13,-0.56 0.36,-0.74 0.53,-0.43 1.76,-0.43 1.76,0.19l0 7.82c0,0.4 -0.33,1 -0.49,1.29l-0.49 0.88c-0.06,0.09 -0.13,0.19 -0.2,0.28 -0.29,0.44 -0.96,1.14 -1.38,1.5l-0.4 0.35c-0.32,0.31 -0.66,0.52 -0.97,0.83 -0.16,0.16 -0.31,0.27 -0.46,0.43 -1.07,1.13 -1.37,2.11 -1.37,3.84 -1.95,0 -3.68,0.06 -5.63,0.06 0,-1.33 -0.02,-2.37 0.24,-3.67 0.14,-0.7 0.27,-1.1 0.53,-1.66 0.7,-1.54 1.32,-1.55 2.27,-2.13 0.84,-0.51 1.5,-0.93 2.25,-1.59l0.14 -0.13c0.06,-0.05 0.09,-0.07 0.15,-0.13l1.06 -1.13c0.99,-0.99 1.95,-1.13 2.76,0.09l-0.61 0.69c-0.58,0.49 -0.89,0.88 -1.33,1.28 -0.06,0.05 -0.12,0.1 -0.18,0.15 -0.42,0.38 -1.17,1.05 -1.38,1.44 0.17,0.33 0.09,0.25 0.42,0.42l3 -2.77c0.81,-0.81 1.22,-1.14 0.36,-2.04l-0.11 -0.1c-0.13,-0.11 -0.3,-0.18 -0.3,-0.38zm-25.25 1.24c0,0.63 0.27,0.79 0.77,1.29 0.2,0.19 0.32,0.25 0.52,0.44 0.18,0.17 0.3,0.3 0.48,0.48l1.02 0.97c0.29,0.28 0.67,0.7 0.99,0.87 0.74,-0.4 0.43,-0.49 -0.4,-1.33l-1.75 -1.68c-0.27,-0.26 -0.68,-0.62 -0.87,-0.9 0.06,-0.29 0.22,-0.43 0.43,-0.6 0.95,-0.8 1.6,-0.15 2.17,0.33l0.48 0.47 0.87 0.92c1.53,1.42 3.28,2.09 3.71,2.53 1.72,1.71 1.67,4.21 1.67,6.63 -1.94,0 -3.64,-0.06 -5.56,-0.06 0,-2.38 -0.9,-3.57 -2.7,-4.98 -0.68,-0.53 -1.41,-1.26 -1.91,-1.94 -0.33,-0.46 -1.22,-1.92 -1.22,-2.62l0 -6.11c0,-0.39 0.06,-0.46 0.07,-0.81 0.03,-1.11 -0.1,-1.24 0.89,-1.24 0.68,0 1.23,0.48 1.23,1.16 0,1.09 0.05,3.78 -0.06,4.88 -0.05,0.49 -0.83,0.69 -0.83,1.3zm-2.06 -1.72c0,1.08 -0.1,2.27 0.15,3.29 0.16,0.67 1.17,2.38 1.79,3.01 0.1,0.1 0.14,0.14 0.24,0.24l0.95 0.9c1.62,1.39 2.71,2.03 2.71,4.64 -0.63,0 -1.24,0.11 -1.24,0.96l0 4.04 -0.09 0c0.13,0.23 0.14,0.52 0.02,0.76l21.29 0c-0.12,-0.14 -0.19,-0.32 -0.2,-0.52 0,-0.09 0.02,-0.16 0.04,-0.24l-0.07 0 0 -4.18c0,-0.65 -0.6,-0.82 -1.17,-0.82 0,-1.24 0.2,-2.36 0.98,-3.14 1.29,-1.3 2.61,-2.04 3.63,-3.64 0.32,-0.5 1.16,-1.85 1.16,-2.55l0 -7.82c0,-1.62 -2.35,-1.59 -3.17,-0.7 -0.47,0.51 -0.47,0.97 -0.47,1.66 0,1.44 0,2.88 0,4.32 -0.43,-0.21 -1.04,0 -1.45,0.19 -0.19,0.1 -0.2,0.12 -0.37,0.25 -0.14,0.11 -0.21,0.16 -0.34,0.28l-1.53 1.56c-0.13,0.13 -0.17,0.17 -0.32,0.3 -0.6,0.51 -1.15,0.83 -1.83,1.25 -1.11,0.67 -1.72,0.73 -2.55,2.39 -0.88,1.75 -0.87,3.8 -0.87,5.71 -1.35,0 -1.37,0.25 -1.37,1.79 0,0.54 0.07,0.84 0.07,1.3l0 1.85 -1.72 0 0 -4.18c0,-0.79 -0.92,-0.76 -1.37,-0.76 0,-2.41 0.02,-5.1 -1.73,-7.04 -0.33,-0.37 -0.79,-0.61 -1.23,-0.83 -1.09,-0.57 -2.11,-1.25 -2.96,-2.12l-0.35 -0.41c-0.52,-0.6 -1.53,-1.6 -2.37,-1.6l-0.62 0 0.07 -4.53c0,-2.24 -3,-2.5 -3.53,-1.27 -0.17,0.39 -0.18,4.93 -0.18,5.66z"/>
   <polygon class="fil1" points="48.42,35.35 0,35.35 0,37.94 48.42,37.94 "/>
   <g>
    <path class="fil0" d="M24.21 16.97c-0.33,-0.22 -0.89,-0.95 -1.22,-1.27 -0.43,-0.43 -1,-1.17 -1.4,-1.62 -1.12,-1.25 -2.28,-3.15 -2.87,-4.72 -0.77,-2.08 -0.66,-4.15 0.58,-6.02 0.42,-0.63 0.9,-1.04 1.5,-1.48 1.57,-1.17 4.13,-1.41 5.89,-0.53 0.78,0.39 1.14,0.6 1.76,1.22 1.1,1.1 1.74,2.61 1.74,4.25 0,1.6 -0.7,3.34 -1.46,4.59 -0.06,0.12 -0.11,0.21 -0.18,0.32 -0.57,0.84 -0.8,1.19 -1.46,2.06l-0.45 0.54c-0.17,0.19 -0.31,0.38 -0.47,0.57l-1.44 1.59c-0.11,0.12 -0.39,0.42 -0.52,0.5zm0.08 0.82l-0.16 0c-0.21,-0.03 -0.42,-0.16 -0.66,-0.4l-2.09 -2.32c-0.17,-0.22 -0.33,-0.38 -0.5,-0.6 -1.04,-1.33 -1.6,-2.06 -2.41,-3.68l-0.49 -1.15c-0.36,-0.91 -0.53,-1.93 -0.53,-2.99 0,-1.57 0.63,-3.1 1.56,-4.24 0.07,-0.09 0.12,-0.12 0.2,-0.22 0.11,-0.16 0.71,-0.67 0.88,-0.8 1.06,-0.79 2.5,-1.39 3.94,-1.39 1.86,0 3.23,0.52 4.56,1.6 0.09,0.07 0.13,0.13 0.22,0.2 0.09,0.08 0.12,0.09 0.21,0.18l0.75 0.92c2.3,3.46 0.95,7.29 -1.3,10.33 -0.16,0.22 -0.3,0.43 -0.46,0.64l-3.08 3.54c-0.23,0.23 -0.44,0.35 -0.64,0.38z"/>
    <path class="fil0" d="M20.54 6.83c0,-1.43 0.77,-2.65 2.02,-3.28 0.99,-0.51 2.26,-0.51 3.25,-0.03 1.27,0.62 2.06,1.86 2.06,3.31 0,2.04 -1.66,3.67 -3.7,3.67 -1.92,0 -3.63,-1.63 -3.63,-3.67zm-0.78 -0.21c0,1.4 0.35,2.4 1.31,3.35 0.31,0.32 0.83,0.72 1.24,0.89 1.39,0.59 2.83,0.6 4.14,-0.19 1.26,-0.75 2.21,-2.15 2.21,-3.66 0,-1.19 -0.21,-1.89 -0.84,-2.8 -0.15,-0.23 -0.31,-0.4 -0.51,-0.59 -1.1,-1.12 -2.88,-1.56 -4.48,-1.05 -0.95,0.31 -1.94,1.07 -2.43,1.91 -0.06,0.12 -0.14,0.24 -0.2,0.37 -0.2,0.43 -0.44,1.16 -0.44,1.77z"/>
    <path class="fil0" d="M23.82 4.77l0 2.77c0,0.47 0.78,0.47 0.78,0l0 -2.77c0,-0.46 -0.78,-0.46 -0.78,0z"/>
    <path class="fil0" d="M23.82 8.75c0,0.57 0.78,0.57 0.78,0 0,-0.5 -0.78,-0.5 -0.78,0z"/>
   </g>
  </g>
 </g>
</svg>
