<?xml version="1.0" encoding="UTF-8"?>
<!DOCTYPE svg PUBLIC "-//W3C//DTD SVG 1.1//EN" "http://www.w3.org/Graphics/SVG/1.1/DTD/svg11.dtd">
<!-- Creator: CorelDRAW 2021 (64-Bit) -->
<svg xmlns="http://www.w3.org/2000/svg" xml:space="preserve" width="205px" height="154px" version="1.1" style="shape-rendering:geometricPrecision; text-rendering:geometricPrecision; image-rendering:optimizeQuality; fill-rule:evenodd; clip-rule:evenodd"
viewBox="0 0 32.71 24.62"
 xmlns:xlink="http://www.w3.org/1999/xlink"
 xmlns:xodm="http://www.corel.com/coreldraw/odm/2003">
 <defs>
  <style type="text/css">
   <![CDATA[
    .str0 {stroke:#673794;stroke-width:0.14;stroke-miterlimit:22.9256}
    .fil0 {fill:#673794}
    .fil1 {fill:#673794}
   ]]>
  </style>
 </defs>
 <g id="Capa_x0020_1">
  <metadata id="CorelCorpID_0Corel-Layer"/>
  <g id="_1654905352016">
   <polygon class="fil0" points="32.71,22.86 0,22.86 0,24.62 32.71,24.62 "/>
   <g>
    <path class="fil1 str0" d="M18.06 1.38c0,0.27 0.1,0.32 0.29,0.44 0.73,0.45 1.33,1 1.88,1.65 0.19,0.23 0.4,0.52 0.58,0.81 1.69,2.76 1.49,6.01 -0.37,8.61 -0.6,0.84 -1.89,2 -3.13,2.45 0.16,0 0.02,-0.02 0.17,0.02l0.21 0.13c0.01,0 0.07,0.04 0.08,0.05 -0.03,0.32 -0.05,0.11 -0.12,0.32 0.28,-0.12 0.48,-0.22 0.73,-0.37l0.74 -0.44c0.19,0.13 4.43,4.41 4.94,4.92 0.27,0.26 0.43,0.46 0.89,0.54 0.04,0.01 0.07,0.02 0.11,0.02l0.21 0c0.64,-0.06 1.19,-0.62 1.26,-1.23 0,-0.02 0,-0.04 0,-0.05l0 -0.18c-0.02,-0.34 -0.19,-0.63 -0.36,-0.8 -1.01,-1.04 -2.18,-2.14 -3.17,-3.17 -0.12,-0.13 -0.26,-0.28 -0.51,-0.14 -0.23,0.41 0.08,0.56 0.29,0.77 0.35,0.36 2.9,2.86 3.03,3.06 0.42,0.61 -0.38,1.42 -0.99,1.04 -0.22,-0.13 -2.11,-2.07 -2.46,-2.42 -0.42,-0.42 -0.81,-0.81 -1.22,-1.23 -0.22,-0.21 -0.41,-0.4 -0.62,-0.61 -0.11,-0.11 -0.19,-0.2 -0.3,-0.31 -0.09,-0.08 -0.22,-0.18 -0.26,-0.29 -0.14,-0.07 -0.27,-0.2 -0.33,-0.33 0.12,-0.17 0.32,-0.3 0.52,-0.49 0.18,-0.19 0.33,-0.41 0.49,-0.52 0.12,0.06 0.3,0.25 0.37,0.37 0.37,0.12 0.45,0.83 1.02,0.51 0.25,-0.51 -0.57,-0.77 -0.98,-1.39 0.1,-0.19 0.22,-0.36 0.34,-0.56 0.06,-0.11 0.1,-0.16 0.16,-0.28 0.48,-0.96 0.32,-0.69 0.7,-1.61 0.04,-0.54 0.28,-1.01 0.31,-2.17 0.03,-1.17 -0.15,-1.38 -0.24,-2.21 -0.09,-0.54 -0.42,-1.3 -0.65,-1.73l-0.44 -0.75c-0.66,-1 -1.39,-1.73 -2.39,-2.4 -0.33,-0.23 -0.58,-0.41 -0.78,-0.03z"/>
    <path class="fil1 str0" d="M17.65 15.86c0.07,-0.21 0.09,0 0.12,-0.32 -0.01,-0.01 -0.07,-0.05 -0.08,-0.05l-0.21 -0.13c-0.15,-0.04 -0.01,-0.02 -0.17,-0.02 -0.47,0.24 -1.25,0.45 -1.82,0.53 -0.88,0.14 -1.4,0.04 -2.23,0.03 -2.01,-0.43 -3.42,-1.05 -4.74,-2.61 -4.23,-4.98 -0.72,-12.5 5.61,-12.62 0.61,-0.02 1.23,0.05 1.8,0.17 0.28,0.06 0.55,0.13 0.81,0.22 0.39,0.13 0.4,0.24 0.74,0.02 0.04,-0.34 0.14,-0.39 -0.56,-0.61 -0.32,-0.1 -0.68,-0.2 -1.05,-0.26 -1.93,-0.35 -4.16,-0.04 -5.78,1.01 -0.52,0.34 -0.82,0.53 -1.29,0.97 -0.32,0.3 -0.44,0.35 -0.79,0.8 -1,1.27 -1.56,2.28 -1.83,3.98 -0.44,2.67 0.49,5.41 2.27,7.17 1.86,1.83 4.55,2.79 7.19,2.33 0.69,-0.12 1.44,-0.32 2.01,-0.61z"/>
    <path class="fil1 str0" d="M17.71 3.25c-0.02,0.27 0.07,0.33 0.21,0.44 0.79,0.63 1.59,1.62 1.9,2.61 0.56,1.34 0.41,3.04 -0.12,4.33 -0.47,0.85 -0.7,1.38 -1.48,2.04 -0.6,0.52 -1.26,0.98 -2.22,1.26 -3.15,0.94 -5.19,-0.99 -5.39,-1.03l-0.16 0.06c-0.18,0.1 -0.1,0.22 -0.27,0.29 0.15,0.27 1.23,0.83 1.47,0.96 0.89,0.31 1.42,0.55 2.52,0.57 2.47,0.04 4.76,-1.33 5.85,-3.42 0.78,-1.52 1.03,-3.28 0.43,-5.09 -0.26,-0.78 -0.66,-1.46 -1.08,-1.99 -0.26,-0.32 -0.5,-0.53 -0.76,-0.79 -0.45,-0.44 -0.62,-0.54 -0.9,-0.24z"/>
    <path class="fil1 str0" d="M18.99 10.6c-0.12,-0.32 -0.31,-0.25 -0.69,-0.25l-6.3 0c-1.25,0 -1.05,0.41 -1.05,-2.59 0,-1.03 -0.14,-1.15 0.64,-1.15 0.3,0.01 0.6,0 0.9,0 0.34,0.01 0.58,0.08 0.7,-0.22 0.06,-0.44 -0.35,-0.38 -0.7,-0.38 -0.35,0 -0.71,0 -1.06,0 -0.72,0 -1.08,0.33 -1.08,1.06 -0.01,0.72 0,1.44 0,2.16 0,0.76 -0.08,1.35 0.51,1.63 0.38,0.18 6.14,0.08 7.44,0.09 0.37,0 0.69,0.05 0.69,-0.35z"/>
    <path class="fil1 str0" d="M15.32 1.83c0.43,0.13 0.74,0.45 0.93,0.78 0.16,0.26 0.41,1.08 0.15,1.37 0.02,0.8 -1.22,1.28 -1.31,1.39 -0.14,0.14 -0.26,0.39 -0.45,0.48 -0.44,-0.79 -0.76,-0.6 -1.15,-0.97 -0.33,-0.31 -0.67,-0.8 -0.62,-1.49 0.12,-1.6 1.94,-1.93 2.45,-1.56zm-2.85 0.7c-0.39,1.28 -0.15,2.4 1,3.07 0.33,0.2 0.45,0.16 0.79,0.72 0.11,0.11 0.22,0.26 0.48,0.23 0.26,-0.03 0.27,-0.19 0.41,-0.27 0.45,-0.81 0.75,-0.42 1.45,-1.29 0.42,-0.52 0.6,-1.3 0.42,-2.11 -0.24,-0.58 -0.33,-0.82 -0.73,-1.17 -1.08,-0.93 -2.64,-0.74 -3.44,0.23 -0.18,0.22 -0.23,0.36 -0.38,0.59z"/>
    <path class="fil1 str0" d="M22.93 6.34c0.1,0.18 0.1,0.26 0.36,0.27l1.97 0c0.83,0 0.67,-0.03 0.67,1.93 0,1.96 0.14,1.81 -0.79,1.81 -0.44,0 -0.88,0 -1.31,0 -0.2,0 -0.47,-0.02 -0.65,0 -0.23,0.02 -0.26,0.1 -0.32,0.28 -0.02,0.45 0.58,0.32 1.25,0.32 0.93,0 2.29,0.27 2.42,-0.78l0 -2.14 0 -1.15c-0.06,-1.16 -1.46,-0.88 -2.29,-0.88 -0.99,0 -1.22,-0.12 -1.31,0.34z"/>
    <path class="fil1 str0" d="M8.98 11.42c0.13,-0.2 0.19,-0.28 0.06,-0.54 -0.92,-1.94 -0.75,-4.25 0.49,-5.96 0.33,-0.44 0.93,-1.13 1.42,-1.38 0.1,-0.11 0.28,-0.22 0.45,-0.31 0.24,-0.13 0.35,-0.15 0.31,-0.5 -0.09,-0.05 -0.03,0.01 -0.02,-0.07 -0.32,-0.15 -0.34,-0.11 -0.63,0.07 -0.19,0.11 -0.35,0.21 -0.52,0.34 -0.97,0.69 -1.81,1.76 -2.26,2.93 -0.35,0.9 -0.51,1.94 -0.39,3.02 0.05,0.49 0.16,0.96 0.31,1.39 0.07,0.22 0.15,0.42 0.25,0.62 0.14,0.31 0.13,0.4 0.53,0.39z"/>
    <path class="fil1 str0" d="M15.23 3.71c-0.27,0.74 -1.39,0.31 -1.08,-0.43 0.26,-0.61 1.34,-0.29 1.08,0.43zm-1.19 -1.2c-0.08,0.1 -0.21,0.16 -0.34,0.36 -0.11,0.17 -0.18,0.35 -0.19,0.55 -0.06,0.86 0.75,1.48 1.55,1.22 0.46,-0.16 0.51,-0.39 0.73,-0.67 0.12,-0.6 0.04,-1.02 -0.33,-1.34 -0.14,-0.12 -0.37,-0.25 -0.63,-0.28 -0.4,-0.04 -0.49,0.06 -0.79,0.16z"/>
    <path class="fil1 str0" d="M23.83 8.33c0,-0.45 0.61,-0.39 0.61,-0.04 0,0.47 -0.61,0.41 -0.61,0.04zm1.21 0.17c0.27,-1.14 -1.54,-1.58 -1.8,-0.39 -0.26,1.17 1.5,1.62 1.8,0.39z"/>
    <path class="fil1 str0" d="M15.57 8.06c0.36,-0.24 0.65,0.3 0.35,0.51 -0.35,0.24 -0.74,-0.26 -0.35,-0.51zm-0.74 0.48c0.27,1.12 2.07,0.79 1.79,-0.44 -0.1,-0.44 -0.56,-0.81 -1.11,-0.68 -0.43,0.1 -0.81,0.56 -0.68,1.12z"/>
    <path class="fil1 str0" d="M13.16 8.05c0.39,-0.24 0.62,0.36 0.32,0.54 -0.36,0.2 -0.71,-0.3 -0.32,-0.54zm-0.74 0.49c0.09,0.42 0.56,0.8 1.11,0.67 0.42,-0.1 0.8,-0.55 0.67,-1.11 -0.25,-1.12 -2.05,-0.82 -1.78,0.44z"/>
    <path class="fil1 str0" d="M16.17 6.36c0.09,0.31 0.26,0.26 0.62,0.25l1.72 0c0.36,0.01 0.51,0.06 0.63,-0.23 0.05,-0.33 -0.2,-0.37 -0.51,-0.37 -0.31,0 -0.63,0 -0.94,0 -0.87,0 -1.51,-0.14 -1.52,0.35z"/>
    <path class="fil1 str0" d="M19.01 8.58c-0.07,-0.03 -0.09,-0.01 -0.13,0 -0.01,0.01 -0.01,0.02 -0.01,0.03 -0.03,0.26 -0.24,0.27 -0.32,0.3 -0.01,-0.01 -0.02,-0.05 -0.02,-0.04 0,0 -0.04,-0.03 -0.02,-0.17l-0.2 0.02c-0.21,0.01 -0.15,-0.04 -0.17,0.02 0.15,-0.05 0.06,0.03 0.12,-0.11 -0.45,0.02 -0.47,-0.23 -0.36,-0.56 -0.22,-0.07 -0.03,-0.14 -0.25,-0.11 -0.01,0 -0.02,0 -0.03,0.01 -0.06,0.29 0.08,0.2 -0.1,0.55 -0.14,-0.1 -0.06,0.02 -0.11,-0.14 -0.02,-0.06 -0.01,-0.15 0,-0.21 0.03,-0.09 0.04,-0.1 0.06,-0.18l0.26 -0.32c0.11,-0.07 0.37,-0.16 0.5,-0.15 0,0 0.02,0.01 0.02,0.01 0.01,0 0.03,0.01 0.04,0.01 0.01,0 0.02,0 0.03,0.01 0.16,0.02 0.11,0.02 0.21,-0.03l-0.14 -0.09c-0.6,-0.23 -1.49,0.5 -1.06,1.31 0.38,0.71 1.47,0.65 1.68,-0.16z"/>
    <path class="fil1 str0" d="M17.9 8.07c0.09,-0.02 0.12,-0.08 0.28,-0.07 0.14,0.01 0.53,0.22 0.08,0.63 -0.06,0.14 0.03,0.06 -0.12,0.11 0.02,-0.06 -0.04,-0.01 0.17,-0.02l0.2 -0.02c-0.02,0.14 0.02,0.17 0.02,0.17 0,-0.01 0.01,0.03 0.02,0.04 0.08,-0.03 0.29,-0.04 0.32,-0.3 0,-0.01 0,-0.02 0.01,-0.03 0.04,-0.01 0.06,-0.03 0.13,0 0.19,-0.4 -0.16,-1.07 -0.48,-1.06 -0.1,0.05 -0.05,0.05 -0.21,0.03 -0.01,-0.01 -0.02,-0.01 -0.03,-0.01 -0.01,0 -0.03,-0.01 -0.04,-0.01 0,0 -0.02,-0.01 -0.02,-0.01 -0.13,-0.01 -0.39,0.08 -0.5,0.15l-0.26 0.32c-0.02,0.08 -0.03,0.09 -0.06,0.18 -0.01,0.06 -0.02,0.15 0,0.21 0.05,0.16 -0.03,0.04 0.11,0.14 0.18,-0.35 0.04,-0.26 0.1,-0.55 0.01,-0.01 0.02,-0.01 0.03,-0.01 0.22,-0.03 0.03,0.04 0.25,0.11z"/>
    <path class="fil1 str0" d="M9.37 11.94c-0.1,0.11 -0.18,0.18 -0.11,0.37 0.04,0.12 0.17,0.25 0.27,0.34 0.15,0.15 0.44,0.52 0.65,0.6 0.17,-0.07 0.09,-0.19 0.27,-0.29l0.16 -0.06c-0.03,-0.07 -0.01,-0.05 -0.02,-0.09 -0.5,-0.23 -0.71,-0.98 -1.22,-0.87z"/>
   </g>
  </g>
 </g>
</svg>
