<svg xmlns="http://www.w3.org/2000/svg" viewBox="0 0 84.96 88.05"><defs><style>.cls-1{fill:#67b432;fill-rule:evenodd;}</style></defs><g id="Layer_2" data-name="Layer 2"><g id="Capa_1" data-name="Capa 1"><path class="cls-1" d="M40.08,29.92V53.8a34.45,34.45,0,0,0-6.8,2.36A102.09,102.09,0,0,0,7.57,73.67,34.93,34.93,0,0,0,1.52,81,10.24,10.24,0,0,0,0,85.92a2.13,2.13,0,0,0,2.13,2.13h80.7A2.13,2.13,0,0,0,85,85.92a9.26,9.26,0,0,0-1.43-4.41,37.45,37.45,0,0,0-5.62-7A99.51,99.51,0,0,0,56.46,58.28c-4.46-2.45-8.71-4.13-12.11-4.61V51.21A13.48,13.48,0,0,0,58,35.15a2.15,2.15,0,0,0-1.69-1.69,13.5,13.5,0,0,0-12,3.54V29.92A23.44,23.44,0,0,0,70,2.12,2.15,2.15,0,0,0,68.28.43,23.45,23.45,0,0,0,42.21,14.24,23.45,23.45,0,0,0,16.14.43a2.15,2.15,0,0,0-1.69,1.69A23.43,23.43,0,0,0,20.88,23.2a23.36,23.36,0,0,0,19.2,6.72Zm2.39,27.87c3.1,0,7.36,1.72,11.92,4.22A95.15,95.15,0,0,1,74.85,77.48a32.85,32.85,0,0,1,5,6.15l.09.15H4.85A13.94,13.94,0,0,1,6,81.85a48.78,48.78,0,0,1,8.92-9,101.46,101.46,0,0,1,18.66-12.1c3.65-1.77,6.8-2.93,8.86-2.93Zm22.82,19H60.51a2.13,2.13,0,0,0,0,4.26h4.78a2.13,2.13,0,0,0,0-4.26ZM28.86,81.07H39.79a2.13,2.13,0,1,0,0-4.26H28.86a2.13,2.13,0,0,0,0,4.26Zm-1.11-11H23a2.13,2.13,0,1,0,0,4.26h4.78a2.13,2.13,0,1,0,0-4.26ZM46.09,72.4H56.18a2.13,2.13,0,1,0,0-4.26H46.09a2.13,2.13,0,1,0,0,4.26Zm-9.44-6.2H40a2.13,2.13,0,1,0,0-4.26H36.65a2.13,2.13,0,1,0,0,4.26ZM54,37.49A9.2,9.2,0,0,1,44.5,47,9.2,9.2,0,0,1,54,37.49ZM66,4.4A19.19,19.19,0,0,1,44.73,25.68,19.19,19.19,0,0,1,66,4.4Zm-47.6,0A19.19,19.19,0,0,1,39.69,25.68,19.19,19.19,0,0,1,18.41,4.4Z"/></g></g></svg>