<svg xmlns="http://www.w3.org/2000/svg" xmlns:xlink="http://www.w3.org/1999/xlink" viewBox="0 0 124.16 45.76"><defs><style>.cls-1{fill:#029576;}.cls-2{fill:#1e1f1d;opacity:0.1;isolation:isolate;}.cls-3{fill:#fff;}.cls-4{fill:#499b8a;}.cls-5{fill:#ecebeb;}.cls-6{fill:#66a758;}.cls-7{opacity:0.3;}.cls-8{fill:url(#linear-gradient);}.cls-9{fill:url(#linear-gradient-2);}.cls-10{fill:url(#linear-gradient-3);}.cls-11{fill:url(#linear-gradient-4);}.cls-12{fill:url(#linear-gradient-5);}.cls-13{fill:url(#linear-gradient-6);}</style><linearGradient id="linear-gradient" x1="-6.09" y1="96.49" x2="19.52" y2="99.33" gradientTransform="matrix(1, 0, 0, -1, 0, 137.56)" gradientUnits="userSpaceOnUse"><stop offset="0"/><stop offset="1" stop-color="#1e1f1d" stop-opacity="0"/></linearGradient><linearGradient id="linear-gradient-2" x1="39.21" y1="72.76" x2="30.52" y2="103.78" xlink:href="#linear-gradient"/><linearGradient id="linear-gradient-3" x1="69.83" y1="105.46" x2="51.4" y2="108.07" xlink:href="#linear-gradient"/><linearGradient id="linear-gradient-4" x1="129.06" y1="105.46" x2="110.62" y2="108.07" xlink:href="#linear-gradient"/><linearGradient id="linear-gradient-5" x1="59.49" y1="104.21" x2="79.22" y2="102.21" xlink:href="#linear-gradient"/><linearGradient id="linear-gradient-6" x1="3571.82" y1="1215.65" x2="3575.62" y2="1230.18" gradientTransform="matrix(-1, 0, 0, 1, 3669.88, -1195.68)" xlink:href="#linear-gradient"/></defs><g id="Layer_2" data-name="Layer 2"><g id="Capa_1" data-name="Capa 1"><path class="cls-1" d="M88.52,18.36l-2.79,5.42a.51.51,0,0,1-1-.11,9.37,9.37,0,0,0-3.13-5.25Z"/><path class="cls-2" d="M82.13,18.83h4.4s-2.61,1.59-2.41,2.88A7.66,7.66,0,0,0,82.13,18.83Z"/><path class="cls-1" d="M95.47,19.07H33.31a1.61,1.61,0,0,1-1.6-1.83L33.88,1.4A1.62,1.62,0,0,1,35.48,0H97.64a1.61,1.61,0,0,1,1.6,1.83L97.07,17.67A1.61,1.61,0,0,1,95.47,19.07Z"/><path class="cls-3" d="M70.36,13.34a1.77,1.77,0,0,1,0-.32,4.09,4.09,0,0,1-1.24,1,3.38,3.38,0,0,1-1.53.32A2.35,2.35,0,0,1,66,13.81a3.24,3.24,0,0,1-1-1.39,5.1,5.1,0,0,1-.32-1.78,6.54,6.54,0,0,1,.49-2.46,5.25,5.25,0,0,1,1.42-2,3.18,3.18,0,0,1,2.15-.81,3,3,0,0,1,1.27.28,1.65,1.65,0,0,1,.87.81l0-.14a1.05,1.05,0,0,1,1-.91h0A1.07,1.07,0,0,1,73,6.6l-.46,3.29a13.52,13.52,0,0,0-.16,1.75,2.21,2.21,0,0,0,.16.94.61.61,0,0,0,.34.31.21.21,0,0,1,.14.27l-.21.54A1.3,1.3,0,0,1,70.36,13.34Zm-1.21-1a2.52,2.52,0,0,0,.72-.4,1,1,0,0,0,.39-.57c.11-.58.24-1.55.4-2.93V8.33a1,1,0,0,0-.5-.85,1.81,1.81,0,0,0-1-.33,1.9,1.9,0,0,0-1.3.48A3.12,3.12,0,0,0,67,8.85a4.12,4.12,0,0,0-.29,1.5,2.45,2.45,0,0,0,.43,1.5,1.5,1.5,0,0,0,1.28.58A1.6,1.6,0,0,0,69.15,12.3Z"/><path class="cls-3" d="M47.93,7.63a3.73,3.73,0,0,1-.81,1.09,1.93,1.93,0,0,1,1,.82,2.51,2.51,0,0,1,.34,1.29,3.45,3.45,0,0,1-1.64,3,3.76,3.76,0,0,1-1.69.55,6.9,6.9,0,0,1-.76,0H41.12a.58.58,0,0,1-.55-.65l1.26-9.28A.56.56,0,0,1,42.38,4h3.25a2.83,2.83,0,0,1,1.86.61,2.15,2.15,0,0,1,.74,1.74A3.17,3.17,0,0,1,47.93,7.63Zm-2.3,4.93a2,2,0,0,0,.58-.67,1.69,1.69,0,0,0,.22-.83,1.39,1.39,0,0,0-.33-.93,1,1,0,0,0-.85-.38h-2.2l-.37,2.76a.28.28,0,0,0,.27.32h1.89A1.37,1.37,0,0,0,45.63,12.56Zm.28-4.85a1.37,1.37,0,0,0,.46-1.12,1,1,0,0,0-.32-.76,1.2,1.2,0,0,0-.81-.26H43.87a.27.27,0,0,0-.27.25l-.31,2.27h1.46A1.8,1.8,0,0,0,45.91,7.71Z"/><path class="cls-3" d="M52.64,14.42a3.35,3.35,0,0,1-1.79-.48,3.26,3.26,0,0,1-1.2-1.32,4.17,4.17,0,0,1-.42-1.89,5.78,5.78,0,0,1,.59-2.55,5.1,5.1,0,0,1,1.64-2,4,4,0,0,1,2.37-.76,3.22,3.22,0,0,1,1.78.49A3.27,3.27,0,0,1,56.8,7.27a4.14,4.14,0,0,1,.42,1.87,6,6,0,0,1-.58,2.57,5,5,0,0,1-1.62,2A4,4,0,0,1,52.64,14.42Zm1-7.15a1.69,1.69,0,0,0-1.21.5,3.27,3.27,0,0,0-.79,1.28,4.48,4.48,0,0,0-.27,1.49A2.76,2.76,0,0,0,51.73,12a1.22,1.22,0,0,0,1.14.6,1.68,1.68,0,0,0,1.22-.5,3.33,3.33,0,0,0,.78-1.29,4.89,4.89,0,0,0,.26-1.51,2.76,2.76,0,0,0-.37-1.48A1.26,1.26,0,0,0,53.61,7.27Z"/><path class="cls-3" d="M57.92,17.34a3.17,3.17,0,0,1-.86-.15.64.64,0,0,1-.44-.42.71.71,0,0,1,.05-.62l.21-.36a.69.69,0,0,1,.58-.35.57.57,0,0,1,.18,0,1.32,1.32,0,0,0,.39.06.15.15,0,0,0,.1,0l.1-.06a3,3,0,0,0,1.14-1.75l-1.51-7.8a.32.32,0,0,1,.07-.27.3.3,0,0,1,.25-.12h.66A1.16,1.16,0,0,1,60,6.5l.73,4.5,2.13-4.95a1.16,1.16,0,0,1,1.06-.71h.72a.33.33,0,0,1,.28.16.35.35,0,0,1,0,.33c-.41.88-1.18,2.58-2.12,4.64l-1.19,2.66c-.19.43-.4.87-.63,1.3a11.23,11.23,0,0,1-1.35,2.1A2.22,2.22,0,0,1,57.92,17.34Z"/><path class="cls-3" d="M77.34,14.35a3.4,3.4,0,0,1-1.8-.49,3.3,3.3,0,0,1-1.21-1.35,4.19,4.19,0,0,1-.43-1.88,5.6,5.6,0,0,1,.61-2.58,5,5,0,0,1,1.68-1.93,4.18,4.18,0,0,1,2.42-.73,4,4,0,0,1,1.53.32,3.11,3.11,0,0,1,.6.33A.93.93,0,0,1,81,7.28l-.36.56a.24.24,0,0,1-.2.11.25.25,0,0,1-.18-.08,1.64,1.64,0,0,0-.6-.39,2.54,2.54,0,0,0-1-.2,2.38,2.38,0,0,0-1.34.42,3.26,3.26,0,0,0-1,1.1,2.81,2.81,0,0,0-.39,1.42,2.3,2.3,0,0,0,.53,1.54,1.75,1.75,0,0,0,1.4.61,3,3,0,0,0,1.06-.21,3.66,3.66,0,0,0,.71-.37.33.33,0,0,1,.19-.06.32.32,0,0,1,.3.22l.26.71a.53.53,0,0,1-.15.59A4.72,4.72,0,0,1,79,14,4.47,4.47,0,0,1,77.34,14.35Z"/><path class="cls-3" d="M87,13.34A1.77,1.77,0,0,1,87,13a4,4,0,0,1-1.24,1,3.38,3.38,0,0,1-1.53.32,2.35,2.35,0,0,1-1.56-.54,3.24,3.24,0,0,1-1-1.39,5.1,5.1,0,0,1-.32-1.78,6.54,6.54,0,0,1,.49-2.46,5.25,5.25,0,0,1,1.42-2,3.18,3.18,0,0,1,2.15-.81,3,3,0,0,1,1.27.28,1.65,1.65,0,0,1,.87.81l0-.14a1.05,1.05,0,0,1,1-.91h0a1.07,1.07,0,0,1,1,1.23l-.46,3.29A13.52,13.52,0,0,0,89,11.64a2.21,2.21,0,0,0,.16.94.61.61,0,0,0,.34.31.21.21,0,0,1,.14.27l-.21.54A1.3,1.3,0,0,1,87,13.34Zm-1.21-1a2.52,2.52,0,0,0,.72-.4,1,1,0,0,0,.38-.57c.11-.58.24-1.55.4-2.93V8.33a1,1,0,0,0-.5-.85,1.81,1.81,0,0,0-1-.33,1.9,1.9,0,0,0-1.3.48,3.12,3.12,0,0,0-.83,1.22,4.12,4.12,0,0,0-.29,1.5,2.45,2.45,0,0,0,.43,1.5,1.5,1.5,0,0,0,1.28.58A1.65,1.65,0,0,0,85.8,12.3Zm0-8.76.55-1.22a.29.29,0,0,1,.27-.17h1.21a.32.32,0,0,1,.25.5l-.82,1.22A.3.3,0,0,1,87,4h-.93A.32.32,0,0,1,85.81,3.54Z"/><path class="cls-4" d="M96.7.88H36.14a.19.19,0,0,1,0-.38H96.7a.19.19,0,1,1,0,.38Z"/><path class="cls-5" d="M47.11,8.87,47,9l.21.08a1.74,1.74,0,0,1,.71.49A1.76,1.76,0,0,0,47.11,8.87Z"/><path class="cls-5" d="M47.54,4.92l.22.21a1.79,1.79,0,0,0-.37-.41,2.71,2.71,0,0,0-1.77-.58H42.37a.41.41,0,0,0-.4.37l-1.26,9.28a.44.44,0,0,0,.1.35.46.46,0,0,0,.07.07.41.41,0,0,1,0-.22l1.26-9.28a.42.42,0,0,1,.4-.37h3.25A2.72,2.72,0,0,1,47.54,4.92Z"/><path class="cls-5" d="M46,7.82a1.88,1.88,0,0,1-1.26.42H43.29l0,.2h1.63A1.9,1.9,0,0,0,46.15,8a1.49,1.49,0,0,0,.51-1.22,1.12,1.12,0,0,0-.29-.8,1.16,1.16,0,0,1,.14.6A1.52,1.52,0,0,1,46,7.82Z"/><path class="cls-5" d="M46.34,10.21a1.53,1.53,0,0,1,.23.85,1.84,1.84,0,0,1-.24.9,2.19,2.19,0,0,1-.63.72,1.47,1.47,0,0,1-.87.29H43a.41.41,0,0,1-.24-.08.57.57,0,0,0,.08.13.41.41,0,0,0,.31.14H45a1.44,1.44,0,0,0,.87-.29,2.05,2.05,0,0,0,.62-.72,1.87,1.87,0,0,0,.24-.9,1.51,1.51,0,0,0-.36-1S46.35,10.21,46.34,10.21Z"/><path class="cls-5" d="M86.07,3.86a.14.14,0,0,1,0-.06l.55-1.23a.17.17,0,0,1,.14-.09H88a.15.15,0,0,0,0-.11.16.16,0,0,0-.15-.09H86.63a.16.16,0,0,0-.14.09L85.94,3.6a.17.17,0,0,0,0,.18S86,3.85,86.07,3.86Z"/><path class="cls-5" d="M89.26,5.83a.86.86,0,0,0-.66-.31.9.9,0,0,0-.88.79l-.08.52.13.3.09-.62a.9.9,0,0,1,.88-.79.85.85,0,0,1,.62.26Z"/><path class="cls-5" d="M87.45,8.34v.08h0c-.16,1.37-.29,2.36-.4,2.94a1.14,1.14,0,0,1-.44.65,2.8,2.8,0,0,1-.76.42,2.12,2.12,0,0,1-.76.16,1.67,1.67,0,0,1-1.31-.53l.07.09a1.66,1.66,0,0,0,1.4.64,2.16,2.16,0,0,0,.76-.16,2.69,2.69,0,0,0,.76-.42,1.14,1.14,0,0,0,.44-.65c.11-.58.24-1.57.4-2.94h0V8.54a1.05,1.05,0,0,0-.3-.75A1.12,1.12,0,0,1,87.45,8.34Z"/><path class="cls-5" d="M87.28,13.21v-.39l-.15.18v0c0,.1,0,.2,0,.3a1.13,1.13,0,0,0,.3.62,1.3,1.3,0,0,1-.15-.42A1.67,1.67,0,0,1,87.28,13.21Z"/><path class="cls-5" d="M86.77,5.94a1.56,1.56,0,0,1,.56.39,1.44,1.44,0,0,0-.71-.58,2.91,2.91,0,0,0-1.21-.27,3.08,3.08,0,0,0-2.06.77,5.13,5.13,0,0,0-1.38,2,6.47,6.47,0,0,0-.48,2.41,4.82,4.82,0,0,0,.31,1.73,3.26,3.26,0,0,0,.53.93,3.61,3.61,0,0,1-.38-.73,4.82,4.82,0,0,1-.31-1.73,6.47,6.47,0,0,1,.48-2.41,5.13,5.13,0,0,1,1.38-2,3.06,3.06,0,0,1,2-.77A2.74,2.74,0,0,1,86.77,5.94Z"/><path class="cls-5" d="M89.51,13.07l0,0a.61.61,0,0,1-.26-.15.74.74,0,0,0,.28.3l0-.06Z"/><path class="cls-5" d="M79.81,11.86a.23.23,0,0,0-.11,0,3.44,3.44,0,0,1-.74.39,3.08,3.08,0,0,1-1.11.22,1.91,1.91,0,0,1-1.51-.66l0,0,.17.22A1.91,1.91,0,0,0,78,12.7a3.08,3.08,0,0,0,1.11-.22,3.44,3.44,0,0,0,.74-.39.2.2,0,0,1,.11,0H80L80,12A.16.16,0,0,0,79.81,11.86Z"/><path class="cls-5" d="M80.66,6.15a3.12,3.12,0,0,0-.57-.32,3.73,3.73,0,0,0-1.47-.31,4.09,4.09,0,0,0-2.34.71,4.88,4.88,0,0,0-1.63,1.88,5.55,5.55,0,0,0-.59,2.51,4.06,4.06,0,0,0,.41,1.82,2.79,2.79,0,0,0,.4.61,4.23,4.23,0,0,1-.25-.42,4.06,4.06,0,0,1-.41-1.82A5.55,5.55,0,0,1,74.8,8.3a4.88,4.88,0,0,1,1.63-1.88,4.09,4.09,0,0,1,2.34-.71A3.92,3.92,0,0,1,80.24,6a2.82,2.82,0,0,1,.57.32l.07,0A1,1,0,0,0,80.66,6.15Z"/><path class="cls-5" d="M58.33,5.83H59a1,1,0,0,1,.71.3,1,1,0,0,0-.86-.5h-.66a.15.15,0,0,0-.13.07.22.22,0,0,0,0,.16l1.51,7.84v0a3.08,3.08,0,0,1-1.21,1.83l-.08,0a.31.31,0,0,1-.19.06,1.35,1.35,0,0,1-.44-.07l-.14,0a.55.55,0,0,0-.46.28l-.21.36a.59.59,0,0,0,0,.5.63.63,0,0,0,.16.23,0,0,0,0,1,0,0,.58.58,0,0,1,0-.5l.21-.36a.54.54,0,0,1,.46-.28l.14,0a1.62,1.62,0,0,0,.44.07.31.31,0,0,0,.19-.06l.08-.05a3.08,3.08,0,0,0,1.21-1.83v0L58.16,6.06a.19.19,0,0,1,0-.16A.17.17,0,0,1,58.33,5.83Z"/><path class="cls-5" d="M64.62,5.47H63.9a1,1,0,0,0-.93.62l-2.24,5.2.06.4,2.33-5.4a1,1,0,0,1,.93-.62h.76a.2.2,0,0,0,0-.11A.19.19,0,0,0,64.62,5.47Z"/><path class="cls-5" d="M54.86,7.77a0,0,0,0,0,0,0,2.94,2.94,0,0,1,.39,1.56A4.93,4.93,0,0,1,55,10.9a3.28,3.28,0,0,1-.81,1.34,1.81,1.81,0,0,1-1.32.54,1.43,1.43,0,0,1-1.09-.44A1.37,1.37,0,0,0,53,13a1.81,1.81,0,0,0,1.32-.54,3.35,3.35,0,0,0,.81-1.34,4.88,4.88,0,0,0,.27-1.56A2.94,2.94,0,0,0,55,8,1.16,1.16,0,0,0,54.86,7.77Z"/><path class="cls-5" d="M55.53,6.06a3.13,3.13,0,0,0-1.71-.46,3.85,3.85,0,0,0-2.28.73A5.07,5.07,0,0,0,50,8.25a5.68,5.68,0,0,0-.58,2.49,4.2,4.2,0,0,0,.4,1.83,3.09,3.09,0,0,0,.39.6,3.26,3.26,0,0,1-.24-.4,4,4,0,0,1-.4-1.83,5.52,5.52,0,0,1,.58-2.49,5.15,5.15,0,0,1,1.59-1.92A3.85,3.85,0,0,1,54,5.8a3.21,3.21,0,0,1,1.71.46,3,3,0,0,1,.73.65A3,3,0,0,0,55.53,6.06Z"/><path class="cls-5" d="M72.61,5.83A.86.86,0,0,0,72,5.52a.9.9,0,0,0-.88.79L71,6.83l.13.3.09-.62a.9.9,0,0,1,.88-.79.85.85,0,0,1,.62.26A.65.65,0,0,0,72.61,5.83Z"/><path class="cls-5" d="M72.82,13a.61.61,0,0,1-.26-.15.66.66,0,0,0,.28.29l0-.06s0,0,0,0A.08.08,0,0,0,72.82,13Z"/><path class="cls-5" d="M70.8,8.34v.08h0c-.16,1.37-.3,2.36-.4,2.94A1.14,1.14,0,0,1,70,12a2.8,2.8,0,0,1-.76.42,2.11,2.11,0,0,1-.75.16,1.67,1.67,0,0,1-1.31-.53l.07.09a1.66,1.66,0,0,0,1.4.64,2.16,2.16,0,0,0,.76-.16,2.69,2.69,0,0,0,.76-.42,1.14,1.14,0,0,0,.44-.65c.11-.58.24-1.57.4-2.94V8.55a1.08,1.08,0,0,0-.3-.75A1.2,1.2,0,0,1,70.8,8.34Z"/><path class="cls-5" d="M70.13,5.94a1.56,1.56,0,0,1,.56.39A1.56,1.56,0,0,0,70,5.74a2.91,2.91,0,0,0-1.21-.27,3.1,3.1,0,0,0-2.06.77,5.13,5.13,0,0,0-1.38,2,6.47,6.47,0,0,0-.48,2.41,4.82,4.82,0,0,0,.31,1.73,3.26,3.26,0,0,0,.53.93,3.36,3.36,0,0,1-.38-.73A4.82,4.82,0,0,1,65,10.83a6.47,6.47,0,0,1,.48-2.41,5.13,5.13,0,0,1,1.38-2,3.06,3.06,0,0,1,2.06-.77A3,3,0,0,1,70.13,5.94Z"/><path class="cls-5" d="M70.63,13.21v-.39l-.15.18v0c0,.1,0,.2,0,.3a1.13,1.13,0,0,0,.29.61,1.1,1.1,0,0,1-.14-.42C70.64,13.41,70.63,13.31,70.63,13.21Z"/><path class="cls-6" d="M117.37,42.31c-.28.35-.8,1.09-1.13,1.46a7.47,7.47,0,0,1-1.1,1,5.12,5.12,0,0,1-1.42.72,5.75,5.75,0,0,1-1.82.27h-.11a7.74,7.74,0,0,1-3.56-.8,7,7,0,0,1-2.58-2.21,9,9,0,0,1-1.43-3.29,11.77,11.77,0,0,1-.14-4.09,14,14,0,0,1,1.23-4.11A12,12,0,0,1,107.6,28a10.38,10.38,0,0,1,3.15-2.19,9.18,9.18,0,0,1,3.8-.8,5.42,5.42,0,0,1,1.84.29,4.37,4.37,0,0,1,1.36.76,4.24,4.24,0,0,1,1,1.08,8,8,0,0,1,.64,1.27l.27-2.25a1,1,0,0,1,1-.87h3a.58.58,0,0,1,.57.65l-2.59,19a.57.57,0,0,1-.57.49h-2.55a1.28,1.28,0,0,1-1.27-1.47C117.27,43.13,117.37,42.41,117.37,42.31ZM109,35.41a5.47,5.47,0,0,0,.71,3.84,3.43,3.43,0,0,0,3.09,1.55,4.7,4.7,0,0,0,1.95-.41,5.17,5.17,0,0,0,1.58-1.12,5.8,5.8,0,0,0,1.13-1.7,7.29,7.29,0,0,0,.6-2.13,6.46,6.46,0,0,0,0-2.11,4.91,4.91,0,0,0-.69-1.76A3.65,3.65,0,0,0,116,30.38a3.7,3.7,0,0,0-1.83-.43,4.42,4.42,0,0,0-1.95.43,5.07,5.07,0,0,0-1.58,1.19,6,6,0,0,0-1.11,1.74A8.27,8.27,0,0,0,109,35.41Z"/><path class="cls-6" d="M81.3,45.41c-2.22,0-3.43-1.41-3.17-3.26l1.11-7.92c.47-3.37-.8-4.85-3.35-4.85-2.15,0-3.86,1.63-4.26,4.48l-1.55,11a.57.57,0,0,1-.57.49h-1a2.76,2.76,0,0,1-3-3.26l1.21-8.62A9.85,9.85,0,0,1,76.91,25c4.7,0,8.14,3.15,7.35,8.81L82.7,44.91a.57.57,0,0,1-.57.49H81.3Z"/><path class="cls-6" d="M98.54,45.41H88.81c-2.29,0-3.25-1.07-3-2.63s1.63-3.44,3.8-5.48l5.8-5.48a15.81,15.81,0,0,0,2-2.26H88.25a.58.58,0,0,1-.57-.65L87.8,28c.21-1.48,1.44-2.63,3.66-2.63h9.07c2.33,0,2.91,1.41,2.75,2.55-.22,1.55-1.29,3.4-3.3,5.29l-5.76,5.4A18.12,18.12,0,0,0,92,41.13h9a.58.58,0,0,1,.57.65l-.18,1.27A3.09,3.09,0,0,1,98.54,45.41Z"/><path class="cls-6" d="M58.15,42.31c-.28.35-.8,1.09-1.13,1.46a7.47,7.47,0,0,1-1.1,1,5.12,5.12,0,0,1-1.42.72,5.75,5.75,0,0,1-1.82.27h-.11A7.74,7.74,0,0,1,49,45a7,7,0,0,1-2.58-2.21A9,9,0,0,1,45,39.46a11.77,11.77,0,0,1-.14-4.09,14,14,0,0,1,1.23-4.11A12,12,0,0,1,48.38,28a10.38,10.38,0,0,1,3.15-2.19,9.18,9.18,0,0,1,3.8-.8,5.42,5.42,0,0,1,1.84.29,4.37,4.37,0,0,1,1.36.76,4.24,4.24,0,0,1,.95,1.08,8,8,0,0,1,.64,1.27l.27-2.25a1,1,0,0,1,1-.87h3a.58.58,0,0,1,.57.65l-2.59,19a.57.57,0,0,1-.57.49H59.22A1.28,1.28,0,0,1,58,43.9C58.05,43.13,58.15,42.41,58.15,42.31Zm-8.38-6.9a5.47,5.47,0,0,0,.71,3.84,3.43,3.43,0,0,0,3.09,1.55,4.7,4.7,0,0,0,2-.41,5.17,5.17,0,0,0,1.58-1.12,5.8,5.8,0,0,0,1.13-1.7,7.29,7.29,0,0,0,.6-2.13,6.46,6.46,0,0,0,0-2.11,4.91,4.91,0,0,0-.69-1.76,3.65,3.65,0,0,0-1.28-1.19A3.7,3.7,0,0,0,55,30a4.42,4.42,0,0,0-2,.43,5.07,5.07,0,0,0-1.58,1.19,6,6,0,0,0-1.11,1.74A8.27,8.27,0,0,0,49.77,35.41Z"/><path class="cls-6" d="M29.67,43.45c-.87-4.26-2.78-13.89-3.4-17.05a.86.86,0,0,1,.84-1h4.12a.85.85,0,0,1,.85.74l1.76,12.54,6.89-12A2.57,2.57,0,0,1,43,25.38h3.11a.5.5,0,0,1,.43.76L35,44.89a1.28,1.28,0,0,1-1.1.61H32.19A2.58,2.58,0,0,1,29.67,43.45Z"/><path class="cls-6" d="M16.43,18.89a1.8,1.8,0,0,1,.44-.43,1.46,1.46,0,0,1,.78-.17h2.46a1.29,1.29,0,0,1,1.26,1c.94,4.44,4.65,22,5.43,25.75a.57.57,0,0,1-.56.68h-3.1a2.57,2.57,0,0,1-2.53-2.09c-.26-1.4-.56-3-.56-3h-11L6.34,45.12a1.29,1.29,0,0,1-1.1.62H.57a.57.57,0,0,1-.49-.87c.72-1.17,2.15-3.44,4-6.4Q8.3,32,16.43,18.89Zm1.25,7.18-5.81,9.77h7.47Z"/><g class="cls-7"><polygon class="cls-8" points="9.06 40.68 20.05 40.68 19.52 36.59 11.52 36.61 9.06 40.68"/><path class="cls-9" d="M33.84,38.65,31,44.07a2.64,2.64,0,0,1-.88-1.46L28.07,31.74,32.9,32Z"/><path class="cls-10" d="M59.47,27.11A4.24,4.24,0,0,0,58.52,26a4.7,4.7,0,0,0-1.36-.76A5.42,5.42,0,0,0,55.32,25a9.18,9.18,0,0,0-3.8.8A10.38,10.38,0,0,0,48.37,28a12,12,0,0,0-2.29,3.29s0,0,0,0l4.53,1.55a6.3,6.3,0,0,1,.89-1.27,5.22,5.22,0,0,1,1.58-1.19A4.36,4.36,0,0,1,55,30a3.7,3.7,0,0,1,1.83.43,3.56,3.56,0,0,1,1.28,1.19,4.84,4.84,0,0,1,.69,1.76,6.46,6.46,0,0,1,0,2.11l0,.22h0l1.31-7.31A13.63,13.63,0,0,0,59.47,27.11Z"/><path class="cls-11" d="M118.69,27.11a4.24,4.24,0,0,0-1-1.08,4.7,4.7,0,0,0-1.36-.76,5.42,5.42,0,0,0-1.84-.29,9.18,9.18,0,0,0-3.8.8A10.38,10.38,0,0,0,107.59,28a12,12,0,0,0-2.29,3.29s0,0,0,0l4.53,1.55a6.3,6.3,0,0,1,.89-1.27,5.22,5.22,0,0,1,1.58-1.19,4.36,4.36,0,0,1,2-.43,3.7,3.7,0,0,1,1.83.43,3.56,3.56,0,0,1,1.28,1.19,4.84,4.84,0,0,1,.69,1.76,6.46,6.46,0,0,1,0,2.11l0,.22h0l1.31-7.31A13.63,13.63,0,0,0,118.69,27.11Z"/><path class="cls-12" d="M84.26,33.79,82.7,44.92a.57.57,0,0,1-.57.49h-.84c-2.22,0-3.43-1.41-3.17-3.26l1.11-7.92c.47-3.37-.8-4.85-3.35-4.85-1.93,0-3.5,1.31-4.09,3.64A12.11,12.11,0,0,1,74,27.77,5.61,5.61,0,0,1,82.43,27C83.93,28.53,84.68,30.81,84.26,33.79Z"/><path class="cls-13" d="M91.19,41.12a16.59,16.59,0,0,1,2-2.22L99,33.42a25.28,25.28,0,0,0,1.86-1.93,1.16,1.16,0,0,0-.88-1.92H97.39a17.49,17.49,0,0,1-2.24,2.48l-5.75,5.4a12.45,12.45,0,0,0-2.8,3.66h4.59Z"/></g></g></g></svg>