<svg xmlns="http://www.w3.org/2000/svg" xmlns:xlink="http://www.w3.org/1999/xlink" viewBox="0 0 73.95 56.74"><defs><style>.cls-1{clip-path:url(#clip-path);}.cls-2{fill:none;}.cls-3{fill:url(#linear-gradient);}.cls-4{clip-path:url(#clip-path-2);}.cls-5{fill:url(#linear-gradient-2);}.cls-6{clip-path:url(#clip-path-3);}.cls-7{mask:url(#mask);}.cls-8{fill:url(#linear-gradient-3);}.cls-9{clip-path:url(#clip-path-4);}.cls-10{fill:#009aab;}.cls-11{clip-path:url(#clip-path-5);}.cls-12{clip-path:url(#clip-path-6);}.cls-13{mask:url(#mask-2);}.cls-14{fill:url(#linear-gradient-4);}.cls-15{clip-path:url(#clip-path-8);}.cls-16{fill:#009198;}.cls-17{fill:#482518;}.cls-18{fill:#8f9e32;}.cls-19{fill:#5d9236;}.cls-20{clip-path:url(#clip-path-9);}.cls-21{fill:#1f9939;}.cls-22{fill:#00943c;}.cls-23{fill:#00773b;}.cls-24{fill:#006b38;}.cls-25{fill:#005e5f;}.cls-26{fill:#00833d;}.cls-27{fill:#00973a;}.cls-28{fill:#007b3c;}.cls-29{fill:#007c3c;}.cls-30{fill:#008e3e;}.cls-31{fill:#008c42;}.cls-32{fill:#00833f;}.cls-33{fill:#008f3d;}.cls-34{fill:#009143;}.cls-35{fill:#009151;}.cls-36{fill:#007d3c;}.cls-37{fill:#00763b;}.cls-38{fill:#007e3c;}.cls-39{fill:#008642;}.cls-40{fill:#008540;}.cls-41{fill:#00955f;}.cls-42{fill:#00914e;}.cls-43{fill:#00945c;}.cls-44{fill:#00783b;}.cls-45{fill:#00713a;}.cls-46{fill:#4ea136;}.cls-47{fill:#007881;}.cls-48{fill:#006371;}.cls-49{fill:#006e79;}.cls-50{fill:#00707b;}.cls-51{fill:#007f7c;}.cls-52{fill:#054b4d;}.cls-53{fill:url(#linear-gradient-5);}.cls-54{fill:url(#linear-gradient-6);}.cls-55{fill:#135d49;}.cls-56{fill:#1b4b36;}.cls-57{fill:#009e83;}</style><clipPath id="clip-path"><path class="cls-2" d="M58,43.33c-6.64-1.14-13.05-6.3-15-2.57L39.44,46.3a17.25,17.25,0,0,0,6.17,7.07L64,53.62a17.23,17.23,0,0,0,7.79-10.88l-3.63-6.86s-3,8.69-10.22,7.45"/></clipPath><linearGradient id="linear-gradient" x1="225.08" y1="565.35" x2="225.26" y2="565.35" gradientTransform="translate(-108548.07 38162.18) rotate(-87.62) scale(189.13)" gradientUnits="userSpaceOnUse"><stop offset="0"/><stop offset="0.57"/><stop offset="0.6" stop-color="#0f0f0f"/><stop offset="0.66" stop-color="#373737"/><stop offset="0.74" stop-color="#767676"/><stop offset="0.8" stop-color="#a6a6a6"/><stop offset="0.8" stop-color="#aaa"/><stop offset="0.86" stop-color="#c9c9c9"/><stop offset="0.91" stop-color="#e0e0e0"/><stop offset="0.96" stop-color="#eee"/><stop offset="1" stop-color="#f2f2f2"/></linearGradient><clipPath id="clip-path-2"><path class="cls-2" d="M57.56,42.83c-6.64-1.14-13.05-6.3-15-2.57L39,45.8a17.25,17.25,0,0,0,6.17,7.07l18.41.25a17.23,17.23,0,0,0,7.79-10.88l-3.63-6.86s-3,8.69-10.22,7.45"/></clipPath><linearGradient id="linear-gradient-2" x1="225.09" y1="565.35" x2="225.27" y2="565.35" xlink:href="#linear-gradient"/><clipPath id="clip-path-3"><path class="cls-2" d="M58,43.33c-6.64-1.14-13.05-6.3-15-2.57L39.44,46.3a17.25,17.25,0,0,0,6.17,7.07L64,53.62a17.23,17.23,0,0,0,7.79-10.88l-3.63-6.86s-3,8.69-10.22,7.45"/></clipPath><mask id="mask" x="38.7" y="34.54" width="33.84" height="20.42" maskUnits="userSpaceOnUse"><g id="SVGID"><g class="cls-1"><polygon class="cls-3" points="38.7 53.59 39.49 34.54 72.54 35.91 71.75 54.96 38.7 53.59"/></g></g></mask><linearGradient id="linear-gradient-3" x1="225.08" y1="565.35" x2="225.26" y2="565.35" gradientTransform="translate(-108548.07 38162.3) rotate(-87.62) scale(189.13)" gradientUnits="userSpaceOnUse"><stop offset="0" stop-color="#008dad"/><stop offset="0.57" stop-color="#008dad"/><stop offset="0.8" stop-color="#008dad"/><stop offset="0.86" stop-color="#0084ab"/><stop offset="0.93" stop-color="#007ea9"/><stop offset="1" stop-color="#007ca9"/></linearGradient><clipPath id="clip-path-4"><path class="cls-2" d="M37.79,38.94A17.22,17.22,0,1,0,55,21.72,17.22,17.22,0,0,0,37.79,38.94"/></clipPath><clipPath id="clip-path-5"><rect class="cls-2" x="34.64" y="21.22" width="42.63" height="34.44"/></clipPath><clipPath id="clip-path-6"><path class="cls-2" d="M57.56,42.83c-6.64-1.14-13.05-6.3-15-2.57L39,45.8a17.25,17.25,0,0,0,6.17,7.07l18.41.25a17.23,17.23,0,0,0,7.79-10.88l-3.63-6.86s-3,8.69-10.22,7.45"/></clipPath><mask id="mask-2" x="38.3" y="34.03" width="33.85" height="20.43" maskUnits="userSpaceOnUse"><g id="SVGID-2" data-name="SVGID"><g class="cls-4"><polygon class="cls-5" points="38.3 53.08 39.09 34.03 72.15 35.41 71.35 54.46 38.3 53.08"/></g></g></mask><linearGradient id="linear-gradient-4" x1="225.09" y1="565.35" x2="225.27" y2="565.35" xlink:href="#linear-gradient-3"/><clipPath id="clip-path-8"><path class="cls-2" d="M71.83,38.43A17.22,17.22,0,1,1,54.61,21.21,17.22,17.22,0,0,1,71.83,38.43"/></clipPath><clipPath id="clip-path-9"><rect class="cls-2" x="45.41" y="25.65" width="21.7" height="20.68"/></clipPath><linearGradient id="linear-gradient-5" x1="31.14" y1="92.27" x2="31.14" y2="125.1" gradientTransform="matrix(1, 0, 0, -1, 0, 147.5)" gradientUnits="userSpaceOnUse"><stop offset="0" stop-color="#759f57"/><stop offset="0.49" stop-color="#759e54"/><stop offset="0.99" stop-color="#759b4a"/><stop offset="1" stop-color="#759b4a"/></linearGradient><linearGradient id="linear-gradient-6" x1="12.83" y1="92.15" x2="12.83" y2="125.98" xlink:href="#linear-gradient-5"/></defs><g id="Layer_2" data-name="Layer 2"><g id="Capa_1" data-name="Capa 1"><g class="cls-6"><g class="cls-7"><polygon class="cls-8" points="38.7 53.59 39.49 34.54 72.54 35.91 71.75 54.96 38.7 53.59"/></g></g><g class="cls-9"><path class="cls-10" d="M46.82,39.7c2.88.61,7.07,3.07,11.51,3.69,7.11,1,9.84-7.51,9.84-7.51S66.05,34.54,63.55,37c-1.73,1.71-4.73,5.67-16.18,2.73"/></g><g class="cls-11"><g class="cls-12"><g class="cls-13"><polygon class="cls-14" points="38.3 53.08 39.09 34.03 72.15 35.41 71.35 54.46 38.3 53.08"/></g></g></g><g class="cls-11"><g class="cls-15"><path class="cls-10" d="M46.43,39.19c2.88.61,7.07,3.07,11.51,3.69,7.11,1,9.84-7.51,9.84-7.51S65.66,34,63.16,36.5c-1.73,1.71-4.73,5.67-16.18,2.73"/></g></g><path class="cls-16" d="M48.94,25.29a.55.55,0,0,0,.73.15,12.2,12.2,0,0,1,6.58-1.65c.48,0,1,0,1.51.06A13.29,13.29,0,0,1,70.32,38.09a13.6,13.6,0,0,1-3,7.68.54.54,0,0,0,0,.74.52.52,0,0,0,.37.14.51.51,0,0,0,.37-.15A14.53,14.53,0,0,0,49,24.55a.55.55,0,0,0-.1.74"/><path class="cls-17" d="M54,40.36a8.14,8.14,0,0,1-.36,1.18,3.45,3.45,0,0,0-.2,1.08,5.91,5.91,0,0,0,.15,1.45c.12.51.32,1,.4,1.37a1.62,1.62,0,0,1,0,.86,2.92,2.92,0,0,0-.13.81A3.27,3.27,0,0,0,54,48a2.3,2.3,0,0,1,.13.52,5.62,5.62,0,0,0,0,.57c0,.19.13.36.16.54a1.32,1.32,0,0,1-.08.55,3.37,3.37,0,0,0-.15.5,2.44,2.44,0,0,0,0,.46,3.4,3.4,0,0,1-.05.7,1.91,1.91,0,0,0-.09.55c0,.19.13.42.22.8a9.34,9.34,0,0,1,.19,1.35c0,.42,0,.73.66.86a9.92,9.92,0,0,0,2.55,0c.67-.1.75-.23.79-.68s0-1.22,0-1.85.06-1.14.08-1.89,0-1.72.13-2.54.26-1.47.34-2a4.92,4.92,0,0,0,0-1.31A5.43,5.43,0,0,1,58.9,44c.05-.32.23-.56.29-.92a3.94,3.94,0,0,0-.1-1.36,9.39,9.39,0,0,0-.5-1.62,4.69,4.69,0,0,0-.79-1.3.94.94,0,0,0-.92-.28c-.38.07-.88.26-1.28.36a6.11,6.11,0,0,1-1,.13.59.59,0,0,0-.55.33c-.07.23,0,.63-.11,1"/><path class="cls-18" d="M58.14,37.68a3,3,0,0,0,.25,1.16,9.6,9.6,0,0,0,1,1.61,10.84,10.84,0,0,0,.92,1.21c.19.19.21.08.25,0s.08-.28.12-.44.08-.33.12-.47a3.45,3.45,0,0,0,.1-.43,4.37,4.37,0,0,0,.06-.59c0-.15,0-.18-.22-.23a3.16,3.16,0,0,1-.87-.34,5,5,0,0,1-1-.84,1,1,0,0,1-.3-.55c0-.14,0-.25,0-.33a.27.27,0,0,0-.19-.14c-.07,0-.1,0-.14,0a.74.74,0,0,0-.07.41"/><path class="cls-18" d="M54.8,40.71c-.18,0-.29.34-.37.64a2.53,2.53,0,0,0-.1.87,3.44,3.44,0,0,0,.24,1,11.27,11.27,0,0,0,.53,1.18c.22.43.48.92.63,1.24a4.66,4.66,0,0,1,.24.6,1.38,1.38,0,0,0,.09.24c0,.05.09.07.21-.07a6.18,6.18,0,0,0,.58-.89,7.81,7.81,0,0,0,.68-1.46c.11-.39,0-.54-.37-1s-1-1.15-1.5-1.64-.68-.75-.86-.73"/><path class="cls-18" d="M59,38.56a11.86,11.86,0,0,1,1.31,2.18,5,5,0,0,0,.48,1,1.49,1.49,0,0,0,.74.31c.32.09.7.23,1,.34a3.37,3.37,0,0,0,.75.2c.14,0,.12-.1,0-.33a4.48,4.48,0,0,0-.57-1c-.31-.42-.75-.88-1.06-1.27s-.49-.71-.6-.86S61,39,60.88,39s-.27-.07-.5-.11-.52-.09-.81-.17-.59-.19-.91-.3-.67-.21-.93-.31a1.74,1.74,0,0,1-.48-.23c-.06-.06,0-.08.13,0s.41.15.77.28a10.76,10.76,0,0,0,1.38.41,13,13,0,0,0,1.72.26,9.56,9.56,0,0,0,1.51,0,11.74,11.74,0,0,0,1.72-.22c.63-.13,1.32-.33,1.78-.47s.66-.23.71-.31-.08-.15-.32-.25a9.48,9.48,0,0,0-.93-.34,8.94,8.94,0,0,0-.93-.23l-.74-.11c-.24,0-.51-.07-.94-.09l-1.66,0c-.64,0-1.32,0-1.87,0s-1,0-1.25.09a4.64,4.64,0,0,1-.54.06c-.11,0-.16-.07,0-.12a5.69,5.69,0,0,1,1.1-.16c.56,0,1.31-.09,2-.11s1.46,0,1.91-.06a2.17,2.17,0,0,0,1-.3,13.53,13.53,0,0,0,1.31-.71,4.06,4.06,0,0,0,.92-.76c.2-.23.29-.43.23-.55s-.25-.18-.69-.19-1.13,0-1.7,0H62.6a.87.87,0,0,0-.54.12,1.88,1.88,0,0,0-.36.41,5.15,5.15,0,0,1-.46.55,7.31,7.31,0,0,1-.6.54,4.87,4.87,0,0,1-.48.37c-.15.09-.3.14-.36.09s0-.18.22-.46.77-.69,1.22-1.16a7.59,7.59,0,0,0,1.12-1.48,9.64,9.64,0,0,0,.71-1.56c.21-.57.44-1.24.56-1.67s.15-.65,0-.67a2.25,2.25,0,0,0-1,.47c-.46.31-1,.74-1.47,1.11s-.82.69-1.13,1-.56.55-.76.76-.32.38-.43.52a1.73,1.73,0,0,1-.26.3c-.08,0-.16,0-.16,0s.07-.26.34-.62.75-.88,1-1.19a2.16,2.16,0,0,0,.44-.61,6,6,0,0,0,.34-1c.1-.39.17-.82.22-1.09s.09-.38,0-.38a1.42,1.42,0,0,0-.72.32,6.67,6.67,0,0,0-.94.9,5.62,5.62,0,0,0-.52.68.84.84,0,0,0-.13.48c0,.21,0,.52,0,.87s0,.74,0,1.15-.09.83-.15,1.27-.14.88-.22,1.25-.18.65-.29,1-.23.65-.33.89a2.09,2.09,0,0,1-.27.46c-.07.08-.1.08-.11,0A1.28,1.28,0,0,1,57.1,37c.13-.39.38-1.08.55-1.61A9,9,0,0,0,58,34a8.66,8.66,0,0,0,.16-2.36A14.49,14.49,0,0,0,58,30.15a9.4,9.4,0,0,0-.39-1.52A12.25,12.25,0,0,0,57,27.19c-.23-.46-.48-.88-.63-1.15s-.21-.38-.27-.4-.15,0-.26.19a5.29,5.29,0,0,0-.39.74,4.85,4.85,0,0,0-.36,1.13A9.82,9.82,0,0,0,55,29.36,18.88,18.88,0,0,0,55,31.41a18.66,18.66,0,0,0,.34,2.25,16.46,16.46,0,0,0,.47,1.66c.16.5.3,1,.38,1.33a1,1,0,0,1,.06.5c0,.08-.07.12-.23-.2a9.77,9.77,0,0,1-.65-1.81A23.18,23.18,0,0,1,55,32.62c-.1-.74-.15-1.25-.19-1.69a4.31,4.31,0,0,0-.08-.83"/><path class="cls-18" d="M54.5,30.16c-.68-1-1.07-1.61-1.35-2.05s-.45-.67-.54-.8-.11-.14-.16-.08a1.38,1.38,0,0,0-.2.41,3.86,3.86,0,0,0-.16.81c0,.31-.05.64-.06.87a.74.74,0,0,0,.14.57,5.4,5.4,0,0,0,.67.72c.24.23.43.41.66.65s.49.55.68.79.31.4.38.51.09.16.08.2,0,.06-.2-.08-.42-.44-.72-.77l-.94-1c-.3-.32-.56-.6-.78-.82a6.76,6.76,0,0,0-.66-.56A8.65,8.65,0,0,0,50.5,29a4.36,4.36,0,0,0-.83-.35,3.76,3.76,0,0,0-.64-.15c-.16,0-.26,0-.3.08s0,.24.06.52.23.68.43,1.19.46,1.11.67,1.6.38.85.52,1.17a9.61,9.61,0,0,0,.44.92,6.13,6.13,0,0,0,.63.9,3.81,3.81,0,0,0,.46.42,4.15,4.15,0,0,1,.36.39c.09.11.13.17.13.2s0,0-.09,0a1.35,1.35,0,0,1-.27-.18,5.51,5.51,0,0,1-.46-.43c-.17-.18-.35-.38-.51-.57s-.29-.37-.4-.47a.65.65,0,0,0-.38-.14l-.63-.13-.62-.13c-.22,0-.47-.08-.74-.11a8,8,0,0,0-.87,0H46.14c-.07,0-.07,0,0,0l.22.24.5.58c.16.19.29.31.41.43a4.06,4.06,0,0,0,.43.35l.54.37a4,4,0,0,0,.37.25.53.53,0,0,0,.36,0c.2,0,.51-.12.8-.17a4.11,4.11,0,0,1,.89,0c.36,0,.83,0,1.18.08a6.36,6.36,0,0,1,.74.13l.32.06a5.33,5.33,0,0,1,.58.19l.7.28a6.28,6.28,0,0,1,.59.27c.2.11.44.24.61.35a2,2,0,0,1,.32.24c.05.06.06.09,0,.1s-.12,0-.32-.1l-.78-.42-.77-.39c-.25-.12-.49-.23-.7-.31a2.22,2.22,0,0,0-.59-.15c-.24,0-.56-.06-.92-.08l-1.07,0a4.6,4.6,0,0,0-.77,0c-.25,0-.56.14-.86.23s-.6.18-1,.32a8.23,8.23,0,0,0-1.13.54,10,10,0,0,0-.88.63c-.21.17-.32.25-.18.37a3.75,3.75,0,0,0,.94.42,15.43,15.43,0,0,0,1.48.47,16.19,16.19,0,0,0,1.94.34c.7.07,1.42.1,2,.12l1.1,0c.19,0,.19,0,.13,0a2.47,2.47,0,0,1-.51.12l-1.06.12a1.84,1.84,0,0,0-.53.1c-.09,0-.13.1-.26.26s-.34.42-.58.74-.51.68-.7,1a5.47,5.47,0,0,0-.39.72,4,4,0,0,0-.18.47c0,.1,0,.14.1.15a4.09,4.09,0,0,0,.71,0c.31,0,.66-.08.86-.12s.26-.06.32-.24a6.62,6.62,0,0,0,.2-.71,1.75,1.75,0,0,1,.17-.47,5.76,5.76,0,0,1,.42-.67,3.71,3.71,0,0,1,.69-.72c.34-.28.86-.65,1.3-1l1.06-.7a2.21,2.21,0,0,1,.47-.24c.08,0,.09,0-.1.16l-1,.72c-.41.29-.82.6-1.12.83a7.79,7.79,0,0,0-.65.55,3.48,3.48,0,0,0-.5.59,5.7,5.7,0,0,0-.52.9,3.77,3.77,0,0,0-.24.89c-.06.33-.15.74-.19,1.12a8.06,8.06,0,0,0-.06,1,3.23,3.23,0,0,0,0,.62c0,.12.08.14.24.07s.44-.23.73-.38.58-.27.84-.4a5.8,5.8,0,0,0,.67-.36,1.63,1.63,0,0,0,.48-.42,2.6,2.6,0,0,0,.24-.52.91.91,0,0,0,.09-.35c0-.14,0-.35,0-.64a6.09,6.09,0,0,1,.08-1.06,5.19,5.19,0,0,1,.35-1.26,11.5,11.5,0,0,1,.61-1.16c.2-.36.35-.69.48-.91a1.54,1.54,0,0,1,.28-.38c.07,0,.1,0,.1.05a1.13,1.13,0,0,1-.15.45c-.11.21-.29.48-.48.82A12.32,12.32,0,0,0,55,40.38a6.74,6.74,0,0,0-.38,1.18,3.46,3.46,0,0,0-.07,1.25,4.73,4.73,0,0,0,.43,1.3c.19.38.39.68.54,1a6.08,6.08,0,0,1,.35.75l.22.57c0,.13.06.18.17,0a8.58,8.58,0,0,0,.52-1.1,11.38,11.38,0,0,0,.52-1.74,6.23,6.23,0,0,0,.12-1.64,9.44,9.44,0,0,0-.23-1.5c-.1-.45-.21-.83-.32-1.2l-.28-1c-.06-.21-.08-.27-.06-.29s.07,0,.17.18.23.58.35,1,.21.73.31,1.12.2.82.27,1.19.08.68.11,1a1.76,1.76,0,0,0,.17.75,2.29,2.29,0,0,0,.69.61c.37.26.91.64,1.34.91a6.94,6.94,0,0,0,.94.51c.19.08.26.08.24-.17s-.15-.74-.26-1.19-.23-.89-.38-1.33a11.64,11.64,0,0,0-.53-1.4c-.22-.49-.5-1-.72-1.38s-.38-.67-.46-.85-.09-.25.09-.21"/><path class="cls-19" d="M57.37,42.17c.3-.16.86-.31,1.36-.52a5.23,5.23,0,0,1,1.18-.48c.25,0,.32.27.42.59s.24.69.36,1.18.24,1.09.3,1.45.06.5-.05.55-.31,0-.62-.16A12.28,12.28,0,0,1,59.18,44c-.44-.31-.93-.65-1.3-.88a3.09,3.09,0,0,1-.73-.5c-.1-.15-.07-.33.22-.49"/><path class="cls-18" d="M56.3,37.54c.19-.11.66.09,1.06.25l.89.36c.19.07.27.09.34.18a5.5,5.5,0,0,1,.34.58c.2.35.53.9.78,1.38a3.4,3.4,0,0,1,.43,1.15c0,.26-.16.35-.52.43s-.92.15-1.35.22-.73.13-1-.18a4.44,4.44,0,0,1-.65-1.64c-.15-.64-.22-1.23-.31-1.72s-.19-.91,0-1"/><path class="cls-18" d="M51,36.24c0,.2-.11,1.06-.1,1.6s.14.74.53.92a11.72,11.72,0,0,0,1.28.4c.24.07.07.08-.15.08s-.49,0-.76,0a7.18,7.18,0,0,1-1,0c-.45,0-1.07-.12-1.64-.22s-1.08-.23-1.51-.35a11.47,11.47,0,0,1-1.1-.38L45.8,38c-.18-.09-.26-.15-.16-.29s.36-.37,1.22-.49A24.49,24.49,0,0,0,50,36.78c.81-.25,1-.73,1-.54"/><path class="cls-19" d="M54.54,30.37a8,8,0,0,0-.62-1.67A7.07,7.07,0,0,0,53,27.4a1.41,1.41,0,0,0-.55-.43c-.12,0-.21,0-.32.33a16.24,16.24,0,0,0-.32,1.63,1.09,1.09,0,0,0,.22,1c.28.38.83,1,1.34,1.57s1,1.17,1.2,1.51.26.43.26.22,0-.71-.06-1.24a10.9,10.9,0,0,0-.27-1.65"/><path class="cls-19" d="M50.66,33.4a4.46,4.46,0,0,0,.66,1.2,3.49,3.49,0,0,0,.9.93,12.36,12.36,0,0,0,1.21.6c.55.27,1.3.69,1.73.92s.53.28.62.25.18-.14.12-.43a4,4,0,0,0-.61-1.24,4.56,4.56,0,0,0-1.56-1.48,10.36,10.36,0,0,0-2.41-.92c-.6-.14-.74-.1-.66.17"/><path class="cls-18" d="M58.26,32.93a10.35,10.35,0,0,1,2.39-2.53c.68-.52,1.38-1,1.86-1.33a2.08,2.08,0,0,1,.91-.37c.17,0,.24,0,.21.28a7.42,7.42,0,0,1-.45,1.55,16.37,16.37,0,0,1-1.31,2.89,14,14,0,0,1-2.11,2.32"/><path class="cls-19" d="M59.6,30.87a.48.48,0,0,0,.52-.34,5.15,5.15,0,0,0,.2-.56,7,7,0,0,0,.17-.69c0-.26.09-.54.12-.75a2.27,2.27,0,0,0,0-.44c0-.09,0-.13,0-.14s0,0-.24.11-.56.39-.89.67a6.49,6.49,0,0,0-.83.83,4.27,4.27,0,0,0-.46.67c-.1.16-.15.24.15.36a4.49,4.49,0,0,0,1.3.28"/><path class="cls-18" d="M56.41,25.66a.18.18,0,0,1,.16.06,1.78,1.78,0,0,1,.21.28c.09.15.21.35.36.63s.34.63.5,1a10.27,10.27,0,0,1,.44,1.11,13.65,13.65,0,0,1,.42,1.51,6.3,6.3,0,0,1,.13,1.68,16,16,0,0,1-.33,2.36c-.18.89-.43,1.84-.58,2.37s-.21.63-.42.54a2.07,2.07,0,0,1-.85-.83,7.13,7.13,0,0,1-.6-1.68A2.78,2.78,0,0,1,55.77,33c.18-.61.64-1.38.85-2.1a4.9,4.9,0,0,0,.06-2.12c-.09-.71-.23-1.45-.34-2a5.13,5.13,0,0,1-.18-1,.22.22,0,0,1,.25-.18"/><path class="cls-18" d="M56.78,37.34a15.6,15.6,0,0,0,1.12-3.78A9,9,0,0,0,58,31a10.19,10.19,0,0,0-.63-2.62,16.37,16.37,0,0,0-1.06-2.17c-.29-.51-.43-.74-.6-.64a2.83,2.83,0,0,0-.56.92,5.84,5.84,0,0,0-.47,1.14A6.1,6.1,0,0,0,54.58,29c0,.56,0,1.25.05,2.13a15.62,15.62,0,0,0,.45,3c.29,1.12.77,2.29.87,2.8"/><path class="cls-18" d="M55.86,37.1a7.35,7.35,0,0,0-8.31-.58,11.18,11.18,0,0,0-1.21.76c-.28.21-.45.37-.46.47s.11.12.4.26a11.87,11.87,0,0,0,1.33.58,12.58,12.58,0,0,0,2.19.51,10.56,10.56,0,0,0,3.68.07"/><path class="cls-19" d="M55.38,26a7.42,7.42,0,0,0-.64,1.39A5.71,5.71,0,0,0,54.52,29a20.17,20.17,0,0,0,.08,2.09c.07.81.18,1.75.29,2.28s.2.66.26.55.09-.47.3-1,.62-1.23.86-1.84a3.3,3.3,0,0,0,.18-2,25.06,25.06,0,0,0-.68-2.72,4.22,4.22,0,0,0-.23-.71l0,0s0,0-.17.28"/><path class="cls-18" d="M51.54,44.43c.23-.26.64-.76,1.13-1.26a17.87,17.87,0,0,0,1.38-1.43,3.31,3.31,0,0,0,.57-1.48,17.84,17.84,0,0,1,.55-2.21,3.36,3.36,0,0,1,.55-1c0-.07-.15.09-.5.34s-.87.58-1.31.9a8,8,0,0,0-1.15,1,5.44,5.44,0,0,0-.89,1.23A5.53,5.53,0,0,0,51.41,42c-.1.52-.18,1.06-.22,1.5a7,7,0,0,0,0,1c0,.18,0,.22.07.23s.08,0,.31-.26"/><path class="cls-19" d="M57.55,36.91c.82,0,1.9,0,2.87.1a15.62,15.62,0,0,1,2.52.35,5.1,5.1,0,0,1,1.54.63c.35.23.53.44.25.63a5,5,0,0,1-1.75.43,14.21,14.21,0,0,1-2,.06,7,7,0,0,1-1.71-.22,15.07,15.07,0,0,1-1.84-.71c-.6-.26-1.14-.5-1.43-.67s-.35-.28-.09-.38a5.52,5.52,0,0,1,1.67-.22"/><path class="cls-18" d="M50.69,33.87a3,3,0,0,0-1.08-.47,9.62,9.62,0,0,0-1.86-.16,12.41,12.41,0,0,0-1.52,0c-.27,0-.19.13-.11.23l.28.35c.1.13.21.26.31.37a3.8,3.8,0,0,0,.29.33,3.74,3.74,0,0,0,.44.39c.12.08.17.07.31,0a3.14,3.14,0,0,1,.78-.51,4.9,4.9,0,0,1,1.26-.33.85.85,0,0,1,.62.08c.12.07.19.18.27.2s.17,0,.23-.07.09-.07.07-.12-.08-.14-.29-.29"/><path class="cls-19" d="M51.14,45.39c-.13.21,0,.27.13.2s.48-.28.87-.48.87-.41,1.22-.59a2,2,0,0,0,.73-.57,1.77,1.77,0,0,0,.33-.73,5,5,0,0,0,0-.84,7.73,7.73,0,0,1,.21-1.63c.16-.59.42-1.15.31-1.27s-.6.18-.94.82-.56,1.64-.89,2.4A6.43,6.43,0,0,1,52,44.41a7.83,7.83,0,0,0-.84,1"/><path class="cls-18" d="M60.82,36.34a11.17,11.17,0,0,0,1.87-1,13.22,13.22,0,0,1,2-.65,4.59,4.59,0,0,0,1.14-.44c.21-.13.28-.25.19-.36s-.33-.2-.88-.27a16.59,16.59,0,0,0-2-.1,5.57,5.57,0,0,0-1.3.12,2.1,2.1,0,0,0-.91.44c-.37.28-.87.76-1.32,1.19a13.84,13.84,0,0,1-1.17,1.06c-.34.25-.63.37-.15.37a11.32,11.32,0,0,0,2.54-.39"/><path class="cls-19" d="M63.07,30.86a13.89,13.89,0,0,1-.65,1.72,8,8,0,0,1-1.06,1.64c-.4.49-.85,1-1.19,1.3s-.58.57-.75.72a.88.88,0,0,1-.48.26c-.21,0-.54.06-.79.09s-.42.06-.42-.1a3,3,0,0,1,.48-1A17.73,17.73,0,0,1,59.29,34a7.11,7.11,0,0,1,1.22-1.23c.44-.34.93-.6,1.33-.87a4.93,4.93,0,0,0,.89-.8,2.25,2.25,0,0,0,.31-.45l.1-.16s0,0,0,0,0,0-.1.36"/><path class="cls-19" d="M61,36.28a3.19,3.19,0,0,1,1.44-1A23.55,23.55,0,0,1,65,34.43c.67-.2.89-.34,1-.33s.11.18-.17.5a7,7,0,0,1-1.42,1.14,6.65,6.65,0,0,1-1.7.76,4.36,4.36,0,0,1-1.39.2c-.32,0-.49-.15-.34-.42"/><path class="cls-19" d="M55.84,37c.21,0,.43.33.62.77a8,8,0,0,1,.44,1.37,10.79,10.79,0,0,1,.18,1.19,16.8,16.8,0,0,1,.12,1.79A5.32,5.32,0,0,1,57,43.36c-.08.3-.14.5-.43.29a5.5,5.5,0,0,1-1.15-1.42,8,8,0,0,1-.65-1.58,6,6,0,0,1-.29-.93,1.67,1.67,0,0,1,.18-.78c.14-.31.34-.72.54-1.12s.4-.8.62-.83"/><path class="cls-19" d="M47.35,35.1c0-.11.08-.22.22-.33a2.93,2.93,0,0,1,.55-.34,3.75,3.75,0,0,1,.86-.29,4.81,4.81,0,0,1,1-.1,2.16,2.16,0,0,1,.66.12,2,2,0,0,1,.6.31,8.57,8.57,0,0,1,.82.69c.24.23.38.41.46.49s.09.09-.09.06-.55-.09-.86-.12a6.42,6.42,0,0,0-.88,0c-.33,0-.74.05-1.08.09a4.53,4.53,0,0,0-.83.16c-.22.07-.39.15-.51.17a.3.3,0,0,1-.29-.12c-.11-.1-.26-.26-.39-.4s-.27-.26-.28-.38"/><path class="cls-18" d="M60.39,41.67c2.24.81,2.52.86,2.66.82s.15-.17.05-.47a5.19,5.19,0,0,0-.76-1.36,23.26,23.26,0,0,0-1.61-1.88"/><path class="cls-18" d="M57.52,36.75a5.16,5.16,0,0,1,1.72-.36c.87,0,2,0,2.79.07s1.1,0,1.43,0a5.88,5.88,0,0,1,1,.16,7.26,7.26,0,0,1,2,.74,2.61,2.61,0,0,1,.35.2s.06.06-.17.17-.73.31-1.11.46a1.54,1.54,0,0,1-.84.2c-.18-.06-.25-.3-.73-.53a7.7,7.7,0,0,0-2.42-.6c-1.08-.12-2.37-.14-3.18-.18A6.79,6.79,0,0,1,57.15,37a.26.26,0,1,1,.07,0,.64.64,0,0,1,.3-.2"/><g class="cls-20"><path class="cls-18" d="M50.63,34l-.33-.06-.38-.08-.23,0-.26-.05-.59-.07c-.21,0-.43,0-.66,0l-.35,0H46.11l0,0s0,0,0,0v0a.61.61,0,0,0,.09.13l.11.14.22.27.1.13.11.13a2.5,2.5,0,0,0,.22.24c.15.15.28.29.42.41s.14.11.2.17l.19.14.32.21.29.17-.31-.14c-.1,0-.21-.11-.34-.18l-.2-.13a1.66,1.66,0,0,1-.21-.16c-.14-.11-.29-.26-.45-.4l-.23-.23-.12-.12-.11-.13-.22-.27-.11-.14a.62.62,0,0,1-.12-.17.11.11,0,0,1,0-.06.14.14,0,0,1,0-.06l0,0,0,0h1.77l.35,0a6.62,6.62,0,0,1,.66.08l.59.11a4.93,4.93,0,0,1,.49.13l.37.11.32.08"/></g><g class="cls-20"><path class="cls-18" d="M51.17,39.4l-.16.2c-.1.13-.26.3-.43.53l-.28.36L50,40.9l-.15.22-.07.11-.07.12c-.09.16-.2.32-.28.48a3.81,3.81,0,0,0-.23.5,1.09,1.09,0,0,0-.07.24s0,0,0,0v0a.1.1,0,0,0,0,0h.5l.45,0,.38,0,.29,0,.26,0-.25.06c-.16,0-.39.09-.67.13l-.45.07-.25,0a.87.87,0,0,1-.28,0,.18.18,0,0,1-.09,0l0-.06a.06.06,0,0,1,0,0h0s0,0,0,0h0v-.14l0-.14.05-.14c.06-.17.15-.35.23-.52s.2-.32.29-.48l.07-.12.08-.11.16-.22.32-.4.3-.34a2.42,2.42,0,0,1,.27-.28l.21-.21a1.83,1.83,0,0,1,.18-.19"/></g><g class="cls-20"><path class="cls-18" d="M54.23,29.59l-.15-.19-.37-.5-.52-.71c-.09-.13-.2-.26-.3-.39s-.11-.13-.16-.19-.11-.13-.17-.18l-.08-.05s0,0,0,0a.67.67,0,0,0-.09.19c0,.15-.09.32-.13.48s-.06.31-.09.45,0,.28-.06.41,0,.47-.06.62,0,.24,0,.24,0-.09,0-.24a2.62,2.62,0,0,0,0-.27,2.08,2.08,0,0,1,0-.35q0-.2,0-.42c0-.15,0-.31.07-.47a5,5,0,0,1,.12-.49.82.82,0,0,1,.13-.27.19.19,0,0,1,.2-.06.47.47,0,0,1,.14.08,1.8,1.8,0,0,1,.19.2c.06.07.12.13.17.2s.2.27.29.41.34.53.48.75.24.41.32.54l.11.2"/></g><g class="cls-20"><path class="cls-18" d="M62,33.79l.37,0,1,0c.4,0,.87,0,1.38,0h.78a3.05,3.05,0,0,1,.41,0,.82.82,0,0,1,.41.18.24.24,0,0,1,.07.12v0h0v.1a.56.56,0,0,1-.07.24,1.72,1.72,0,0,1-.24.34,7,7,0,0,1-.58.53l-.3.23a3.13,3.13,0,0,1-.3.2c-.2.12-.39.24-.57.33a1.53,1.53,0,0,1-.27.11l-.13,0-.12,0a2.92,2.92,0,0,1-.42.09l-.37,0,.36-.08a2.73,2.73,0,0,0,.4-.11l.12,0,.12-.06L64.3,36c.18-.09.35-.22.54-.34a2.92,2.92,0,0,0,.28-.21l.15-.11.14-.11a5.48,5.48,0,0,0,.56-.52,1.54,1.54,0,0,0,.21-.31.53.53,0,0,0,0-.15v-.08h0a.09.09,0,0,0,0,0,.59.59,0,0,0-.32-.13,2.47,2.47,0,0,0-.38-.05c-.26,0-.52,0-.77,0l-.72,0h-.65l-1,0a2.07,2.07,0,0,0-.38-.05"/></g><g class="cls-20"><path class="cls-18" d="M56.88,37.29s.13-.35.37-1c.06-.15.11-.33.17-.51l.19-.61c0-.22.11-.46.17-.71s.1-.51.16-.79.09-.57.12-.87,0-.61,0-.93v-.24c0-.08,0-.16,0-.24a3.87,3.87,0,0,0-.05-.49c0-.17,0-.34-.08-.51s-.07-.34-.11-.51a10.71,10.71,0,0,0-.72-2c-.08-.16-.16-.33-.25-.49l-.27-.49c-.19-.32-.37-.66-.57-.95,0-.07-.12-.14-.15-.14s-.11.07-.14.12a5.3,5.3,0,0,0-.28.47c-.17.33-.35.66-.49,1a5.35,5.35,0,0,0-.26,2.1V30c0,.17,0,.34,0,.51,0,.34,0,.67,0,1s.06.63.09.93.09.59.13.86.12.54.17.79.14.48.2.7c.13.44.26.81.36,1.13s.18.56.22.73.07.26.07.26l-.08-.26c0-.17-.14-.41-.25-.72s-.25-.68-.39-1.12c-.07-.22-.15-.45-.22-.7s-.13-.51-.19-.79-.11-.57-.15-.87-.08-.62-.1-.94,0-.66-.06-1c0-.17,0-.34,0-.51V29.5c0-.35,0-.71,0-1.08a4.86,4.86,0,0,1,.07-.55l0-.14,0-.13c0-.09.06-.18.1-.27.14-.35.32-.67.49-1a3.6,3.6,0,0,1,.29-.5,1.43,1.43,0,0,1,.11-.12l0,0h0l.11,0a.28.28,0,0,1,.17.09l.1.12c.22.32.39.65.58,1l.27.49c.08.17.17.34.25.5A11.46,11.46,0,0,1,58,29.87c0,.17.07.35.11.52s0,.34.07.51a4.38,4.38,0,0,1,0,.51c0,.08,0,.17,0,.25v.25a9.29,9.29,0,0,1-.06.94c0,.3-.08.59-.14.87s-.1.54-.17.79l-.19.7c-.07.22-.14.42-.21.61s-.12.36-.19.51c-.23.62-.38,1-.38,1"/></g><g class="cls-20"><path class="cls-18" d="M57.85,42.86l.39.26,1,.68.33.22.36.22.39.23.2.12a2,2,0,0,0,.21.1l.21.08h.09s0,0,0,0a.88.88,0,0,0,0-.43c-.05-.33-.14-.65-.22-1l-.12-.5c0-.16-.09-.32-.14-.48s-.09-.32-.14-.47-.11-.31-.17-.46-.11-.3-.16-.44L60,40.57c-.12-.26-.22-.52-.35-.74l-.33-.61c-.1-.18-.21-.33-.28-.46l-.2-.28a.59.59,0,0,1-.07-.1l.08.09.22.27c.09.12.2.27.31.44s.24.37.37.6.25.48.38.74.14.27.2.41.11.29.17.44.11.3.17.46l.15.48.15.49c.05.16.09.33.13.5.08.33.16.67.21,1l0,.26a.71.71,0,0,1,0,.14s0,0,0,.07v0l0,0a.16.16,0,0,1-.07.07l-.09,0H61a1.34,1.34,0,0,1-.24-.09l-.21-.11-.2-.13-.38-.25-.36-.23-.32-.24-1-.74-.4-.29"/></g><g class="cls-20"><path class="cls-18" d="M60.55,41.59l.3.09.8.24,1.13.33.31.07h.15s0,0,0,0h0v0a.54.54,0,0,0-.06-.28c0-.1-.08-.21-.13-.31s-.09-.2-.15-.3-.12-.19-.17-.29-.24-.37-.38-.53L62,40.08l-.35-.43c-.23-.26-.41-.48-.55-.63l-.2-.24.23.22.6.59c.12.12.24.27.37.41l.41.47.11.13.1.13.2.28.18.3.17.31c.05.11.09.21.13.32a1.09,1.09,0,0,1,0,.17.48.48,0,0,1,0,.21.09.09,0,0,1,0,.06l-.05.06a.11.11,0,0,1-.06,0h0s0,0,0,0a.45.45,0,0,1-.2,0l-.33-.08c-.42-.12-.79-.27-1.12-.38l-.78-.3-.28-.13"/></g><g class="cls-20"><path class="cls-18" d="M57.59,36.73l.22,0a5.69,5.69,0,0,1,.62-.11l.45-.06.53-.05.6,0,.67,0c.47,0,1,0,1.5,0l.82.05c.28,0,.56,0,.86.08s.58.09.88.14a8.79,8.79,0,0,1,.88.24c.15,0,.29.1.44.15s.29.12.43.18l.42.19.11.06.07.06a.12.12,0,0,1,0,.1s0,.06,0,.06a.49.49,0,0,1-.12.08l-.11.05-.88.31-.89.26a11.18,11.18,0,0,1-1.77.32,13.76,13.76,0,0,1-1.68,0h-.4l-.38,0-.37,0-.35-.06-.34-.06-.32-.08c-.2-.06-.4-.1-.58-.17l-.5-.17L58,38l-.58-.24-.2-.09.21.08L58,38l.42.15.5.15c.18.06.38.1.58.15l.32.07.34,0,.35.05.37,0,.38,0h.39a7.6,7.6,0,0,0,.82,0l.85-.06a11.19,11.19,0,0,0,1.75-.33l.88-.26.87-.31.1,0,.07,0s0,0,0,0,0,0,0,0h0l-.09,0-.42-.19L66,37.22a3.12,3.12,0,0,0-.43-.15c-.29-.1-.58-.17-.87-.24a8.74,8.74,0,0,0-.87-.14L63,36.6l-.82-.06c-.53,0-1,0-1.5,0s-.89,0-1.27,0l-.53,0-.45,0-.62.09-.22,0"/></g><g class="cls-20"><path class="cls-18" d="M54.6,32.65l-.46-.5-.53-.57-.71-.71c-.13-.12-.28-.25-.42-.39a4.55,4.55,0,0,0-.46-.4c-.16-.13-.33-.28-.5-.4l-.27-.2-.14-.1L51,29.29l-.29-.18L50.37,29a3.09,3.09,0,0,0-.32-.14l-.16-.06-.17-.05a2.21,2.21,0,0,0-.35-.08,2,2,0,0,0-.35,0h-.23l0,0a.23.23,0,0,0,0,.13.5.5,0,0,0,0,.17,2.46,2.46,0,0,0,.09.34,3.4,3.4,0,0,0,.12.34c.08.23.18.45.28.67l.57,1.3.53,1.22c.17.39.33.75.49,1.08a4.87,4.87,0,0,0,.27.45,1.56,1.56,0,0,0,.14.19l.15.17c.1.12.2.21.29.3l.25.25.49.47-.51-.44L51.66,35c-.09-.09-.2-.18-.3-.29l-.16-.17c-.06-.06-.1-.13-.15-.19a2.89,2.89,0,0,1-.29-.45c-.18-.33-.34-.69-.52-1.07s-.36-.79-.55-1.21l-.58-1.3c-.1-.22-.21-.44-.29-.67s-.09-.23-.13-.35a2.24,2.24,0,0,1-.1-.37,1.23,1.23,0,0,1,0-.19.41.41,0,0,1,0-.23.31.31,0,0,1,.21-.12h.39l.19,0a1.9,1.9,0,0,1,.36.08l.17,0,.18.07a3.31,3.31,0,0,1,.33.15l.32.17.3.19.15.09.14.1.27.2c.18.13.34.29.5.42l.45.42.41.4.68.74c.2.22.36.43.5.59l.44.53"/></g><g class="cls-20"><path class="cls-18" d="M55.43,38l-.48.33-.55.38c-.21.15-.46.31-.71.5l-.4.3a3.12,3.12,0,0,0-.41.33l-.42.37c-.13.14-.26.28-.38.43a3.71,3.71,0,0,0-.6,1,6.78,6.78,0,0,0-.28,1.22c-.06.42-.1.84-.14,1.26,0,.21,0,.41-.05.62s0,.2,0,.3a.38.38,0,0,0,0,.23h.08l.12,0c.09,0,.17-.08.26-.12l.5-.25,1-.41c.15-.06.28-.13.42-.18l.19-.08.17-.1a1.38,1.38,0,0,0,.48-.44,4.19,4.19,0,0,0,.21-.38,1.42,1.42,0,0,1,.07-.14l-.06.14a3.23,3.23,0,0,1-.19.39,1.68,1.68,0,0,1-.48.48l-.17.11-.19.1-.41.2-.93.43-.5.26-.27.13-.16,0H51a.22.22,0,0,1-.11,0,.24.24,0,0,1-.07-.18.92.92,0,0,1,0-.16,3,3,0,0,1,0-.31c0-.2,0-.41,0-.62,0-.42.07-.84.13-1.27a6.7,6.7,0,0,1,.3-1.25A4.22,4.22,0,0,1,52,40.59c.14-.16.27-.3.41-.44l.43-.36c.14-.12.29-.22.43-.32l.41-.29c.26-.19.51-.34.73-.48l.57-.35.48-.32"/></g><g class="cls-20"><path class="cls-18" d="M58.38,33l.39-.52.21-.27.12-.15.14-.16.31-.34.17-.18.19-.18.41-.37.47-.37c.33-.24.67-.5,1-.75l.56-.37.29-.19L63,29a1.68,1.68,0,0,1,.7-.21.27.27,0,0,1,.12,0,.18.18,0,0,1,.11.1.44.44,0,0,1,0,.22.84.84,0,0,1,0,.18,1.16,1.16,0,0,1,0,.18c-.12.47-.29.91-.45,1.35-.09.22-.17.43-.26.64l-.27.62a10,10,0,0,1-.6,1.13l-.16.26c0,.09-.12.16-.17.24s-.22.3-.34.43a9,9,0,0,1-.69.69l-.55.5-.48.43.46-.46.52-.53c.21-.2.42-.44.65-.7s.21-.29.33-.44.12-.16.16-.24l.15-.26A11.9,11.9,0,0,0,62.73,32c.09-.2.17-.41.26-.62s.17-.43.25-.64a12.7,12.7,0,0,0,.43-1.32.85.85,0,0,0,0-.17l0-.17a.27.27,0,0,0,0-.13s0,0-.07,0a1.69,1.69,0,0,0-.63.19l-.31.16-.28.18-.56.36-1,.73-.47.35-.42.35-.19.17-.17.18-.32.32-.15.15-.12.15-.22.26c-.25.34-.4.52-.4.52"/></g><g class="cls-20"><path class="cls-18" d="M56.15,37.77l-.38.69c-.12.22-.27.48-.43.79-.08.15-.17.32-.25.49L55,40l-.12.29a5.18,5.18,0,0,0-.2.63c0,.22-.09.46-.13.7a2.23,2.23,0,0,0,0,.73s0,.07,0,.09l0,.09c0,.06,0,.13,0,.19l.13.36c.2.49.47,1,.72,1.48l.39.76.19.38c.07.13.12.27.18.39a.21.21,0,0,0,0,.07s0,0,0,0,0,0,0,0l.05-.06L56.3,46l.22-.36c.14-.24.26-.5.38-.74a8.26,8.26,0,0,0,.55-1.53c0-.13.06-.26.08-.38s0-.26,0-.39,0-.25,0-.37,0-.25,0-.37,0-.24,0-.36a3.43,3.43,0,0,0-.06-.34l-.15-.65c-.05-.21-.09-.41-.13-.6s-.1-.36-.15-.53c-.1-.33-.18-.62-.25-.86l-.22-.75.25.74.29.86c0,.17.12.34.17.53l.15.6c0,.21.11.42.16.65s.05.23.07.35l.06.36,0,.38c0,.13,0,.26,0,.39s0,.26,0,.39,0,.26-.08.4A8.37,8.37,0,0,1,57.05,45c-.13.25-.25.52-.39.77l-.22.36-.06.09-.08.1a.19.19,0,0,1-.1,0,.15.15,0,0,1-.12-.06A.41.41,0,0,1,56,46.2c-.06-.14-.11-.27-.17-.39l-.19-.38-.38-.76c-.25-.5-.51-1-.71-1.49,0-.13-.09-.26-.14-.38s0-.13,0-.19l0-.09a.38.38,0,0,1,0-.1,2.2,2.2,0,0,1,0-.77c0-.24.09-.48.14-.7a5.34,5.34,0,0,1,.21-.64c0-.1.09-.19.13-.29s.1-.18.14-.27.18-.33.27-.48c.17-.3.33-.56.46-.78.27-.48.42-.72.42-.72"/></g><g class="cls-20"><path class="cls-18" d="M58.13,30.4l.14-.25.17-.28.1-.17.13-.18c.1-.12.2-.26.32-.39l.2-.19a1.3,1.3,0,0,1,.22-.19c.16-.12.31-.24.49-.35a2.54,2.54,0,0,1,.57-.29l.09,0h.18l0,0a.25.25,0,0,1,.09.09.63.63,0,0,1,0,.35,5.15,5.15,0,0,1-.11.59c0,.19-.08.37-.11.54s-.09.33-.14.48-.05.15-.08.21l-.08.18c0,.06,0,.11-.08.16l-.08.13-.15.24.11-.26.06-.13.06-.16c0-.12.09-.25.13-.4a4.91,4.91,0,0,0,.11-.48c0-.17.06-.36.09-.55s.07-.39.09-.58a.49.49,0,0,0,0-.25s-.08,0-.17,0a2.41,2.41,0,0,0-.53.27l-.25.16-.24.17a1.92,1.92,0,0,0-.22.18l-.2.18c-.12.12-.23.25-.33.36a1.87,1.87,0,0,0-.26.33l-.19.26-.17.21"/></g><g class="cls-20"><path class="cls-18" d="M55.63,37.14l-.71-.4-.38-.19a4,4,0,0,0-.46-.21,7.91,7.91,0,0,0-1.14-.4,6.73,6.73,0,0,0-1.41-.21l-.78,0c-.27,0-.54,0-.81,0a7.94,7.94,0,0,0-.83.13,6,6,0,0,0-.82.27,11,11,0,0,0-1.57.79l-.19.11-.18.12-.37.24a3,3,0,0,0-.33.27l-.06.07a0,0,0,0,0,0,0h0v0s0,0,.05,0l.1,0c.27.11.53.24.79.36l.78.31a12.13,12.13,0,0,0,1.55.39c.5.09,1,.18,1.42.23s.85.09,1.21.1H52l.43,0a5.42,5.42,0,0,0,.6-.06l.21,0-.21,0c-.14,0-.34.06-.6.08s-.27,0-.43,0a4.25,4.25,0,0,1-.51,0,9.07,9.07,0,0,1-1.22-.07c-.45,0-.92-.12-1.43-.2a10.75,10.75,0,0,1-1.57-.37l-.8-.31L45.67,38l-.1-.05a.21.21,0,0,1-.12-.1.25.25,0,0,1,0-.07h0v0l0-.08a.39.39,0,0,1,.08-.1,2.42,2.42,0,0,1,.35-.3l.37-.25.19-.12.19-.11a10.8,10.8,0,0,1,1.6-.79,8.21,8.21,0,0,1,.84-.27c.29-.05.57-.11.85-.13a7.81,7.81,0,0,1,.83,0l.79,0A6.28,6.28,0,0,1,53,35.8a6.79,6.79,0,0,1,1.14.44,4.67,4.67,0,0,1,.45.23l.38.21.68.46"/></g><path class="cls-21" d="M28.22,50.66v-23c0-1.89.51-3.24,1.54-4a7.13,7.13,0,0,1,4.47-1.21c0,.19-.06.47-.09.85s-.06.81-.07,1.39,0,1.35,0,2.29l-.09,23A4.92,4.92,0,0,1,32.45,54a6.81,6.81,0,0,1-4.39,1.23c0-.19.06-.47.09-.85s.05-.82.05-1.42,0-1.35,0-2.3"/><path class="cls-22" d="M13.74,55.35a16.5,16.5,0,0,1-5.53-.87A10.54,10.54,0,0,1,4,51.74a12.4,12.4,0,0,1-2.69-4.82,23.65,23.65,0,0,1-.95-7.16V29.88a10.8,10.8,0,0,1,1-5.06,5.38,5.38,0,0,1,2.88-2.5,9.19,9.19,0,0,1,2.69-.61,19.92,19.92,0,0,1,2.2-.17c.8,0,1.49,0,2.06,0a11.79,11.79,0,0,1,4.25.69,8.92,8.92,0,0,1,3,1.82,7.42,7.42,0,0,1,1.8,2.6,8.22,8.22,0,0,1,.59,3.07,6.89,6.89,0,0,1-.57,2.81,8.12,8.12,0,0,1-1.61,2.39,11.07,11.07,0,0,1,2.62,1.37,9.32,9.32,0,0,1,2.1,2.06,9.86,9.86,0,0,1,1.42,2.76,10.77,10.77,0,0,1,.52,3.45,10.24,10.24,0,0,1-.83,4.06,10.87,10.87,0,0,1-2.34,3.45,11.28,11.28,0,0,1-3.64,2.41,12.15,12.15,0,0,1-4.75.89m0-4.68a6.25,6.25,0,0,0,2.6-.5,4.87,4.87,0,0,0,1.77-1.32,5,5,0,0,0,1-1.94,9.15,9.15,0,0,0,.31-2.39,7.37,7.37,0,0,0-.71-3.43A5.46,5.46,0,0,0,16.88,39a7,7,0,0,0-2.46-1,10.61,10.61,0,0,0-2.58-.24c-.76,0-1.47,0-2.15,0H7.87c-.6,0-1.17,0-1.7,0v2a21.52,21.52,0,0,0,.38,5.27A8,8,0,0,0,8,48.38a5.47,5.47,0,0,0,2.43,1.75,9.25,9.25,0,0,0,3.3.54M6.18,33.9h4a7.14,7.14,0,0,0,4-.95,3.55,3.55,0,0,0,1.44-3.21,4.09,4.09,0,0,0-.4-1.91,3.76,3.76,0,0,0-1-1.28,4.45,4.45,0,0,0-1.44-.73,5.48,5.48,0,0,0-1.56-.24H9.77a6.43,6.43,0,0,0-1.65.21,3.41,3.41,0,0,0-1.37.69,1.75,1.75,0,0,0-.57,1.42Z"/><path class="cls-23" d="M25,9.37a5.69,5.69,0,0,0-1.18-1.84,5.42,5.42,0,0,0-1.71-1.26A4.94,4.94,0,0,0,20,5.81a5.29,5.29,0,0,0-2.25.46,5.14,5.14,0,0,0-1.71,1.26A5.36,5.36,0,0,0,15,9.37a6.76,6.76,0,0,0-.38,2.27,6.07,6.07,0,0,0,1.58,4.11A5.39,5.39,0,0,0,17.91,17a4.88,4.88,0,0,0,2.1.46A5.29,5.29,0,0,0,22.26,17,5.14,5.14,0,0,0,24,15.75a5.54,5.54,0,0,0,1.09-1.84,6.48,6.48,0,0,0,.39-2.27A6.11,6.11,0,0,0,25,9.37Zm-2.81,4.17a3.23,3.23,0,0,1-.66,1.14,2,2,0,0,1-.81.56,1.9,1.9,0,0,1-1.48,0,2,2,0,0,1-.81-.56,3.43,3.43,0,0,1-.66-1.14,5.59,5.59,0,0,1-.27-1.9,5.69,5.69,0,0,1,.27-1.91,3.14,3.14,0,0,1,.66-1.14A2.12,2.12,0,0,1,19.27,8a1.9,1.9,0,0,1,1.48,0,2.05,2.05,0,0,1,.81.55,3.23,3.23,0,0,1,.66,1.14,5.65,5.65,0,0,1,.27,1.91A5.59,5.59,0,0,1,22.22,13.54Z"/><path class="cls-24" d="M33.64,7.29a1.89,1.89,0,0,1,.9-1.06,3.19,3.19,0,0,1,1.14-.33A4.82,4.82,0,0,1,37.07,6l-2.8,6.71-1.06,2.5-.94,2.24-.69,1.65-.33.75a2.08,2.08,0,0,1-.9,1.07,3,3,0,0,1-1.12.34,3.4,3.4,0,0,1-1.39-.15c.19-.45.41-.95.63-1.48s.42-1,.67-1.62.52-1.25.81-1.93l-.3-.7c-.15-.36-.33-.79-.53-1.29s-.43-1-.68-1.64-.5-1.19-.74-1.79q-.87-2.12-2-4.67a4.82,4.82,0,0,1,1.39-.12,3.09,3.09,0,0,1,1.13.33,2,2,0,0,1,.91,1.06l.26.62c.14.33.31.75.51,1.25s.43,1.06.69,1.67l.78,1.84.83-1.94.69-1.65.49-1.2c.12-.33.2-.52.23-.58"/><path class="cls-24" d="M46.07,7.24a5,5,0,0,0-1.6-1.11,5.05,5.05,0,0,0-2-.4h-.21l-.21,0a5.73,5.73,0,0,0-3.86,1.8l0,.07,0,.1a1.48,1.48,0,0,0,.51.56,1.52,1.52,0,0,0,.66.15A2.61,2.61,0,0,0,40,8.34c.23-.06.45-.13.68-.21s.45-.15.68-.21A4,4,0,0,1,42,7.81h.27a3,3,0,0,1,.64.06A2,2,0,0,1,44.4,9.14a4.79,4.79,0,0,1,.32,1.34,7.94,7.94,0,0,0-2.41-.36,7,7,0,0,0-1.73.21A4.92,4.92,0,0,0,39.1,11,3.11,3.11,0,0,0,38.05,12a3,3,0,0,0-.39,1.58v.15a3.26,3.26,0,0,0,.49,1.73,2.9,2.9,0,0,0,.78.91A3.93,3.93,0,0,0,40,17a4.4,4.4,0,0,0,1.09.33,6.72,6.72,0,0,0,1.07.09h.32l.29,0a5.18,5.18,0,0,0,3.5-1.87,6.28,6.28,0,0,0,1.29-4.11v-.19A5.87,5.87,0,0,0,46.07,7.24Zm-1.46,5.93a3.56,3.56,0,0,1-.36.95,2.66,2.66,0,0,1-.29.45,1.39,1.39,0,0,1-.41.35,2.19,2.19,0,0,1-1.19.39,1.11,1.11,0,0,1-.29,0,2.55,2.55,0,0,1-1-.17,1.5,1.5,0,0,1-.57-.41,1.23,1.23,0,0,1-.29-.52,2,2,0,0,1-.07-.52,1.09,1.09,0,0,1,0-.22,1.56,1.56,0,0,1,.1-.4,1.35,1.35,0,0,1,.19-.33,1.8,1.8,0,0,1,.92-.61,2.59,2.59,0,0,1,.58-.13c.21,0,.43,0,.66,0a7,7,0,0,1,.81,0c.27,0,.51.06.72.1l.29.07.22.05h.08A7.86,7.86,0,0,1,44.61,13.17Z"/><path class="cls-24" d="M54.62,7.82a2.26,2.26,0,0,0-.74.15,2.05,2.05,0,0,0-.81.55,3.23,3.23,0,0,0-.66,1.14,5.65,5.65,0,0,0-.27,1.91,5.69,5.69,0,0,0,.27,1.91,3.14,3.14,0,0,0,.66,1.14,2.12,2.12,0,0,0,.81.55,2.26,2.26,0,0,0,.74.15,4.37,4.37,0,0,0,1-.1,7.07,7.07,0,0,0,.83-.22l.69-.26a2.1,2.1,0,0,1,.64-.11,1.35,1.35,0,0,1,.63.17,2.26,2.26,0,0,1,.56.56l.05.1-.07.07a5.8,5.8,0,0,1-4.28,1.87,4.94,4.94,0,0,1-2.13-.46,5.82,5.82,0,0,1-1.74-1.24,5.88,5.88,0,0,1-1.16-1.84,6.11,6.11,0,0,1-.43-2.27,6.48,6.48,0,0,1,.39-2.27,6,6,0,0,1,1.09-1.86,5.29,5.29,0,0,1,1.7-1.24,5.22,5.22,0,0,1,2.24-.46,5.75,5.75,0,0,1,2.39.5A5.82,5.82,0,0,1,58.9,7.63L59,7.7l-.07.1a1.3,1.3,0,0,1-.56.56,1,1,0,0,1-.61.17,2.05,2.05,0,0,1-.64-.11l-.69-.23a6.29,6.29,0,0,0-.83-.26,4,4,0,0,0-1-.11"/><path class="cls-24" d="M69,7.24a5,5,0,0,0-1.6-1.11,5.05,5.05,0,0,0-2-.4h-.21l-.21,0a5.73,5.73,0,0,0-3.86,1.8l0,.07,0,.1a1.48,1.48,0,0,0,.51.56,1.52,1.52,0,0,0,.66.15,2.61,2.61,0,0,0,.66-.09c.23-.06.45-.13.68-.21s.45-.15.68-.21a4,4,0,0,1,.68-.11h.27a3,3,0,0,1,.64.06,2,2,0,0,1,1.47,1.27,4.79,4.79,0,0,1,.32,1.34,7.94,7.94,0,0,0-2.41-.36,7,7,0,0,0-1.73.21A4.92,4.92,0,0,0,62,11,3.11,3.11,0,0,0,61,12a3,3,0,0,0-.39,1.58v.15a3.26,3.26,0,0,0,.49,1.73,2.9,2.9,0,0,0,.78.91,3.93,3.93,0,0,0,1,.57,4.4,4.4,0,0,0,1.09.33A6.72,6.72,0,0,0,65,17.4h.32l.29,0a5.18,5.18,0,0,0,3.5-1.87,6.28,6.28,0,0,0,1.29-4.11v-.19A5.82,5.82,0,0,0,69,7.24Zm-1.46,5.93a3.56,3.56,0,0,1-.36.95,2.66,2.66,0,0,1-.29.45,1.39,1.39,0,0,1-.41.35,2.19,2.19,0,0,1-1.19.39,1.15,1.15,0,0,1-.29,0,2.55,2.55,0,0,1-1-.17,1.5,1.5,0,0,1-.57-.41,1.23,1.23,0,0,1-.29-.52,2,2,0,0,1-.07-.52,1.09,1.09,0,0,1,0-.22,1.56,1.56,0,0,1,.1-.4,1.35,1.35,0,0,1,.19-.33,1.8,1.8,0,0,1,.92-.61,2.59,2.59,0,0,1,.58-.13c.21,0,.43,0,.66,0a7,7,0,0,1,.81,0c.27,0,.51.06.72.1l.29.07.22.05h.08A5,5,0,0,1,67.53,13.17Z"/><path class="cls-25" d="M73.94,38.18v-.09a.55.55,0,0,0-.53-.53h0a.54.54,0,0,0-.54.49A15.74,15.74,0,1,1,53.2,21.3a.53.53,0,0,0,.39-.63.55.55,0,0,0-.61-.43,18.15,18.15,0,0,0-11.06,6.12,18.29,18.29,0,1,0,32,12c0-.08,0-.14,0-.21"/><polygon class="cls-26" points="28.2 30.07 33.96 35.74 34.01 23.26 28.22 28.56 28.2 30.07"/><path class="cls-27" d="M28.22,28.56l5.9-5.32v-.86S30,22.53,29,24.27A8.79,8.79,0,0,0,28.22,28.56Z"/><path class="cls-23" d="M4.31,22.28s.77,16.79,1.13,23c.08,1.43.08,2.32.11,2.31.19-.06-5.11-5.53-5.11-5.53l-.08-14a12.11,12.11,0,0,1,1.33-3.86A7,7,0,0,1,4.31,22.28Z"/><polygon class="cls-28" points="5.56 47.41 6.61 45.35 6.92 46.38 5.56 47.41"/><path class="cls-21" d="M16.43,38.65l3.78-3.06A8,8,0,0,1,24,39.4a11.59,11.59,0,0,1,1.26,5.79l-6,.75a7.14,7.14,0,0,0-.31-4.4A5.16,5.16,0,0,0,16.43,38.65Z"/><path class="cls-28" d="M5.55,47.61l7.33,7.68s5.62-.08,8.52-2.52a10.53,10.53,0,0,0,3.93-7.42l-6,.58s-.31,2.73-2.21,3.73a7.71,7.71,0,0,1-6.77.31c-2.54-1-2.78-2.56-2.78-2.56Z"/><path class="cls-29" d="M15.26,27.81l2.47-4.38a7.93,7.93,0,0,1,2,2.2,6,6,0,0,1,.94,2.46Z"/><path class="cls-29" d="M4.31,22.28l12.9.8a9.87,9.87,0,0,0-2.52-1.14,16.53,16.53,0,0,0-2.92-.41,38.22,38.22,0,0,0-4.83.18A10.85,10.85,0,0,0,4.31,22.28Z"/><path class="cls-28" d="M28.2,45.08l5.75-.7v6a5.52,5.52,0,0,1-1,2.95C31.56,55.24,28,55.24,28,55.24l.19-3.93Z"/><path class="cls-23" d="M12.56,10.08A4.88,4.88,0,0,0,10.75,7.6,5.79,5.79,0,0,0,9.4,6.89a4.17,4.17,0,0,0,.83-1.23,3.68,3.68,0,0,0,.29-1.45,4.23,4.23,0,0,0-.3-1.58A3.78,3.78,0,0,0,9.3,1.29,4.71,4.71,0,0,0,7.76.35,6.29,6.29,0,0,0,5.57,0H4.51A9.42,9.42,0,0,0,3.38.1,4.58,4.58,0,0,0,2,.42,2.77,2.77,0,0,0,.51,1.71,5.53,5.53,0,0,0,0,4.31V9.39a12,12,0,0,0,.49,3.68,6.4,6.4,0,0,0,1.39,2.48A5.41,5.41,0,0,0,4,17a8.42,8.42,0,0,0,2.84.45A6.24,6.24,0,0,0,9.34,17a5.82,5.82,0,0,0,1.87-1.24,5.55,5.55,0,0,0,1.2-1.77,5.32,5.32,0,0,0,.43-2.09A5.86,5.86,0,0,0,12.56,10.08ZM3,3.3a.91.91,0,0,1,.29-.73A1.75,1.75,0,0,1,4,2.22a3.48,3.48,0,0,1,.85-.11h.73a2.82,2.82,0,0,1,.8.12,2.17,2.17,0,0,1,.74.38,1.82,1.82,0,0,1,.53.66,2.12,2.12,0,0,1,.21,1A1.82,1.82,0,0,1,7.1,5.9a3.74,3.74,0,0,1-2,.49H3Zm6.65,9.79a2.87,2.87,0,0,1-.51,1,2.62,2.62,0,0,1-.91.68A3.2,3.2,0,0,1,6.87,15a4.91,4.91,0,0,1-1.69-.27,2.85,2.85,0,0,1-1.25-.9,4.1,4.1,0,0,1-.75-1.71A10.85,10.85,0,0,1,3,9.44v-1c.28,0,.57,0,.88,0h.94l1.11,0a5.18,5.18,0,0,1,1.33.12A3.69,3.69,0,0,1,8.51,9a2.9,2.9,0,0,1,.94,1.07,3.8,3.8,0,0,1,.36,1.76A5.28,5.28,0,0,1,9.63,13.09Z"/><path class="cls-21" d="M17.68,10.1l-.21-.31-2.83,2.29a9.65,9.65,0,0,0,.17,1.26c.14.6.25.7.25.7l2.77-.31a2.9,2.9,0,0,1-.27-1.57A16.3,16.3,0,0,1,17.68,10.1Z"/><path class="cls-21" d="M21,15.13a2.55,2.55,0,0,0,.81-.72,6.49,6.49,0,0,0,.55-1.25L24.67,13l-1.82,2.94.23.63a4,4,0,0,1-.91.5,8.3,8.3,0,0,1-1,.31Z"/><path class="cls-30" d="M24.06,7.82l-.47.12S25,9.44,25,9.44a6,6,0,0,0-.52-1A5.77,5.77,0,0,0,24.06,7.82Z"/><path class="cls-21" d="M23.55,8.63l1.58,1.15a4.44,4.44,0,0,1,.2.84,3.8,3.8,0,0,1,.09,1l-.75,1.29Z"/><polygon class="cls-21" points="17.49 9.72 18.52 8.52 21.09 6.46 16.78 7.19 17.65 6.46 16.66 7 17.49 9.72"/><path class="cls-21" d="M15,9.56a2.85,2.85,0,0,0-.32,1.27,9.9,9.9,0,0,0,0,1.24l2.85-2.35Z"/><path class="cls-31" d="M11,12l1.77-.42a4.23,4.23,0,0,1-.18,1.82,4.17,4.17,0,0,1-.73,1.53Z"/><polygon class="cls-32" points="29.4 14.73 30.56 13.76 32.88 15.98 31.67 19.07 28.6 19.36 29.98 16.08 29.4 14.73"/><path class="cls-32" d="M66.65,10.29l2.76,2.86-1.89.1.11-1a8.21,8.21,0,0,0-2.93-.21,1.85,1.85,0,0,0-1.61,1.83l-2.49.24A4.28,4.28,0,0,1,61,12.05a4.56,4.56,0,0,1,3.53-1.88C66.25,10,66.65,10.29,66.65,10.29Z"/><path class="cls-33" d="M.73,10.46,3,8.4,5.8,6.34H6L8.82,9.26A3.71,3.71,0,0,0,6.45,8.4c-1.58-.07-3.39,0-3.39,0L3,10.29Z"/><polygon class="cls-33" points="3.01 4.87 0.73 10.46 0.47 4.74 3.01 4.87"/><path class="cls-21" d="M5.66,15.79c.07,0,2.3,1.56,2.3,1.56l.31-.05,1.25-3.87a2.92,2.92,0,0,1-1.13,1.21A3.84,3.84,0,0,1,7,15Z"/><path class="cls-33" d="M0,9.81s0,.74.07,1.07a3.29,3.29,0,0,0,0,.47l.58-.9Z"/><path class="cls-21" d="M9.09,9.54l3.1-.32.2.32L11,12l.87,3-.11.16L9.53,13.42a4.14,4.14,0,0,0,.22-2.08A4,4,0,0,0,9.09,9.54Z"/><path class="cls-34" d="M12.36,9.6,11,11.92l1.77-.38a3.52,3.52,0,0,0-.13-1.07C12.5,9.94,12.36,9.6,12.36,9.6Z"/><path class="cls-30" d="M3.37,16.66l2.29-.88L.73,10.46l-.58.9A8,8,0,0,0,1.22,14.6,5.5,5.5,0,0,0,3.37,16.66Z"/><path class="cls-21" d="M5.66,15.79l-1.3,1.29a8.65,8.65,0,0,0,1,.22,3.73,3.73,0,0,0,.68.08l-.24-1.52Z"/><path class="cls-35" d="M41.46,15.29a1.74,1.74,0,0,1-1-.5,1.79,1.79,0,0,1-.34-.72l-2.44-1a3.12,3.12,0,0,0,0,1.45,4.66,4.66,0,0,0,.37,1l2.75,1.64Z"/><path class="cls-36" d="M44,11.71s3.16-2.54,3.16-2.54a4.61,4.61,0,0,1,.23,1.07,7.51,7.51,0,0,1,.1,1.07Z"/><path class="cls-37" d="M39.43,6.53s-.5.32-.84.59a2.22,2.22,0,0,0-.5.51,1.19,1.19,0,0,0,1.08.79,3.17,3.17,0,0,0,1.22-.2l.37-.13Z"/><path class="cls-37" d="M43.68,5.87l.14,2.45a2.09,2.09,0,0,1,.64,1,4.08,4.08,0,0,1,.24,1l1.5-2.88a6.83,6.83,0,0,0-1.24-1A5.49,5.49,0,0,0,43.68,5.87Z"/><path class="cls-38" d="M39.73,10.66l.91,1.88a2.29,2.29,0,0,1,1-.47,9,9,0,0,1,2.13,0l.24-.21-1.25-1.7a6,6,0,0,0-1.88.12A3.19,3.19,0,0,0,39.73,10.66Z"/><path class="cls-39" d="M39.68,10.64a4.11,4.11,0,0,0-1.42,1.07,2.77,2.77,0,0,0-.54,1.36l2.44,1a1.49,1.49,0,0,1,0-.83,3.25,3.25,0,0,1,.45-.7Z"/><path class="cls-40" d="M52.14,11.57l-2.92.34a6.11,6.11,0,0,0,1,3c.14.2.27.39.4.54a3.82,3.82,0,0,0,1.24,1.08l1.12-2a4.39,4.39,0,0,1-.62-1.38A12.18,12.18,0,0,1,52.14,11.57Z"/><path class="cls-41" d="M56,15.39l-4,.88-.16.29a4.82,4.82,0,0,0,2,.78c1.22.16,1.47,0,1.47,0S56,15.39,56,15.39Z"/><path class="cls-35" d="M52.94,14.48a1.92,1.92,0,0,0,.51.47,2,2,0,0,0,1,.35A5.41,5.41,0,0,0,56.29,15l-.34.36-4,.88Z"/><path class="cls-42" d="M57.26,7.35h0l1.1-.21.62.58s-.3.66-.77.77a3,3,0,0,1-1.11,0l.13-1.09"/><path class="cls-38" d="M53.93,8a2.33,2.33,0,0,1,1-.1,12,12,0,0,1,1.74.4l.58-1L55.33,5.81a4.8,4.8,0,0,0-.93,0,4.35,4.35,0,0,0-.95.15Z"/><polygon class="cls-43" points="57.28 7.28 56.64 8.27 57.13 8.44 57.28 7.28"/><polygon class="cls-44" points="32.74 9.65 35.71 9.18 30.59 13.7 29.51 10.28 30.27 10.03 31.44 12.66 32.74 9.65"/><polygon class="cls-45" points="27.9 11.15 29.48 10.23 30.56 13.65 28.94 13.65 27.9 11.15"/><path class="cls-19" d="M53.69,37.81a8.32,8.32,0,0,0-2.2.92,3.22,3.22,0,0,0-.93,1.3c-.26.46-.62.92-.9,1.34a4.89,4.89,0,0,0-.55,1.05c-.08.24-.06.34,0,.38a1.29,1.29,0,0,0,.52,0,.67.67,0,0,0,.67-.4,5,5,0,0,1,.82-1.68,9.44,9.44,0,0,1,2.32-1.56c.74-.41,1.2-.71,1.5-.9s.43-.27.5-.41a.25.25,0,0,0-.21-.39,4.94,4.94,0,0,0-1.59.31"/><path class="cls-46" d="M9.52,13.42,8.27,17.29a5.6,5.6,0,0,0,1.37-.47,5.83,5.83,0,0,0,.95-.57,4.06,4.06,0,0,0,.56-.48,3.25,3.25,0,0,0,.62-.72Z"/><path class="cls-47" d="M54.65,52.26l-1.81,1.21,4.81,3.16.74-4.19s-1,0-2.21,0A7.43,7.43,0,0,1,54.65,52.26Z"/><path class="cls-48" d="M58.39,52.44l1.77-.26,1.49,3.56s-.86.28-1.37.42a16.11,16.11,0,0,1-2.64.48Z"/><polygon class="cls-49" points="60.55 52.14 62.86 51.44 64.26 52.35 61.86 55.65 61.65 55.73 60.55 52.14"/><path class="cls-50" d="M52.84,53.47l.64,3.13s1.28.13,2.23.13,1.94-.1,1.94-.1Z"/><path class="cls-50" d="M48.52,55.15l.91.41a6.25,6.25,0,0,0,.87.33l2.54-2.42Z"/><path class="cls-47" d="M42.7,42.81l-5.23-5.64a22.91,22.91,0,0,0,.39,5.15A12.29,12.29,0,0,0,39,45.69L42,47l1.72-2.12s-.23-.36-.57-1S42.7,42.81,42.7,42.81Z"/><path class="cls-51" d="M42,47l-.93,2.36A17.46,17.46,0,0,1,40,47.72c-.44-.78-1-2-1-2Z"/><path class="cls-52" d="M37.46,37.17,41.52,35a14.75,14.75,0,0,0,0,3.22,17.89,17.89,0,0,0,1.17,4.58Z"/><path class="cls-52" d="M40.8,27.84l1.59,3.38s.27-.7.38-.95.34-.74.34-.74Z"/><path class="cls-53" d="M28.22,50.66v-23c0-1.89.51-3.24,1.54-4a7.13,7.13,0,0,1,4.47-1.21c0,.19-.06.47-.09.85s-.06.81-.07,1.39,0,1.35,0,2.29l-.09,23A4.92,4.92,0,0,1,32.45,54a6.81,6.81,0,0,1-4.39,1.23c0-.19.06-.47.09-.85s.05-.82.05-1.42,0-1.35,0-2.3"/><path class="cls-54" d="M13.74,55.35a16.5,16.5,0,0,1-5.53-.87A10.54,10.54,0,0,1,4,51.74a12.4,12.4,0,0,1-2.69-4.82,23.65,23.65,0,0,1-.95-7.16V29.88a10.8,10.8,0,0,1,1-5.06,5.38,5.38,0,0,1,2.88-2.5,9.19,9.19,0,0,1,2.69-.61,19.92,19.92,0,0,1,2.2-.17c.8,0,1.49,0,2.06,0a11.79,11.79,0,0,1,4.25.69,8.92,8.92,0,0,1,3,1.82,7.42,7.42,0,0,1,1.8,2.6,8.22,8.22,0,0,1,.59,3.07,6.89,6.89,0,0,1-.57,2.81,8.12,8.12,0,0,1-1.61,2.39,11.07,11.07,0,0,1,2.62,1.37,9.32,9.32,0,0,1,2.1,2.06,9.86,9.86,0,0,1,1.42,2.76,10.77,10.77,0,0,1,.52,3.45,10.24,10.24,0,0,1-.83,4.06,10.87,10.87,0,0,1-2.34,3.45,11.28,11.28,0,0,1-3.64,2.41,12.15,12.15,0,0,1-4.75.89m0-4.68a6.25,6.25,0,0,0,2.6-.5,4.87,4.87,0,0,0,1.77-1.32,5,5,0,0,0,1-1.94,9.15,9.15,0,0,0,.31-2.39,7.37,7.37,0,0,0-.71-3.43A5.46,5.46,0,0,0,16.88,39a7,7,0,0,0-2.46-1,10.61,10.61,0,0,0-2.58-.24c-.76,0-1.47,0-2.15,0H7.87c-.6,0-1.17,0-1.7,0v2a21.52,21.52,0,0,0,.38,5.27A8,8,0,0,0,8,48.38a5.47,5.47,0,0,0,2.43,1.75,9.25,9.25,0,0,0,3.3.54M6.18,33.9h4a7.14,7.14,0,0,0,4-.95,3.55,3.55,0,0,0,1.44-3.21,4.09,4.09,0,0,0-.4-1.91,3.76,3.76,0,0,0-1-1.28,4.45,4.45,0,0,0-1.44-.73,5.48,5.48,0,0,0-1.56-.24H9.77a6.43,6.43,0,0,0-1.65.21,3.41,3.41,0,0,0-1.37.69,1.75,1.75,0,0,0-.57,1.42Z"/><path class="cls-55" d="M62.14,4.15c.28-.32.57-.64.88-1s.55-.57.88-.89.65-.62,1-.91A3.88,3.88,0,0,1,66,.66,4.07,4.07,0,0,1,66.94.4a2.15,2.15,0,0,1,.85.07A1.82,1.82,0,0,1,67.57,2a3.47,3.47,0,0,1-1.28,1.13,7.84,7.84,0,0,1-2,.73,9.39,9.39,0,0,1-2.2.3"/><path class="cls-56" d="M25,9.37a5.69,5.69,0,0,0-1.18-1.84,5.42,5.42,0,0,0-1.71-1.26A4.94,4.94,0,0,0,20,5.81a5.29,5.29,0,0,0-2.25.46,5.14,5.14,0,0,0-1.71,1.26A5.36,5.36,0,0,0,15,9.37a6.76,6.76,0,0,0-.38,2.27,6.07,6.07,0,0,0,1.58,4.11A5.39,5.39,0,0,0,17.91,17a4.88,4.88,0,0,0,2.1.46A5.29,5.29,0,0,0,22.26,17,5.14,5.14,0,0,0,24,15.75a5.54,5.54,0,0,0,1.09-1.84,6.48,6.48,0,0,0,.39-2.27A6.11,6.11,0,0,0,25,9.37Zm-2.81,4.17a3.23,3.23,0,0,1-.66,1.14,2,2,0,0,1-.81.56,1.9,1.9,0,0,1-1.48,0,2,2,0,0,1-.81-.56,3.43,3.43,0,0,1-.66-1.14,5.59,5.59,0,0,1-.27-1.9,5.69,5.69,0,0,1,.27-1.91,3.14,3.14,0,0,1,.66-1.14A2.12,2.12,0,0,1,19.27,8a1.9,1.9,0,0,1,1.48,0,2.05,2.05,0,0,1,.81.55,3.23,3.23,0,0,1,.66,1.14,5.65,5.65,0,0,1,.27,1.91A5.59,5.59,0,0,1,22.22,13.54Z"/><path class="cls-57" d="M33.64,7.29a1.89,1.89,0,0,1,.9-1.06,3.19,3.19,0,0,1,1.14-.33A4.82,4.82,0,0,1,37.07,6l-2.8,6.71-1.06,2.5-.94,2.24-.69,1.65-.33.75a2.08,2.08,0,0,1-.9,1.07,3,3,0,0,1-1.12.34,3.4,3.4,0,0,1-1.39-.15c.19-.45.41-.95.63-1.48s.42-1,.67-1.62.52-1.25.81-1.93l-.3-.7c-.15-.36-.33-.79-.53-1.29s-.43-1-.68-1.64-.5-1.19-.74-1.79q-.87-2.12-2-4.67a4.82,4.82,0,0,1,1.39-.12,3.09,3.09,0,0,1,1.13.33,2,2,0,0,1,.91,1.06l.26.62c.14.33.31.75.51,1.25s.43,1.06.69,1.67l.78,1.84.83-1.94.69-1.65.49-1.2c.12-.33.2-.52.23-.58"/><path class="cls-57" d="M46.07,7.24a5,5,0,0,0-1.6-1.11,5.05,5.05,0,0,0-2-.4h-.21l-.21,0a5.73,5.73,0,0,0-3.86,1.8l0,.07,0,.1a1.48,1.48,0,0,0,.51.56,1.52,1.52,0,0,0,.66.15A2.61,2.61,0,0,0,40,8.34c.23-.06.45-.13.68-.21s.45-.15.68-.21A4,4,0,0,1,42,7.81h.27a3,3,0,0,1,.64.06A2,2,0,0,1,44.4,9.14a4.79,4.79,0,0,1,.32,1.34,7.94,7.94,0,0,0-2.41-.36,7,7,0,0,0-1.73.21A4.92,4.92,0,0,0,39.1,11,3.11,3.11,0,0,0,38.05,12a3,3,0,0,0-.39,1.58v.15a3.26,3.26,0,0,0,.49,1.73,2.9,2.9,0,0,0,.78.91A3.93,3.93,0,0,0,40,17a4.4,4.4,0,0,0,1.09.33,6.72,6.72,0,0,0,1.07.09h.32l.29,0a5.18,5.18,0,0,0,3.5-1.87,6.28,6.28,0,0,0,1.29-4.11v-.19A5.87,5.87,0,0,0,46.07,7.24Zm-1.46,5.93a3.56,3.56,0,0,1-.36.95,2.66,2.66,0,0,1-.29.45,1.39,1.39,0,0,1-.41.35,2.19,2.19,0,0,1-1.19.39,1.11,1.11,0,0,1-.29,0,2.55,2.55,0,0,1-1-.17,1.5,1.5,0,0,1-.57-.41,1.23,1.23,0,0,1-.29-.52,2,2,0,0,1-.07-.52,1.09,1.09,0,0,1,0-.22,1.56,1.56,0,0,1,.1-.4,1.35,1.35,0,0,1,.19-.33,1.8,1.8,0,0,1,.92-.61,2.59,2.59,0,0,1,.58-.13c.21,0,.43,0,.66,0a7,7,0,0,1,.81,0c.27,0,.51.06.72.1l.29.07.22.05h.08A7.86,7.86,0,0,1,44.61,13.17Z"/><path class="cls-57" d="M54.62,7.82a2.26,2.26,0,0,0-.74.15,2.05,2.05,0,0,0-.81.55,3.23,3.23,0,0,0-.66,1.14,5.65,5.65,0,0,0-.27,1.91,5.69,5.69,0,0,0,.27,1.91,3.14,3.14,0,0,0,.66,1.14,2.12,2.12,0,0,0,.81.55,2.26,2.26,0,0,0,.74.15,4.37,4.37,0,0,0,1-.1,7.07,7.07,0,0,0,.83-.22l.69-.26a2.1,2.1,0,0,1,.64-.11,1.35,1.35,0,0,1,.63.17,2.26,2.26,0,0,1,.56.56l.05.1-.07.07a5.8,5.8,0,0,1-4.28,1.87,4.94,4.94,0,0,1-2.13-.46,5.82,5.82,0,0,1-1.74-1.24,5.88,5.88,0,0,1-1.16-1.84,6.11,6.11,0,0,1-.43-2.27,6.48,6.48,0,0,1,.39-2.27,6,6,0,0,1,1.09-1.86,5.29,5.29,0,0,1,1.7-1.24,5.22,5.22,0,0,1,2.24-.46,5.75,5.75,0,0,1,2.39.5A5.82,5.82,0,0,1,58.9,7.63L59,7.7l-.07.1a1.3,1.3,0,0,1-.56.56,1,1,0,0,1-.61.17,2.05,2.05,0,0,1-.64-.11l-.69-.23a6.29,6.29,0,0,0-.83-.26,4,4,0,0,0-1-.11"/><path class="cls-57" d="M69,7.24a5,5,0,0,0-1.6-1.11,5.05,5.05,0,0,0-2-.4h-.21l-.21,0a5.73,5.73,0,0,0-3.86,1.8l0,.07,0,.1a1.48,1.48,0,0,0,.51.56,1.52,1.52,0,0,0,.66.15,2.61,2.61,0,0,0,.66-.09c.23-.06.45-.13.68-.21s.45-.15.68-.21a4,4,0,0,1,.68-.11h.27a3,3,0,0,1,.64.06,2,2,0,0,1,1.47,1.27,4.79,4.79,0,0,1,.32,1.34,7.94,7.94,0,0,0-2.41-.36,7,7,0,0,0-1.73.21A4.92,4.92,0,0,0,62,11,3.11,3.11,0,0,0,61,12a3,3,0,0,0-.39,1.58v.15a3.26,3.26,0,0,0,.49,1.73,2.9,2.9,0,0,0,.78.91,3.93,3.93,0,0,0,1,.57,4.4,4.4,0,0,0,1.09.33A6.72,6.72,0,0,0,65,17.4h.32l.29,0a5.18,5.18,0,0,0,3.5-1.87,6.28,6.28,0,0,0,1.29-4.11v-.19A5.82,5.82,0,0,0,69,7.24Zm-1.46,5.93a3.56,3.56,0,0,1-.36.95,2.66,2.66,0,0,1-.29.45,1.39,1.39,0,0,1-.41.35,2.19,2.19,0,0,1-1.19.39,1.15,1.15,0,0,1-.29,0,2.55,2.55,0,0,1-1-.17,1.5,1.5,0,0,1-.57-.41,1.23,1.23,0,0,1-.29-.52,2,2,0,0,1-.07-.52,1.09,1.09,0,0,1,0-.22,1.56,1.56,0,0,1,.1-.4,1.35,1.35,0,0,1,.19-.33,1.8,1.8,0,0,1,.92-.61,2.59,2.59,0,0,1,.58-.13c.21,0,.43,0,.66,0a7,7,0,0,1,.81,0c.27,0,.51.06.72.1l.29.07.22.05h.08A5,5,0,0,1,67.53,13.17Z"/><path class="cls-56" d="M12.56,10.08A4.88,4.88,0,0,0,10.75,7.6,5.79,5.79,0,0,0,9.4,6.89a4.17,4.17,0,0,0,.83-1.23,3.68,3.68,0,0,0,.29-1.45,4.23,4.23,0,0,0-.3-1.58A3.78,3.78,0,0,0,9.3,1.29,4.71,4.71,0,0,0,7.76.35,6.29,6.29,0,0,0,5.57,0H4.51A9.42,9.42,0,0,0,3.38.1,4.58,4.58,0,0,0,2,.42,2.77,2.77,0,0,0,.51,1.71,5.53,5.53,0,0,0,0,4.31V9.39a12,12,0,0,0,.49,3.68,6.4,6.4,0,0,0,1.39,2.48A5.41,5.41,0,0,0,4,17a8.42,8.42,0,0,0,2.84.45A6.24,6.24,0,0,0,9.34,17a5.82,5.82,0,0,0,1.87-1.24,5.55,5.55,0,0,0,1.2-1.77,5.32,5.32,0,0,0,.43-2.09A5.86,5.86,0,0,0,12.56,10.08ZM3,3.3a.91.91,0,0,1,.29-.73A1.75,1.75,0,0,1,4,2.22a3.48,3.48,0,0,1,.85-.11h.73a2.82,2.82,0,0,1,.8.12,2.17,2.17,0,0,1,.74.38,1.82,1.82,0,0,1,.53.66,2.12,2.12,0,0,1,.21,1A1.82,1.82,0,0,1,7.1,5.9a3.74,3.74,0,0,1-2,.49H3Zm6.65,9.79a2.87,2.87,0,0,1-.51,1,2.62,2.62,0,0,1-.91.68A3.2,3.2,0,0,1,6.87,15a4.91,4.91,0,0,1-1.69-.27,2.85,2.85,0,0,1-1.25-.9,4.1,4.1,0,0,1-.75-1.71A10.85,10.85,0,0,1,3,9.44v-1c.28,0,.57,0,.88,0h.94l1.11,0a5.18,5.18,0,0,1,1.33.12A3.69,3.69,0,0,1,8.51,9a2.9,2.9,0,0,1,.94,1.07,3.8,3.8,0,0,1,.36,1.76A5.28,5.28,0,0,1,9.63,13.09Z"/></g></g></svg>