<svg xmlns="http://www.w3.org/2000/svg" viewBox="0 0 84.25 87.93"><defs><style>.cls-1{fill:#572a85;fill-rule:evenodd;}</style></defs><g id="Layer_2" data-name="Layer 2"><g id="Capa_1" data-name="Capa 1"><path class="cls-1" d="M24.71,80.6a1.83,1.83,0,0,0,1.83-1.83v-2A7.91,7.91,0,0,0,33,69.15a8,8,0,0,0-8.24-7.78h0a4.14,4.14,0,1,1,0-8.24,4.37,4.37,0,0,1,4.58,4.12,1.83,1.83,0,1,0,3.66,0,7.91,7.91,0,0,0-6.41-7.59v-2a1.83,1.83,0,1,0-3.66,0v2a7.91,7.91,0,0,0-6.41,7.59A8,8,0,0,0,24.71,65h0a4.14,4.14,0,1,1,0,8.24h0a4.37,4.37,0,0,1-4.58-4.12,1.83,1.83,0,0,0-3.66,0,7.91,7.91,0,0,0,6.41,7.59v2A1.82,1.82,0,0,0,24.71,80.6Z"/><path class="cls-1" d="M82.63,1.61A5.5,5.5,0,0,0,78.74,0H27.46A5.49,5.49,0,0,0,22,5.5V29.31H14.16a5.5,5.5,0,0,0-4.91,8l2.46,4.91A24.73,24.73,0,0,0,23.5,87.9a1.63,1.63,0,0,0,.31,0H78.75a5.5,5.5,0,0,0,5.5-5.5V5.5A5.54,5.54,0,0,0,82.63,1.61Zm-70,32.23A1.82,1.82,0,0,1,14.15,33H35.27a1.83,1.83,0,0,1,1.64,2.65l-2.43,4.85a24.75,24.75,0,0,0-19.54,0h0l-2.43-4.85A1.85,1.85,0,0,1,12.59,33.84ZM3.64,63.2A21.09,21.09,0,0,1,15.06,44.47l.23-.11.28-.14.14-.07c.22-.1.44-.21.67-.3l.15-.07.34-.14.17-.07.35-.13.16-.06.37-.13.1,0c.45-.15.9-.28,1.36-.4l.07,0,.42-.1.12,0,.42-.09.11,0c.65-.13,1.3-.23,2-.3h.07l.45,0h.12l.45,0h.1c.34,0,.67,0,1,0l1,0h.1l.45,0h.12l.45,0h.08c.5.05,1,.12,1.49.21h0l.43.08.14,0,.4.09.15,0,.39.1.12,0c.42.11.84.24,1.25.37l.18.06.32.11.22.08.3.12.23.09.29.12.27.12.33.15.4.19.21.11.3.15a21.06,21.06,0,0,1-9.46,39.78h-.4A21.12,21.12,0,0,1,3.64,63.2ZM80.58,82.43a1.86,1.86,0,0,1-.53,1.3,1.82,1.82,0,0,1-1.3.54H37.66a24.72,24.72,0,0,0,.06-42.08l2.46-4.91a5.5,5.5,0,0,0-4.91-8H25.63V5.51a1.83,1.83,0,0,1,1.83-1.83H78.75a1.82,1.82,0,0,1,1.3.54,1.85,1.85,0,0,1,.54,1.3Z"/><path class="cls-1" d="M71.41,9.05s0-.08,0-.11,0,0,0-.06,0-.08,0-.12,0,0,0-.06,0-.06,0-.09v0s0,0,0-.05,0-.08,0-.11,0,0,0-.05l-.06-.11,0,0-.07-.11,0,0L71,8h0l0,0-.09-.1,0,0-.09-.07,0,0-.09-.06-.06,0-.1,0-.06,0-.11,0,0,0-.12,0h0l-.13,0H62.27a1.83,1.83,0,0,0,0,3.66h2.51L53.05,21.42,45.1,15.06a1.84,1.84,0,0,0-2.44.14l-7.33,7.33a1.83,1.83,0,1,0,2.59,2.59h0L44.09,19,52,25.25a1.83,1.83,0,0,0,2.36-.06L67.77,13.25V16.5a1.83,1.83,0,0,0,3.66,0V9.18h0v0A.15.15,0,0,1,71.41,9.05Z"/><path class="cls-1" d="M69.59,29.31h-22a1.83,1.83,0,0,0,0,3.66h22a1.83,1.83,0,0,0,0-3.66Z"/><path class="cls-1" d="M69.59,36.63h-22a1.83,1.83,0,0,0,0,3.66h22a1.83,1.83,0,0,0,0-3.66Z"/><path class="cls-1" d="M69.59,44H51.27a1.83,1.83,0,0,0,0,3.66H69.59a1.83,1.83,0,0,0,0-3.66Z"/></g></g></svg>