<svg xmlns="http://www.w3.org/2000/svg" viewBox="0 0 154.5 40.54"><defs><style>.cls-1{fill:#5e5d61;}</style></defs><g id="Layer_2" data-name="Layer 2"><g id="Capa_1" data-name="Capa 1"><path class="cls-1" d="M15.19,26.53A6.11,6.11,0,0,1,8.74,33H3.92v6A1.11,1.11,0,0,1,2.7,40.21H1.31A1.11,1.11,0,0,1,.09,39V21.09a1.11,1.11,0,0,1,1.22-1.22H8.75c4.12,0,6.44,3.09,6.44,6.66m-3.92,0A3.11,3.11,0,0,0,8.1,23.1H3.92v6.77H8.1a3.09,3.09,0,0,0,3.17-3.37"/><path class="cls-1" d="M18.13,39V20.43a1.11,1.11,0,0,1,1.22-1.22h1.31a1.11,1.11,0,0,1,1.22,1.22V39a1.11,1.11,0,0,1-1.22,1.22H19.35A1.1,1.1,0,0,1,18.13,39"/><path class="cls-1" d="M25,32.84c0-4.3,2.94-7.7,7.21-7.7a5.8,5.8,0,0,1,5,2.53v-1a1.13,1.13,0,0,1,1.22-1.25h1.28a1.14,1.14,0,0,1,1.25,1.25V39a1.13,1.13,0,0,1-1.25,1.22H38.38A1.11,1.11,0,0,1,37.16,39V38a5.8,5.8,0,0,1-5,2.53c-4.27,0-7.21-3.4-7.21-7.7m12.27,0c0-2.65-1.74-4.59-4.33-4.59s-4.18,2.09-4.18,4.59,1.54,4.59,4.18,4.59a4.31,4.31,0,0,0,4.33-4.59"/><path class="cls-1" d="M44.88,39V26.7a1.13,1.13,0,0,1,1.22-1.25h1.28a1.14,1.14,0,0,1,1.25,1.25v1.37a4.64,4.64,0,0,1,4.68-2.93c3.6,0,5.52,2.62,5.52,6.65V39a1.13,1.13,0,0,1-1.25,1.22H56.3A1.11,1.11,0,0,1,55.08,39V32c0-2.53-1.1-3.69-2.64-3.69S48.63,29.41,48.63,33v6a1.12,1.12,0,0,1-1.25,1.22H46.1A1.12,1.12,0,0,1,44.88,39"/><path class="cls-1" d="M61.62,32.89a7.72,7.72,0,0,1,8-7.76c4,0,7.38,2.38,7.67,7.09.06.76-.43,1.16-1.22,1.16H65.25c-.06,2.24,1.92,4.07,5,4.07a6.62,6.62,0,0,0,3.63-1.08,1.24,1.24,0,0,1,1.72.23l.26.32a1.17,1.17,0,0,1-.23,1.86,8.89,8.89,0,0,1-5.55,1.74c-5.24,0-8.43-3.41-8.43-7.63M73.71,31a3.77,3.77,0,0,0-4-2.91A4.18,4.18,0,0,0,65.43,31Z"/><path class="cls-1" d="M79.19,32.84c0-4.3,2.93-7.7,7.21-7.7a5.8,5.8,0,0,1,5,2.53v-1a1.13,1.13,0,0,1,1.22-1.25H93.9a1.15,1.15,0,0,1,1.25,1.25V39a1.13,1.13,0,0,1-1.25,1.22H92.62A1.11,1.11,0,0,1,91.4,39V38a5.8,5.8,0,0,1-5,2.53c-4.27,0-7.21-3.4-7.21-7.7m12.27,0c0-2.65-1.74-4.59-4.33-4.59S83,30.34,83,32.84s1.54,4.59,4.18,4.59a4.31,4.31,0,0,0,4.33-4.59"/><path class="cls-1" d="M98.11,33c0-4.3,3.14-7.82,8.43-7.82a8.9,8.9,0,0,1,4.53,1.25,1.06,1.06,0,0,1,.29,1.71l-.35.44c-.46.64-1,.67-1.71.32a5.93,5.93,0,0,0-2.56-.58,4.58,4.58,0,1,0,0,9.15,6.44,6.44,0,0,0,2.56-.58c.73-.35,1.28-.32,1.71.29l.35.46c.47.64.32,1.39-.64,1.89a8.74,8.74,0,0,1-4.18,1.05c-5.18,0-8.43-3.37-8.43-7.58"/><path class="cls-1" d="M114.32,21.1a2.17,2.17,0,0,1,2.35-2.18,2.19,2.19,0,1,1-2.35,2.18m.49,17.9V26.7A1.13,1.13,0,0,1,116,25.45h1.31a1.12,1.12,0,0,1,1.22,1.25V39a1.11,1.11,0,0,1-1.22,1.22H116A1.09,1.09,0,0,1,114.81,39"/><path class="cls-1" d="M121.61,32.84a8,8,0,1,1,8,7.7,7.78,7.78,0,0,1-8-7.7m12.32,0a4.36,4.36,0,1,0-4.36,4.53,4.44,4.44,0,0,0,4.36-4.53m-5.46-10.18,1.83-3.31a.89.89,0,0,1,.81-.46h2.41c.55,0,.73.35.38.81l-2.67,3.37a.89.89,0,0,1-.81.38H129c-.53,0-.73-.35-.5-.79"/><path class="cls-1" d="M140.55,39V26.7a1.13,1.13,0,0,1,1.22-1.25h1.28a1.15,1.15,0,0,1,1.25,1.25v1.37A4.64,4.64,0,0,1,149,25.14c3.6,0,5.52,2.62,5.52,6.65V39a1.13,1.13,0,0,1-1.25,1.22H152A1.11,1.11,0,0,1,150.75,39V32c0-2.53-1.1-3.69-2.64-3.69S144.3,29.41,144.3,33v6a1.12,1.12,0,0,1-1.25,1.22h-1.28A1.12,1.12,0,0,1,140.55,39"/><path class="cls-1" d="M.06,9.69c-.18-.42.05-.73.49-.83l.57-.15c.42-.1.63.06.86.45a2.47,2.47,0,0,0,2.21,1.12c1.3,0,2.09-.6,2.09-1.46s-.57-1.2-1.46-1.53L3.24,6.74C1.49,6.17.4,5,.4,3.62.4,1.59,2.15.34,4.25.34A3.71,3.71,0,0,1,7.86,2.45a.58.58,0,0,1-.44.86l-.52.15A.68.68,0,0,1,6,3.05a1.79,1.79,0,0,0-1.75-.91c-.92,0-1.74.49-1.74,1.36,0,.44.18,1,1.31,1.4l1.59.58c2.06.67,2.92,1.9,2.94,3.22,0,2.13-1.75,3.36-4.16,3.36A4.18,4.18,0,0,1,.06,9.69"/><path class="cls-1" d="M9.57,7.81a4.31,4.31,0,0,1,4.48-4.34,4,4,0,0,1,4.29,4c0,.42-.24.65-.68.65H11.6c0,1.25,1.07,2.27,2.78,2.27a3.75,3.75,0,0,0,2-.6.69.69,0,0,1,1,.13l.15.18a.66.66,0,0,1-.13,1,5,5,0,0,1-3.1,1c-2.93,0-4.72-1.91-4.72-4.26m6.76-1a2.09,2.09,0,0,0-2.24-1.62A2.34,2.34,0,0,0,11.7,6.77Z"/><path class="cls-1" d="M19.38,7.84c0-2.4,1.75-4.37,4.71-4.37a5,5,0,0,1,2.53.7.59.59,0,0,1,.16,1l-.19.24c-.26.36-.55.37-1,.18a3.29,3.29,0,0,0-1.43-.33,2.56,2.56,0,1,0,0,5.11A3.59,3.59,0,0,0,25.63,10c.41-.19.71-.18,1,.16l.19.26c.26.36.18.78-.36,1.06a4.79,4.79,0,0,1-2.34.58c-2.88,0-4.7-1.88-4.7-4.23"/><path class="cls-1" d="M28.69,11.22V4.35a.63.63,0,0,1,.68-.7h.68a.63.63,0,0,1,.68.7V5.49a2.3,2.3,0,0,1,2.18-2l.32,0c.36,0,.42.33.42.65V5c0,.42-.2.6-.5.55a2.18,2.18,0,0,0-.42,0c-.78,0-1.95.47-1.95,3.17v2.58a.63.63,0,0,1-.7.68h-.71a.61.61,0,0,1-.68-.68"/><path class="cls-1" d="M34.26,7.81a4.31,4.31,0,0,1,4.48-4.34,4,4,0,0,1,4.29,4c0,.42-.24.65-.68.65H36.29c0,1.25,1.07,2.27,2.78,2.27a3.75,3.75,0,0,0,2-.6.69.69,0,0,1,1,.13l.15.18a.66.66,0,0,1-.13,1,5,5,0,0,1-3.1,1c-2.94,0-4.72-1.91-4.72-4.26m6.75-1a2.09,2.09,0,0,0-2.24-1.62,2.34,2.34,0,0,0-2.39,1.62Z"/><path class="cls-1" d="M45,9.22v-4h-.91a.33.33,0,0,1-.37-.37V4a.34.34,0,0,1,.37-.37h1l.29-1.77A.53.53,0,0,1,46,1.39h.57a.49.49,0,0,1,.54.54V3.65h2a.34.34,0,0,1,.37.37v.85a.33.33,0,0,1-.37.37h-2V9.3c0,.75.37,1,.81,1a.79.79,0,0,0,.83-.81,1.57,1.57,0,0,0,0-.29c0-.26,0-.41.31-.41h.86a.38.38,0,0,1,.42.29,3.73,3.73,0,0,1,.08.62c0,1.53-1.07,2.34-2.62,2.34A2.53,2.53,0,0,1,45,9.22"/><path class="cls-1" d="M51.14,7.77a4.05,4.05,0,0,1,4-4.3A3.25,3.25,0,0,1,58,4.88V4.34a.63.63,0,0,1,.68-.7h.71a.64.64,0,0,1,.7.7v6.87a.63.63,0,0,1-.7.68h-.71a.61.61,0,0,1-.68-.68v-.55a3.24,3.24,0,0,1-2.79,1.41,4,4,0,0,1-4-4.3m6.86,0A2.41,2.41,0,0,0,55.58,5.2a2.36,2.36,0,0,0-2.34,2.57,2.35,2.35,0,0,0,2.34,2.57A2.41,2.41,0,0,0,58,7.77"/><path class="cls-1" d="M62.28,11.22V4.35a.63.63,0,0,1,.68-.7h.68a.63.63,0,0,1,.68.7V5.49a2.3,2.3,0,0,1,2.18-2l.32,0c.36,0,.42.33.42.65V5c0,.42-.2.6-.5.55a2.18,2.18,0,0,0-.42,0c-.78,0-1.95.47-1.95,3.17v2.58a.63.63,0,0,1-.7.68H63a.62.62,0,0,1-.68-.68"/><path class="cls-1" d="M68.6,11.22V4.35a.63.63,0,0,1,.68-.7H70a.63.63,0,0,1,.68.7v6.87a.61.61,0,0,1-.68.68h-.73a.62.62,0,0,1-.68-.68m.19-9.11,1-1.85A.47.47,0,0,1,70.25,0H71.6c.31,0,.41.19.21.45L70.32,2.33a.49.49,0,0,1-.45.21h-.81c-.3,0-.41-.19-.27-.43"/><path class="cls-1" d="M72.42,7.77a4.05,4.05,0,0,1,4-4.3,3.25,3.25,0,0,1,2.79,1.41V4.34a.63.63,0,0,1,.68-.7h.71a.64.64,0,0,1,.7.7v6.87a.63.63,0,0,1-.7.68h-.71a.61.61,0,0,1-.68-.68v-.55a3.24,3.24,0,0,1-2.79,1.41,4,4,0,0,1-4-4.3m6.85,0A2.41,2.41,0,0,0,76.85,5.2a2.36,2.36,0,0,0-2.34,2.57,2.35,2.35,0,0,0,2.34,2.57,2.41,2.41,0,0,0,2.42-2.57"/><path class="cls-1" d="M87.11,7.77a4,4,0,0,1,4-4.3,3.21,3.21,0,0,1,2.79,1.41v-4a.63.63,0,0,1,.7-.68h.71A.61.61,0,0,1,96,.84V11.22a.61.61,0,0,1-.68.68h-.71a.63.63,0,0,1-.7-.68v-.55a3.19,3.19,0,0,1-2.79,1.41,4,4,0,0,1-4-4.31m6.85,0A2.42,2.42,0,0,0,91.52,5.2,2.34,2.34,0,0,0,89.2,7.77a2.34,2.34,0,0,0,2.32,2.57A2.42,2.42,0,0,0,94,7.77"/><path class="cls-1" d="M97.68,7.81a4.31,4.31,0,0,1,4.48-4.34,4,4,0,0,1,4.29,4c0,.42-.24.65-.68.65H99.71c0,1.25,1.07,2.27,2.78,2.27a3.75,3.75,0,0,0,2-.6.69.69,0,0,1,1,.13l.15.18a.66.66,0,0,1-.13,1,5,5,0,0,1-3.1,1c-2.93,0-4.72-1.91-4.72-4.26m6.76-1a2.09,2.09,0,0,0-2.24-1.62,2.34,2.34,0,0,0-2.39,1.62Z"/></g></g></svg>