<svg xmlns="http://www.w3.org/2000/svg" viewBox="0 0 87.42 87.38"><defs><style>.cls-1{fill:#00adc2;}</style></defs><g id="Layer_2" data-name="Layer 2"><g id="Capa_1" data-name="Capa 1"><path class="cls-1" d="M87.39,14.42a15.05,15.05,0,0,0-11.5-14h0A11.15,11.15,0,0,0,72.83,0H14.59C6.73,0,.47,6.7,0,14.42a15.21,15.21,0,0,0,9.9,15.44,14.12,14.12,0,0,0,5,.73c.58,0,1,1,1.31,1.6,1.16,1.89,2.18,3.64,3.35,5.53-7.28,4.08-7.43,15-.58,19.51a11,11,0,0,0-5.68,8.3c-.15,1.6-.15,3.2-.15,4.81V77c0,1.31-.15,3.06,1.6,3.06H30.17v5.24c0,1.46.87,2,2.18,2H55.21c1.46,0,2-.73,2-2.33v-5H71.09a10.59,10.59,0,0,0,2.18,0c1.31-.44,1-1.89,1-3.06,0-6.84,1.6-16-5.68-20a11.77,11.77,0,0,0,.73-18.64c-.58-.44,0-.73.29-1.31.58-1,1.16-1.89,1.75-2.91.58-.87,1-1.75,1.6-2.62s.44-1,1.6-1.16C82.44,29.42,87.83,22.14,87.39,14.42ZM16.77,47.62a9.18,9.18,0,0,1,1.6-5.1c.44-.58,2.33-2.91,2.91-2,1.16,1.89,2.33,3.79,3.35,5.68.29.58.73,1.31,1.46,1.31,1.16.15,1.6-.87,1.6-1.89V39.76a7.08,7.08,0,0,1,3.2,2.62c.29.44,1,1.16.73,1.89A10.74,10.74,0,0,0,31,46.6a13.21,13.21,0,0,0,.15,4.81c.15,1.31-1.75,2.77-2.77,3.49C23,58.25,16.77,53.59,16.77,47.62Zm16.6-6.7a10.41,10.41,0,0,0-4.08-3.49c-.15-.15-1.6-.58-1.6-.73V30.59H59.87c.44,0,1.31-.29,1.31.29v5.53A10.8,10.8,0,0,0,54,40.92,12.51,12.51,0,0,0,33.37,40.92ZM46,58.69a9.71,9.71,0,0,1-11.65-7c-1.6-5.39,1.46-11.65,7-13.11,5.1-1.31,10.19,2,11.65,7C54.63,51,51.72,57.23,46,58.69ZM31.48,64.51c-1.31,2.33-1.31,4.66-1.31,7.28v3.35a9.28,9.28,0,0,1,0,2c-.15.15-.87,0-1,0H16V67a8,8,0,0,1,3.79-7c1.89-1.16,3.93-1,6-1A6.21,6.21,0,0,1,30,60.44a6.61,6.61,0,0,1,1.75,1.75,2.88,2.88,0,0,1,.58,1.16A7.77,7.77,0,0,0,31.48,64.51Zm-1-7.28a7.2,7.2,0,0,0,2.18-2,12.68,12.68,0,0,0,4.08,4.66,6.68,6.68,0,0,0-2.18,1.31A10.58,10.58,0,0,0,30.46,57.23ZM54.34,84.46H33.66c-.15,0-.44.15-.44-.15v-6.7c0-4.37-1-10.19,2.33-13.54,2.77-2.77,6.55-2.18,10.05-2.18a9.52,9.52,0,0,1,4.95,1,8.14,8.14,0,0,1,3.79,6.84ZM52.88,61a18.78,18.78,0,0,0-2.18-1.31,12.61,12.61,0,0,0,4.08-4.66,14.52,14.52,0,0,0,2.18,2A13,13,0,0,0,52.88,61Zm18.21,3.34c.58,1.75.29,3.64.29,5.39V76.3c0,1.31-.29.87-1.6.87H57.69c-.29,0-.44.15-.44-.29V74a41.71,41.71,0,0,0-.15-6.12,11.73,11.73,0,0,0-2-4.81,7.7,7.7,0,0,1,3.35-3.49c1.75-.87,3.64-.73,5.53-.73A8,8,0,0,1,71.09,64.36Zm-9.18-8.44a7.56,7.56,0,0,1-4.66-2.33A2.8,2.8,0,0,1,56.09,51a14.09,14.09,0,0,0,.15-3.49A12.3,12.3,0,0,0,55.8,45a2.35,2.35,0,0,1,.58-2.48A8,8,0,0,1,61,39.32V43.4c0,1.16-.44,3.64,1,4.08s2.33-1.89,3.06-2.91,1.46-2.48,2.18-3.64C73.56,45.58,70.21,56.94,61.91,55.92ZM81,24h0a14.4,14.4,0,0,1-4.66,3.06,16.42,16.42,0,0,1-2.62.58c-.87,0-1.75,0-2.18.73a35.66,35.66,0,0,0-1.89,3.2c-1.89,3.06-3.64,6.12-5.53,9.17V30.43c0-1.31,0-2.77-1.6-2.77H28c-1.16,0-3.2-.29-3.2,1.46a45.1,45.1,0,0,0,0,6.26v5.39c-1.89-3.06-3.64-6.12-5.53-9.17a22.45,22.45,0,0,0-1.89-3.2c-.58-1-1.89-.73-2.77-.73a13.62,13.62,0,0,1-4.81-1C3.39,23.59,1.21,15.29,4.56,9.18A12.09,12.09,0,0,1,15.63,2.92H72.85C83.46,2.92,88,16.75,81,24Z"/><path class="cls-1" d="M20.41,10.63H66.86a1.49,1.49,0,0,0,.73-2.77,4.2,4.2,0,0,0-1.89-.15H20.27C18.52,7.72,18.52,10.63,20.41,10.63Z"/><path class="cls-1" d="M75.74,13.84H11.67a1.46,1.46,0,1,0,0,2.91H75.31C77.49,16.75,77.78,13.84,75.74,13.84Z"/><path class="cls-1" d="M75.74,20H11.67a1.46,1.46,0,1,0,0,2.91H75.31C77.49,22.87,77.78,20,75.74,20Z"/></g></g></svg>