<svg xmlns="http://www.w3.org/2000/svg" viewBox="0 0 88.72 88.69"><defs><style>.cls-1{fill:#f8ab00;}</style></defs><g id="Layer_2" data-name="Layer 2"><g id="Capa_1" data-name="Capa 1"><path class="cls-1" d="M84.26,17.74H73.91V4.43A4.44,4.44,0,0,0,69.48,0H19.21a4.44,4.44,0,0,0-4.43,4.43V17.74H4.43A4.44,4.44,0,0,0,0,22.17V69.49a4.44,4.44,0,0,0,4.43,4.43H33.74l-1,5.91H28.09a1.49,1.49,0,0,0-1.18.59l-4.44,5.91a1.48,1.48,0,0,0,1.19,2.36h41.4a1.45,1.45,0,0,0,1.32-.81,1.49,1.49,0,0,0-.13-1.55l-4.44-5.91a1.49,1.49,0,0,0-1.18-.59H56l-1-5.91H84.29a4.44,4.44,0,0,0,4.43-4.43V22.17A4.42,4.42,0,0,0,87.42,19a4.59,4.59,0,0,0-3.16-1.3ZM17.72,4.43A1.48,1.48,0,0,1,19.2,3H69.47a1.53,1.53,0,0,1,1,.43,1.45,1.45,0,0,1,.43,1v7.39H17.72Zm0,10.36H71v34a1.53,1.53,0,0,1-.43,1.05,1.47,1.47,0,0,1-1,.43H19.2a1.48,1.48,0,0,1-1.48-1.48Zm42.14,68,2.22,3H26.59l2.22-3Zm-24.13-3,1-5.91H52l1,5.91Zm50-10.36a1.53,1.53,0,0,1-.43,1.05,1.47,1.47,0,0,1-1,.43H4.41a1.48,1.48,0,0,1-1.48-1.48V65.05h82.8v4.44Zm0-7.39H2.94V22.18A1.48,1.48,0,0,1,4.42,20.7H14.77V48.79a4.44,4.44,0,0,0,4.43,4.43h5.91v3H14.76v3H26.59a1.53,1.53,0,0,0,1.05-.43,1.47,1.47,0,0,0,.43-1.05V53.22h8.87v5.91h3V53.22h8.87v5.91h3V53.22H60.6v4.44A1.53,1.53,0,0,0,61,58.71a1.47,1.47,0,0,0,1,.43H73.91v-3H63.56v-3h5.91a4.44,4.44,0,0,0,4.43-4.43V20.7H84.25a1.53,1.53,0,0,1,1,.43,1.47,1.47,0,0,1,.43,1.05Z"/><path class="cls-1" d="M65,5.91h3v3H65Z"/><path class="cls-1" d="M59.12,5.91h3v3h-3Z"/><path class="cls-1" d="M53.21,5.91h3v3h-3Z"/><path class="cls-1" d="M35.9,22.61,27,31.48a1.47,1.47,0,0,0,0,2.09l8.87,8.87L38,40.35l-7.83-7.83L38,24.69Z"/><path class="cls-1" d="M52.78,22.61,50.69,24.7l7.83,7.83-7.83,7.83,2.09,2.09,8.87-8.87h0a1.47,1.47,0,0,0,0-2.09Z"/><path class="cls-1" d="M38.5,45.37l8.88-26.62,2.81.94L41.31,46.31Z"/></g></g></svg>